<?xml version="1.0" encoding="UTF-8" standalone="no"?>
<svg
   width="1709.5807"
   height="736.29431"
   viewBox="0 0 1709.5807 736.29431"
   version="1.1"
   xml:space="preserve"
   style="clip-rule:evenodd;fill-rule:evenodd;stroke-linecap:round;stroke-linejoin:round;stroke-miterlimit:1.5"
   id="svg408"
   sodipodi:docname="chomsky.svg"
   inkscape:version="1.2.2 (b0a8486541, 2022-12-01)"
   xmlns:inkscape="http://www.inkscape.org/namespaces/inkscape"
   xmlns:sodipodi="http://sodipodi.sourceforge.net/DTD/sodipodi-0.dtd"
   xmlns="http://www.w3.org/2000/svg"
   xmlns:svg="http://www.w3.org/2000/svg"><defs
   id="defs412" /><sodipodi:namedview
   id="namedview410"
   pagecolor="#505050"
   bordercolor="#eeeeee"
   borderopacity="1"
   inkscape:showpageshadow="0"
   inkscape:pageopacity="0"
   inkscape:pagecheckerboard="0"
   inkscape:deskcolor="#505050"
   showgrid="false"
   inkscape:zoom="0.32648026"
   inkscape:cx="751.9597"
   inkscape:cy="151.61713"
   inkscape:window-width="1854"
   inkscape:window-height="965"
   inkscape:window-x="0"
   inkscape:window-y="0"
   inkscape:window-maximized="1"
   inkscape:current-layer="g406" />
    <g
   transform="translate(-348.90444,-610.38685)"
   id="g406">
        <g
   transform="matrix(1.76081,0,0,1.76081,106.48,-516.651)"
   id="g330">
            <g
   transform="matrix(50,0,0,50,600.375,842.168)"
   id="g326">
            </g>
            <text
   x="491.97501"
   y="842.16803"
   style="font-size:50px;font-family:Avenir-Book, Avenir;fill:#ffffff"
   id="text328" />
        </g>
        <g
   transform="matrix(1.76081,0,0,1.76081,-153.52,-627.546)"
   id="g336">
            <g
   transform="matrix(42.594,0,0,42.594,575.756,842.168)"
   id="g332">
            </g>
            <text
   x="516.59302"
   y="842.16803"
   style="font-weight:500;font-size:42.594px;font-family:Avenir-Medium, Avenir;fill:#00a0d2"
   id="text334">NP</text>
        </g>
        <g
   transform="matrix(1.76081,0,0,1.76081,890.74,-449.262)"
   id="g342">
            <g
   transform="matrix(42.594,0,0,42.594,575.756,842.168)"
   id="g338">
            </g>
            <text
   x="516.59302"
   y="842.16803"
   style="font-weight:500;font-size:42.594px;font-family:Avenir-Medium, Avenir;fill:#00a0d2"
   id="text340">Adv</text>
        </g>
        <g
   transform="matrix(1.76081,0,0,1.76081,674.522,-627.546)"
   id="g348">
            <g
   transform="matrix(42.594,0,0,42.594,572.221,842.168)"
   id="g344">
            </g>
            <text
   x="520.12799"
   y="842.16803"
   style="font-weight:500;font-size:42.594px;font-family:Avenir-Medium, Avenir;fill:#00a0d2"
   id="text346">VP</text>
        </g>
        <g
   transform="matrix(1.76081,0,0,1.76081,288.264,-818.202)"
   id="g354">
            <g
   transform="matrix(42.594,0,0,42.594,558.016,842.168)"
   id="g350">
            </g>
            <text
   x="534.33301"
   y="842.16803"
   style="font-weight:500;font-size:42.594px;font-family:Avenir-Medium, Avenir;fill:#00a0d2"
   id="text352">S</text>
        </g>
        <g
   transform="matrix(1.76081,0,0,1.76081,409.256,-365.367)"
   id="g360">
            <g
   transform="matrix(50,0,0,50,578.925,842.168)"
   id="g356">
            </g>
            <text
   x="491.97501"
   y="842.16803"
   style="font-size:50px;font-family:Avenir-Book, Avenir;fill:#ffffff"
   id="text358">sleep</text>
        </g>
        <g
   transform="matrix(1.76081,0,0,1.76081,437.256,-449.262)"
   id="g366">
            <g
   transform="matrix(42.594,0,0,42.594,548.867,842.168)"
   id="g362">
            </g>
            <text
   x="522.03198"
   y="842.16803"
   style="font-weight:500;font-size:42.594px;font-family:Avenir-Medium, Avenir;fill:#00a0d2"
   id="text364">V</text>
        </g>
        <g
   transform="matrix(1.76081,0,0,1.76081,806.978,-367.845)"
   id="g376">
            <g
   transform="matrix(50,0,0,50,513.275,842.168)"
   id="g368">
            </g>
            <g
   transform="matrix(50,0,0,50,525.15,842.168)"
   id="g370">
            </g>
            <g
   transform="matrix(50,0,0,50,564.825,842.168)"
   id="g372">
            </g>
            <text
   x="491.97501"
   y="842.16803"
   style="font-size:50px;font-family:Avenir-Book, Avenir;fill:#ffffff"
   id="text374">furiously</text>
        </g>
        
        <g
   transform="matrix(1.76081,0,0,1.76081,1021.67,-167.845)"
   id="g388">
            <g
   transform="matrix(50,0,0,50,666.975,842.168)"
   id="g384">
            </g>
            
        </g>
        
        <path
   d="m 830.7,776.769 411.27,-97.489 392.41,97.489"
   style="fill:none;stroke:#00a0d2;stroke-width:6.25px"
   id="path396"
   sodipodi:nodetypes="ccc" />
        <g
   transform="matrix(0.782624,0,0,1,575.851,179.889)"
   id="g400">
            <path
   d="m 1029.58,776.769 312.39,-77.489 292.41,77.489"
   style="fill:none;stroke:#00a0d2;stroke-width:6.96px"
   id="path398" />
        </g>
        
    <g
   transform="matrix(1.76081,0,0,1.76081,70.74,-437.262)"
   id="g628">
            <g
   transform="matrix(42.594,0,0,42.594,575.756,842.168)"
   id="g624">
            </g>
            <text
   x="516.59302"
   y="842.16803"
   style="font-weight:500;font-size:42.594px;font-family:Avenir-Medium, Avenir;fill:#00a0d2"
   id="text626">NP</text>
        </g><g
   transform="matrix(1.76081,0,0,1.76081,-102.744,-237.367)"
   id="g634">
            <g
   transform="matrix(50,0,0,50,578.925,842.168)"
   id="g630">
            </g>
            <text
   x="253.44862"
   y="774.01764"
   style="font-size:50px;font-family:Avenir-Book, Avenir;fill:#ffffff"
   id="text632">Colourless</text>
        <text
   x="435.18301"
   y="887.60162"
   style="font-size:50px;font-family:Avenir-Book, Avenir;fill:#ffffff"
   id="text772">green</text><text
   x="716.87128"
   y="887.60162"
   style="font-size:50px;font-family:Avenir-Book, Avenir;fill:#ffffff"
   id="text784">ideas</text></g><g
   transform="matrix(1.76081,0,0,1.76081,-382.744,-449.262)"
   id="g640">
            <g
   transform="matrix(42.594,0,0,42.594,548.867,842.168)"
   id="g636">
            </g>
            <text
   x="522.03198"
   y="842.16803"
   style="font-weight:500;font-size:42.594px;font-family:Avenir-Medium, Avenir;fill:#00a0d2"
   id="text638">A</text>
        </g><g
   transform="matrix(0.782624,0,0,1,-244.149,179.889)"
   id="g644">
            <path
   d="m 1029.58,776.769 312.39,-77.489 292.41,77.489"
   style="fill:none;stroke:#00a0d2;stroke-width:6.96px"
   id="path642" />
        </g><g
   transform="matrix(1.76081,0,0,1.76081,290.74,-249.262)"
   id="g770">
            <g
   transform="matrix(42.594,0,0,42.594,575.756,842.168)"
   id="g766">
            </g>
            <text
   x="538.17395"
   y="842.16803"
   style="font-weight:500;font-size:42.594px;font-family:Avenir-Medium, Avenir;fill:#00a0d2"
   id="text768">N</text>
        </g><g
   transform="matrix(1.76081,0,0,1.76081,-162.744,-249.262)"
   id="g778">
            <g
   transform="matrix(42.594,0,0,42.594,548.867,842.168)"
   id="g774">
            </g>
            <text
   x="522.03198"
   y="842.16803"
   style="font-weight:500;font-size:42.594px;font-family:Avenir-Medium, Avenir;fill:#00a0d2"
   id="text776">A</text>
        </g><g
   transform="matrix(0.782624,0,0,1,-24.149,379.889)"
   id="g782">
            <path
   d="m 1029.58,776.769 312.39,-77.489 292.41,77.489"
   style="fill:none;stroke:#00a0d2;stroke-width:6.96px"
   id="path780" />
        </g></g>
</svg>
