<?xml version="1.0" encoding="UTF-8" standalone="no"?>
<!-- Created with Inkscape (http://www.inkscape.org/) -->

<svg
   width="374.43552mm"
   height="134.11107mm"
   viewBox="0 0 374.43552 134.11107"
   version="1.1"
   id="svg9122"
   inkscape:version="1.2.2 (b0a8486541, 2022-12-01)"
   sodipodi:docname="lstm-vs-rnn.svg"
   xmlns:inkscape="http://www.inkscape.org/namespaces/inkscape"
   xmlns:sodipodi="http://sodipodi.sourceforge.net/DTD/sodipodi-0.dtd"
   xmlns="http://www.w3.org/2000/svg"
   xmlns:svg="http://www.w3.org/2000/svg">
  <sodipodi:namedview
     id="namedview9124"
     pagecolor="#505050"
     bordercolor="#eeeeee"
     borderopacity="1"
     inkscape:showpageshadow="0"
     inkscape:pageopacity="0"
     inkscape:pagecheckerboard="0"
     inkscape:deskcolor="#505050"
     inkscape:document-units="mm"
     showgrid="false"
     inkscape:zoom="1.1389101"
     inkscape:cx="364.38344"
     inkscape:cy="226.09334"
     inkscape:window-width="1854"
     inkscape:window-height="965"
     inkscape:window-x="0"
     inkscape:window-y="0"
     inkscape:window-maximized="1"
     inkscape:current-layer="g2945" />
  <defs
     id="defs9119">
    <marker
       style="overflow:visible"
       id="Arrow1L-3"
       refX="0"
       refY="0"
       orient="auto-start-reverse"
       inkscape:stockid="Arrow1L"
       markerWidth="1.75"
       markerHeight="1"
       viewBox="0 0 8.75 5"
       inkscape:isstock="true"
       inkscape:collect="always"
       preserveAspectRatio="xMidYMid"
       markerUnits="userSpaceOnUse">
      <path
         style="fill:context-stroke;fill-rule:evenodd;stroke:none"
         d="M 0,0 5,-5 -12.5,0 5,5 Z"
         id="arrow1L-6"
         transform="scale(-0.5)" />
    </marker>
  </defs>
  <g
     inkscape:label="Layer 1"
     inkscape:groupmode="layer"
     id="layer1"
     transform="translate(171.44785,-104.27798)">
    <g
       id="g2945"
       transform="matrix(1.9777547,0,0,1.9775786,-803.55346,-0.09549)"
       style="stroke-width:0.505646">
      <path
         style="fill:none;stroke:#ff0000;stroke-width:0.133785;stroke-linecap:butt;stroke-linejoin:miter;stroke-dasharray:none;stroke-opacity:1"
         d="m 369.65969,103.20327 h 31.3106"
         id="path2905"
         sodipodi:nodetypes="cc" />
      <path
         id="rect2873"
         style="fill:none;fill-opacity:0.2;stroke:#ffffff;stroke-width:0.133785;stroke-linejoin:round;stop-color:#000000"
         d="M 389.24011,76.012138 H 439.2988 V 104.45784 H 389.24011 Z"
         sodipodi:nodetypes="ccccc" />
      <path
         d="m 398.13466,118.32675 q 0,-0.16386 0.10144,-0.28871 0.10924,-0.12484 0.2731,-0.12484 0.11704,0 0.18727,0.078 0.078,0.0702 0.078,0.17947 0,0.2653 -0.30432,0.36674 0.17947,0.10143 0.34333,0.10143 0.12485,0 0.22628,-0.0546 0.10924,-0.0546 0.19508,-0.17946 0.0858,-0.12485 0.14045,-0.24189 0.0624,-0.12485 0.12484,-0.35113 0.0702,-0.23409 0.10924,-0.39015 0.039,-0.15605 0.10924,-0.45256 0.0702,-0.30431 0.10924,-0.47598 0.0936,-0.41355 0.0936,-0.53059 0,-0.22629 -0.10924,-0.35894 -0.10144,-0.14045 -0.2731,-0.14045 -0.2653,0 -0.51499,0.2575 -0.24189,0.24969 -0.38234,0.64764 -0.008,0.0156 -0.0156,0.0468 -0.008,0.0312 -0.0156,0.0468 -0.008,0.008 -0.0234,0.039 -0.008,0.0234 -0.0234,0.039 -0.0156,0.008 -0.039,0.0156 -0.0156,0.008 -0.0468,0.008 -0.10924,0 -0.10924,-0.10144 0,-0.12485 0.12484,-0.39014 0.13265,-0.2653 0.42136,-0.5228 0.29651,-0.26529 0.64764,-0.26529 h 0.008 q 0.52279,0.008 0.74908,0.53839 0.2965,-0.53839 0.76468,-0.53839 0.24189,0 0.45256,0.12484 0.21849,0.12485 0.21849,0.36674 0,0.17946 -0.11705,0.29651 -0.11704,0.11704 -0.2653,0.11704 -0.10924,0 -0.18726,-0.0702 -0.0702,-0.0702 -0.0702,-0.17946 0,-0.11705 0.078,-0.21848 0.078,-0.10924 0.21848,-0.14826 -0.14826,-0.10924 -0.33553,-0.10924 -0.10143,0 -0.20287,0.0468 -0.10144,0.039 -0.2575,0.25749 -0.14825,0.21848 -0.24188,0.59302 -0.0702,0.2731 -0.14046,0.55401 -0.0624,0.2809 -0.10143,0.42135 -0.0312,0.13265 -0.0702,0.28091 -0.039,0.14825 -0.0546,0.21067 -0.008,0.0624 -0.0234,0.13265 -0.008,0.0702 -0.0156,0.10924 0,0.0312 0,0.0858 0,0.21067 0.10143,0.35112 0.10144,0.13265 0.28091,0.13265 0.26529,0 0.51499,-0.24969 0.24969,-0.25749 0.38234,-0.65544 0.008,-0.0156 0.0156,-0.0468 0.0156,-0.0312 0.0156,-0.0468 0.008,-0.0156 0.0156,-0.039 0.0156,-0.0234 0.0312,-0.0312 0.0156,-0.0156 0.0312,-0.0234 0.0234,-0.008 0.0546,-0.008 0.10924,0 0.10924,0.10143 0,0.12485 -0.13265,0.39015 -0.12485,0.2653 -0.42136,0.53059 -0.2965,0.2575 -0.63983,0.2575 -0.21848,0 -0.42916,-0.11704 -0.21068,-0.12485 -0.31992,-0.41356 -0.10144,0.14826 -0.17946,0.24189 -0.0702,0.0858 -0.24189,0.18727 -0.16386,0.10144 -0.35113,0.10144 -0.2575,0 -0.46818,-0.12485 -0.20287,-0.13265 -0.20287,-0.36673 z"
         style="font-size:7.80288px;line-height:1.25;font-family:'CMU Classical Serif';-inkscape-font-specification:'CMU Classical Serif';text-align:end;letter-spacing:0px;word-spacing:0px;text-anchor:end;fill:#ffffff;stroke-width:0.133785"
         id="path14141" />
      <path
         d="m 401.80826,118.19839 q 0,-0.0862 0.11158,-0.0862 0.0254,0 0.0761,0 0.0507,-0.005 0.0761,-0.005 0.0507,0 0.14708,0.005 0.10144,0 0.15216,0 l 0.18259,-0.73542 q 0.0152,-0.0609 0.0203,-0.071 0.005,-0.0152 0.0203,-0.0406 0.0152,-0.0304 0.0355,-0.0304 0.0254,-0.005 0.0659,-0.005 h 0.0913 q 0.11158,0 0.11158,0.0659 0,0.0862 -0.1978,0.81657 h 0.41589 q 0.10651,0 0.10651,0.0659 0,0.0558 -0.0406,0.0761 -0.0406,0.0152 -0.14202,0.0152 h -0.0812 q -0.0507,0 -0.15215,0 -0.0964,-0.005 -0.14709,-0.005 -0.0101,0.0304 -0.0254,0.10143 -0.0152,0.071 -0.0254,0.10144 l -0.30432,1.23247 q -0.0558,0.2333 -0.0558,0.32967 0,0.20287 0.14202,0.20287 0.33474,0 0.5934,-0.6492 0.0254,-0.0659 0.0913,-0.0659 0.0659,0 0.0659,0.0558 0,0.13694 -0.22823,0.45647 -0.22824,0.31952 -0.53762,0.31952 -0.19273,0 -0.31446,-0.12679 -0.11665,-0.13187 -0.11665,-0.32967 0,-0.10651 0.0355,-0.22317 l 0.34996,-1.4049 h -0.41082 q -0.11158,0 -0.11158,-0.0659 z"
         style="font-size:5.07187px;line-height:1.25;font-family:'Fairy Godmother DEMO';-inkscape-font-specification:'Fairy Godmother DEMO';text-align:end;letter-spacing:0px;word-spacing:0px;baseline-shift:sub;text-anchor:end;fill:#ffffff;stroke-width:0.133785"
         id="path14143" />
      <path
         d="m 430.66903,58.068769 q 0,-0.04682 0.0858,-0.40575 l 1.03778,-4.143329 q 0.0468,-0.179466 0.0468,-0.265298 0,-0.124846 -0.14045,-0.132649 -0.13265,-0.01561 -0.2731,-0.01561 -0.14046,-0.0078 -0.14046,-0.10924 0,-0.09363 0.10924,-0.124846 0.11705,-0.03121 0.45257,-0.05462 0.19507,-0.01561 0.31992,-0.02341 0.10924,-0.01561 0.15606,-0.01561 0.12484,0 0.12484,0.101438 0,0.04682 -0.10143,0.46037 -0.10144,0.405749 -0.2575,1.014374 -0.15606,0.600822 -0.22628,0.912937 0.47597,-0.522793 1.03778,-0.522793 h 0.008 q 0.32772,0 0.56961,0.187269 0.2497,0.187269 0.2497,0.624231 0,0.390144 -0.31212,1.271869 -0.30431,0.881725 -0.30431,1.053389 0,0.21848 0.17946,0.21848 0.43697,0 0.69446,-0.912937 0.0312,-0.124846 0.0858,-0.16386 0.0546,-0.03901 0.11705,-0.01561 0.0624,0.02341 0.0624,0.09363 0,0.04682 -0.0624,0.21848 -0.0546,0.171664 -0.16387,0.397947 -0.10924,0.218481 -0.31991,0.390144 -0.20288,0.171664 -0.44477,0.171664 -0.25749,0 -0.42135,-0.171664 -0.16386,-0.179466 -0.16386,-0.452567 0,-0.156057 0.2887,-0.983163 0.28871,-0.834908 0.28871,-1.240657 0,-0.507188 -0.36674,-0.507188 -0.24969,0 -0.47597,0.140452 -0.22629,0.132649 -0.37454,0.343327 -0.14825,0.202875 -0.22628,0.343327 -0.078,0.132649 -0.11705,0.226283 l -0.47597,1.8961 q -0.0936,0.40575 -0.33553,0.40575 -0.0858,0 -0.14825,-0.06242 -0.0624,-0.05462 -0.0624,-0.148255 z"
         style="font-size:7.80288px;line-height:1.25;font-family:'CMU Classical Serif';-inkscape-font-specification:'CMU Classical Serif';text-align:end;letter-spacing:0px;word-spacing:0px;text-anchor:end;fill:#ff0000;stroke-width:0.133785"
         id="path14146" />
      <path
         d="m 434.53769,57.659509 q 0,-0.08622 0.11158,-0.08622 0.0254,0 0.0761,0 0.0507,-0.0051 0.0761,-0.0051 0.0507,0 0.14708,0.0051 0.10144,0 0.15216,0 l 0.18259,-0.735421 q 0.0152,-0.06086 0.0203,-0.07101 0.005,-0.01522 0.0203,-0.04058 0.0152,-0.03043 0.0355,-0.03043 0.0254,-0.0051 0.0659,-0.0051 h 0.0913 q 0.11158,0 0.11158,0.06593 0,0.08622 -0.1978,0.816571 h 0.41589 q 0.10651,0 0.10651,0.06593 0,0.05579 -0.0406,0.07608 -0.0406,0.01522 -0.14201,0.01522 h -0.0811 q -0.0507,0 -0.15216,0 -0.0964,-0.0051 -0.14708,-0.0051 -0.0102,0.03043 -0.0254,0.101437 -0.0152,0.07101 -0.0254,0.101438 l -0.30432,1.232464 q -0.0558,0.233306 -0.0558,0.329672 0,0.202874 0.14202,0.202874 0.33474,0 0.59341,-0.649199 0.0254,-0.06593 0.0913,-0.06593 0.0659,0 0.0659,0.05579 0,0.136941 -0.22823,0.456469 -0.22824,0.319527 -0.53762,0.319527 -0.19273,0 -0.31446,-0.126796 -0.11665,-0.131869 -0.11665,-0.329672 0,-0.106509 0.0355,-0.223162 l 0.34995,-1.404908 h -0.41082 q -0.11158,0 -0.11158,-0.06593 z"
         style="font-size:5.07187px;line-height:1.25;font-family:'Fairy Godmother DEMO';-inkscape-font-specification:'Fairy Godmother DEMO';text-align:end;letter-spacing:0px;word-spacing:0px;baseline-shift:sub;text-anchor:end;fill:#ff0000;stroke-width:0.133785"
         id="path14148" />
      <text
         xml:space="preserve"
         style="font-size:3.56762px;line-height:1.25;font-family:'Fairy Godmother DEMO';-inkscape-font-specification:'Fairy Godmother DEMO';text-align:end;letter-spacing:0px;word-spacing:0px;text-anchor:end;stroke-width:0.133786"
         x="415.81778"
         y="96.401779"
         id="text2891"
         transform="scale(1.0050851,0.99494059)"><tspan
           sodipodi:role="line"
           style="font-style:normal;font-variant:normal;font-weight:normal;font-stretch:normal;font-size:3.56762px;font-family:'CMU Serif';-inkscape-font-specification:'CMU Serif';fill:#ffffff;stroke-width:0.133786"
           x="415.81778"
           y="96.401779"
           id="tspan2889">tanh</tspan></text>
      <rect
         style="fill:none;fill-opacity:0.2;stroke:#ffffff;stroke-width:0.133786;stroke-linejoin:round;stroke-dasharray:none;stroke-opacity:1;stop-color:#000000"
         id="rect2893"
         width="8.6741276"
         height="4.0983744"
         x="410.03082"
         y="92.692909" />
      <ellipse
         style="fill:none;fill-opacity:0.2;stroke:#ffffff;stroke-width:0.133786;stroke-linejoin:round;stroke-dasharray:none;stroke-opacity:1;stop-color:#000000"
         id="ellipse2899"
         cx="414.35135"
         cy="79.80806"
         rx="1.98982"
         ry="1.9899993" />
      <text
         xml:space="preserve"
         style="font-size:3.84929px;line-height:1.25;font-family:'Fairy Godmother DEMO';-inkscape-font-specification:'Fairy Godmother DEMO';text-align:end;letter-spacing:0px;word-spacing:0px;text-anchor:end;stroke-width:0.133785"
         x="415.02258"
         y="80.930573"
         id="text2903"
         transform="scale(1.0020072,0.99799686)"><tspan
           sodipodi:role="line"
           style="font-style:normal;font-variant:normal;font-weight:normal;font-stretch:normal;font-size:3.84929px;font-family:'CMU Sans Serif';-inkscape-font-specification:'CMU Sans Serif';fill:#ffffff;stroke-width:0.133785"
           x="415.02258"
           y="80.930573"
           id="tspan2901">+</tspan></text>
      <path
         id="rect2909"
         style="fill:none;fill-opacity:0.2;stroke:#ffffff;stroke-width:0.133785;stroke-linejoin:round;stop-color:#000000"
         d="m 319.67458,76.012138 h 50.05869 v 28.445702 h -50.05869 z"
         sodipodi:nodetypes="ccccc" />
      <path
         id="rect2911"
         style="fill:none;fill-opacity:0.2;stroke:#ffffff;stroke-width:0.133785;stroke-linejoin:round;stop-color:#000000"
         d="m 458.80565,76.012138 h 50.05869 v 28.445702 h -50.05869 z"
         sodipodi:nodetypes="ccccc" />
      <path
         d="m 325.35563,118.32675 q 0,-0.16386 0.10144,-0.28871 0.10924,-0.12484 0.2731,-0.12484 0.11704,0 0.18727,0.078 0.078,0.0702 0.078,0.17947 0,0.2653 -0.30432,0.36674 0.17947,0.10143 0.34333,0.10143 0.12485,0 0.22628,-0.0546 0.10924,-0.0546 0.19508,-0.17946 0.0858,-0.12485 0.14045,-0.24189 0.0624,-0.12485 0.12484,-0.35113 0.0702,-0.23409 0.10924,-0.39015 0.039,-0.15605 0.10924,-0.45256 0.0702,-0.30431 0.10925,-0.47598 0.0936,-0.41355 0.0936,-0.53059 0,-0.22629 -0.10924,-0.35894 -0.10144,-0.14045 -0.2731,-0.14045 -0.2653,0 -0.51499,0.2575 -0.24189,0.24969 -0.38234,0.64764 -0.008,0.0156 -0.0156,0.0468 -0.008,0.0312 -0.0156,0.0468 -0.008,0.008 -0.0234,0.039 -0.008,0.0234 -0.0234,0.039 -0.0156,0.008 -0.039,0.0156 -0.0156,0.008 -0.0468,0.008 -0.10924,0 -0.10924,-0.10144 0,-0.12485 0.12484,-0.39014 0.13265,-0.2653 0.42136,-0.5228 0.29651,-0.26529 0.64764,-0.26529 h 0.008 q 0.52279,0.008 0.74908,0.53839 0.29651,-0.53839 0.76468,-0.53839 0.24189,0 0.45257,0.12484 0.21848,0.12485 0.21848,0.36674 0,0.17946 -0.11705,0.29651 -0.11704,0.11704 -0.26529,0.11704 -0.10924,0 -0.18727,-0.0702 -0.0702,-0.0702 -0.0702,-0.17946 0,-0.11705 0.078,-0.21848 0.078,-0.10924 0.21848,-0.14826 -0.14825,-0.10924 -0.33552,-0.10924 -0.10144,0 -0.20288,0.0468 -0.10144,0.039 -0.25749,0.25749 -0.14826,0.21848 -0.24189,0.59302 -0.0702,0.2731 -0.14046,0.55401 -0.0624,0.2809 -0.10143,0.42135 -0.0312,0.13265 -0.0702,0.28091 -0.039,0.14825 -0.0546,0.21067 -0.008,0.0624 -0.0234,0.13265 -0.008,0.0702 -0.0156,0.10924 0,0.0312 0,0.0858 0,0.21067 0.10143,0.35112 0.10144,0.13265 0.28091,0.13265 0.2653,0 0.51499,-0.24969 0.24969,-0.25749 0.38234,-0.65544 0.008,-0.0156 0.0156,-0.0468 0.0156,-0.0312 0.0156,-0.0468 0.008,-0.0156 0.0156,-0.039 0.0156,-0.0234 0.0312,-0.0312 0.0156,-0.0156 0.0312,-0.0234 0.0234,-0.008 0.0546,-0.008 0.10924,0 0.10924,0.10143 0,0.12485 -0.13265,0.39015 -0.12484,0.2653 -0.42135,0.53059 -0.29651,0.2575 -0.63984,0.2575 -0.21848,0 -0.42916,-0.11704 -0.21068,-0.12485 -0.31992,-0.41356 -0.10143,0.14826 -0.17946,0.24189 -0.0702,0.0858 -0.24189,0.18727 -0.16386,0.10144 -0.35113,0.10144 -0.2575,0 -0.46817,-0.12485 -0.20288,-0.13265 -0.20288,-0.36673 z"
         style="font-size:7.80288px;line-height:1.25;font-family:'CMU Classical Serif';-inkscape-font-specification:'CMU Classical Serif';text-align:end;letter-spacing:0px;word-spacing:0px;text-anchor:end;fill:#ffffff;stroke-width:0.133785"
         id="path14105" />
      <path
         d="m 329.02923,118.19839 q 0,-0.0862 0.11158,-0.0862 0.0254,0 0.0761,0 0.0507,-0.005 0.0761,-0.005 0.0507,0 0.14708,0.005 0.10144,0 0.15216,0 l 0.18259,-0.73542 q 0.0152,-0.0609 0.0203,-0.071 0.005,-0.0152 0.0203,-0.0406 0.0152,-0.0304 0.0355,-0.0304 0.0254,-0.005 0.0659,-0.005 h 0.0913 q 0.11158,0 0.11158,0.0659 0,0.0862 -0.1978,0.81657 h 0.41589 q 0.10651,0 0.10651,0.0659 0,0.0558 -0.0406,0.0761 -0.0406,0.0152 -0.14201,0.0152 h -0.0812 q -0.0507,0 -0.15216,0 -0.0964,-0.005 -0.14708,-0.005 -0.0102,0.0304 -0.0254,0.10143 -0.0152,0.071 -0.0254,0.10144 l -0.30432,1.23247 q -0.0558,0.2333 -0.0558,0.32967 0,0.20287 0.14202,0.20287 0.33474,0 0.59341,-0.6492 0.0254,-0.0659 0.0913,-0.0659 0.0659,0 0.0659,0.0558 0,0.13694 -0.22823,0.45647 -0.22823,0.31952 -0.53762,0.31952 -0.19273,0 -0.31445,-0.12679 -0.11666,-0.13187 -0.11666,-0.32967 0,-0.10651 0.0355,-0.22317 l 0.34995,-1.4049 h -0.41082 q -0.11158,0 -0.11158,-0.0659 z"
         style="font-size:5.07187px;line-height:1.25;font-family:'Fairy Godmother DEMO';-inkscape-font-specification:'Fairy Godmother DEMO';text-align:end;letter-spacing:0px;word-spacing:0px;baseline-shift:sub;text-anchor:end;fill:#ffffff;stroke-width:0.133785"
         id="path14107" />
      <path
         d="m 330.83482,118.99975 q -0.11158,0 -0.11158,-0.0558 0,-0.0558 0.10651,-0.0558 h 2.06932 q 0.13187,0 0.13187,0.0558 0,0.0558 -0.12172,0.0558 z"
         style="font-size:5.07187px;line-height:1.25;font-family:'Fairy Godmother DEMO';-inkscape-font-specification:'Fairy Godmother DEMO';text-align:end;letter-spacing:0px;word-spacing:0px;baseline-shift:sub;text-anchor:end;fill:#ffffff;stroke-width:0.133785"
         id="path14109" />
      <path
         d="m 333.43669,120.22714 q 0,-0.0913 0.1268,-0.0913 h 0.0507 q 0.29924,-0.005 0.37025,-0.0507 0.071,-0.0457 0.11665,-0.23331 l 0.58834,-2.33306 q -0.31446,0.20288 -0.53762,0.20288 -0.0811,0 -0.0964,-0.0406 -0.0152,-0.0457 0.0152,-0.0862 0.0203,-0.0254 0.10651,-0.0355 0.0862,-0.0152 0.19273,-0.0406 0.10651,-0.0254 0.2891,-0.1623 0.18259,-0.14201 0.37532,-0.38546 0.0406,-0.0507 0.0761,-0.0507 0.0558,0 0.0558,0.0659 0,0.0254 -0.0102,0.0659 l -0.7202,2.87068 q -0.0152,0.0659 -0.0152,0.10651 0,0.10651 0.25867,0.10651 0.0152,0 0.0456,0 0.0304,-0.005 0.0457,-0.005 0.10651,0 0.14201,0.0203 0.0558,0.0406 0.0102,0.10651 -0.0254,0.0355 -0.0862,0.0355 -0.0203,0 -0.10143,-0.005 -0.0812,-0.005 -0.22824,-0.005 -0.14708,-0.005 -0.31952,-0.005 -0.17245,0 -0.3246,0.005 -0.14709,0 -0.23331,0.005 -0.0811,0.005 -0.10144,0.005 -0.0913,0 -0.0913,-0.0659 z"
         style="font-size:5.07187px;line-height:1.25;font-family:'Fairy Godmother DEMO';-inkscape-font-specification:'Fairy Godmother DEMO';text-align:end;letter-spacing:0px;word-spacing:0px;baseline-shift:sub;text-anchor:end;fill:#ffffff;stroke-width:0.133785"
         id="path14111" />
      <path
         d="m 357.89,58.068769 q 0,-0.04682 0.0858,-0.40575 l 1.03778,-4.143329 q 0.0468,-0.179466 0.0468,-0.265298 0,-0.124846 -0.14045,-0.132649 -0.13265,-0.01561 -0.2731,-0.01561 -0.14046,-0.0078 -0.14046,-0.10924 0,-0.09363 0.10925,-0.124846 0.11704,-0.03121 0.45256,-0.05462 0.19507,-0.01561 0.31992,-0.02341 0.10924,-0.01561 0.15606,-0.01561 0.12484,0 0.12484,0.101438 0,0.04682 -0.10143,0.46037 -0.10144,0.405749 -0.2575,1.014374 -0.15606,0.600822 -0.22628,0.912937 0.47597,-0.522793 1.03778,-0.522793 h 0.008 q 0.32772,0 0.56961,0.187269 0.2497,0.187269 0.2497,0.624231 0,0.390144 -0.31212,1.271869 -0.30431,0.881725 -0.30431,1.053389 0,0.21848 0.17947,0.21848 0.43696,0 0.69445,-0.912937 0.0312,-0.124846 0.0858,-0.16386 0.0546,-0.03901 0.11705,-0.01561 0.0624,0.02341 0.0624,0.09363 0,0.04682 -0.0624,0.21848 -0.0546,0.171664 -0.16386,0.397947 -0.10924,0.218481 -0.31992,0.390144 -0.20288,0.171664 -0.44477,0.171664 -0.25749,0 -0.42135,-0.171664 -0.16386,-0.179466 -0.16386,-0.452567 0,-0.156057 0.2887,-0.983163 0.28871,-0.834908 0.28871,-1.240657 0,-0.507188 -0.36673,-0.507188 -0.2497,0 -0.47598,0.140452 -0.22628,0.132649 -0.37454,0.343327 -0.14825,0.202875 -0.22628,0.343327 -0.078,0.132649 -0.11705,0.226283 l -0.47597,1.8961 q -0.0936,0.40575 -0.33552,0.40575 -0.0858,0 -0.14826,-0.06242 -0.0624,-0.05462 -0.0624,-0.148255 z"
         style="font-size:7.80288px;line-height:1.25;font-family:'CMU Classical Serif';-inkscape-font-specification:'CMU Classical Serif';text-align:end;letter-spacing:0px;word-spacing:0px;text-anchor:end;fill:#ffffff;stroke-width:0.133785"
         id="path14132" />
      <path
         d="m 361.75866,57.659509 q 0,-0.08622 0.11158,-0.08622 0.0254,0 0.0761,0 0.0507,-0.0051 0.0761,-0.0051 0.0507,0 0.14708,0.0051 0.10144,0 0.15216,0 l 0.18259,-0.735421 q 0.0152,-0.06086 0.0203,-0.07101 0.005,-0.01522 0.0203,-0.04058 0.0152,-0.03043 0.0355,-0.03043 0.0254,-0.0051 0.0659,-0.0051 h 0.0913 q 0.11158,0 0.11158,0.06593 0,0.08622 -0.1978,0.816571 h 0.4159 q 0.1065,0 0.1065,0.06593 0,0.05579 -0.0406,0.07608 -0.0406,0.01522 -0.14201,0.01522 h -0.0811 q -0.0507,0 -0.15216,0 -0.0964,-0.0051 -0.14708,-0.0051 -0.0102,0.03043 -0.0254,0.101437 -0.0152,0.07101 -0.0254,0.101438 l -0.30431,1.232464 q -0.0558,0.233306 -0.0558,0.329672 0,0.202874 0.14201,0.202874 0.33474,0 0.59341,-0.649199 0.0254,-0.06593 0.0913,-0.06593 0.0659,0 0.0659,0.05579 0,0.136941 -0.22823,0.456469 -0.22823,0.319527 -0.53762,0.319527 -0.19273,0 -0.31445,-0.126796 -0.11666,-0.131869 -0.11666,-0.329672 0,-0.106509 0.0355,-0.223162 l 0.34996,-1.404908 h -0.41083 q -0.11158,0 -0.11158,-0.06593 z"
         style="font-size:5.07187px;line-height:1.25;font-family:'Fairy Godmother DEMO';-inkscape-font-specification:'Fairy Godmother DEMO';text-align:end;letter-spacing:0px;word-spacing:0px;baseline-shift:sub;text-anchor:end;fill:#ffffff;stroke-width:0.133785"
         id="path14134" />
      <path
         d="m 363.56425,58.460864 q -0.11158,0 -0.11158,-0.05579 0,-0.05579 0.10651,-0.05579 h 2.06932 q 0.13187,0 0.13187,0.05579 0,0.05579 -0.12172,0.05579 z"
         style="font-size:5.07187px;line-height:1.25;font-family:'Fairy Godmother DEMO';-inkscape-font-specification:'Fairy Godmother DEMO';text-align:end;letter-spacing:0px;word-spacing:0px;baseline-shift:sub;text-anchor:end;fill:#ffffff;stroke-width:0.133785"
         id="path14136" />
      <path
         d="m 366.16612,59.688257 q 0,-0.09129 0.1268,-0.09129 h 0.0507 q 0.29925,-0.0051 0.37025,-0.05072 0.071,-0.04565 0.11665,-0.233306 l 0.58834,-2.33306 q -0.31445,0.202875 -0.53762,0.202875 -0.0812,0 -0.0964,-0.04057 -0.0152,-0.04565 0.0152,-0.08622 0.0203,-0.02536 0.10651,-0.0355 0.0862,-0.01522 0.19273,-0.04058 0.10651,-0.02536 0.2891,-0.1623 0.18259,-0.142012 0.37532,-0.385462 0.0406,-0.05072 0.0761,-0.05072 0.0558,0 0.0558,0.06594 0,0.02536 -0.0102,0.06593 l -0.7202,2.870678 q -0.0152,0.06594 -0.0152,0.10651 0,0.106509 0.25867,0.106509 0.0152,0 0.0456,0 0.0304,-0.0051 0.0457,-0.0051 0.10651,0 0.14201,0.02029 0.0558,0.04058 0.0102,0.106509 -0.0254,0.0355 -0.0862,0.0355 -0.0203,0 -0.10144,-0.0051 -0.0811,-0.0051 -0.22824,-0.0051 -0.14708,-0.0051 -0.31952,-0.0051 -0.17245,0 -0.3246,0.0051 -0.14709,0 -0.23331,0.0051 -0.0812,0.0051 -0.10144,0.0051 -0.0913,0 -0.0913,-0.06593 z"
         style="font-size:5.07187px;line-height:1.25;font-family:'Fairy Godmother DEMO';-inkscape-font-specification:'Fairy Godmother DEMO';text-align:end;letter-spacing:0px;word-spacing:0px;baseline-shift:sub;text-anchor:end;fill:#ffffff;stroke-width:0.133785"
         id="path14138" />
      <g
         id="path2927">
        <path
           style="color:#000000;fill:#ffffff;-inkscape-stroke:none"
           d="m 363.48828,64.658203 v 11.513672 h 0.13281 V 64.658203 Z"
           id="path1450" />
        <g
           id="g1444"
           style="fill:#ffffff">
          <path
             style="fill:#ffffff;fill-rule:evenodd;stroke-width:0.108353"
             d="m 363.55436,64.658938 1.07143,1.071429 -1.07143,-3.75 -1.07143,3.75 z"
             id="path1446" />
        </g>
      </g>
      <path
         d="m 463.03175,118.35401 q 0,-0.16386 0.10144,-0.28871 0.10924,-0.12484 0.2731,-0.12484 0.11704,0 0.18727,0.078 0.078,0.0702 0.078,0.17947 0,0.2653 -0.30432,0.36674 0.17947,0.10143 0.34333,0.10143 0.12485,0 0.22628,-0.0546 0.10924,-0.0546 0.19508,-0.17946 0.0858,-0.12485 0.14045,-0.24189 0.0624,-0.12485 0.12484,-0.35113 0.0702,-0.23409 0.10924,-0.39015 0.039,-0.15605 0.10924,-0.45256 0.0702,-0.30432 0.10924,-0.47598 0.0936,-0.41355 0.0936,-0.53059 0,-0.22629 -0.10924,-0.35894 -0.10144,-0.14045 -0.2731,-0.14045 -0.2653,0 -0.51499,0.2575 -0.24189,0.24969 -0.38234,0.64764 -0.008,0.0156 -0.0156,0.0468 -0.008,0.0312 -0.0156,0.0468 -0.008,0.008 -0.0234,0.039 -0.008,0.0234 -0.0234,0.039 -0.0156,0.008 -0.039,0.0156 -0.0156,0.008 -0.0468,0.008 -0.10924,0 -0.10924,-0.10144 0,-0.12485 0.12484,-0.39014 0.13265,-0.2653 0.42136,-0.5228 0.29651,-0.26529 0.64764,-0.26529 h 0.008 q 0.52279,0.008 0.74908,0.53839 0.29651,-0.53839 0.76468,-0.53839 0.24189,0 0.45257,0.12484 0.21848,0.12485 0.21848,0.36674 0,0.17946 -0.11705,0.29651 -0.11704,0.11704 -0.26529,0.11704 -0.10925,0 -0.18727,-0.0702 -0.0702,-0.0702 -0.0702,-0.17946 0,-0.11705 0.078,-0.21848 0.078,-0.10924 0.21848,-0.14826 -0.14826,-0.10924 -0.33552,-0.10924 -0.10144,0 -0.20288,0.0468 -0.10144,0.039 -0.25749,0.25749 -0.14826,0.21848 -0.24189,0.59302 -0.0702,0.2731 -0.14046,0.55401 -0.0624,0.2809 -0.10143,0.42135 -0.0312,0.13265 -0.0702,0.28091 -0.039,0.14825 -0.0546,0.21067 -0.008,0.0624 -0.0234,0.13265 -0.008,0.0702 -0.0156,0.10924 0,0.0312 0,0.0858 0,0.21068 0.10143,0.35113 0.10144,0.13265 0.28091,0.13265 0.2653,0 0.51499,-0.24969 0.24969,-0.25749 0.38234,-0.65544 0.008,-0.0156 0.0156,-0.0468 0.0156,-0.0312 0.0156,-0.0468 0.008,-0.0156 0.0156,-0.039 0.0156,-0.0234 0.0312,-0.0312 0.0156,-0.0156 0.0312,-0.0234 0.0234,-0.008 0.0546,-0.008 0.10924,0 0.10924,0.10143 0,0.12485 -0.13265,0.39015 -0.12485,0.2653 -0.42135,0.53059 -0.29651,0.2575 -0.63984,0.2575 -0.21848,0 -0.42916,-0.11704 -0.21068,-0.12485 -0.31992,-0.41356 -0.10143,0.14826 -0.17946,0.24189 -0.0702,0.0858 -0.24189,0.18727 -0.16386,0.10144 -0.35113,0.10144 -0.2575,0 -0.46818,-0.12485 -0.20287,-0.13265 -0.20287,-0.36673 z"
         style="font-size:7.80288px;line-height:1.25;font-family:'CMU Classical Serif';-inkscape-font-specification:'CMU Classical Serif';text-align:end;letter-spacing:0px;word-spacing:0px;text-anchor:end;fill:#ffffff;stroke-width:0.133785"
         id="path14161" />
      <path
         d="m 466.70535,118.22565 q 0,-0.0862 0.11158,-0.0862 0.0254,0 0.0761,0 0.0507,-0.005 0.0761,-0.005 0.0507,0 0.14708,0.005 0.10144,0 0.15216,0 l 0.18259,-0.73542 q 0.0152,-0.0609 0.0203,-0.071 0.005,-0.0152 0.0203,-0.0406 0.0152,-0.0304 0.0355,-0.0304 0.0254,-0.005 0.0659,-0.005 h 0.0913 q 0.11158,0 0.11158,0.0659 0,0.0862 -0.1978,0.81657 h 0.41589 q 0.10651,0 0.10651,0.0659 0,0.0558 -0.0406,0.0761 -0.0406,0.0152 -0.14201,0.0152 h -0.0811 q -0.0507,0 -0.15216,0 -0.0964,-0.005 -0.14708,-0.005 -0.0102,0.0304 -0.0254,0.10143 -0.0152,0.071 -0.0254,0.10144 l -0.30432,1.23247 q -0.0558,0.2333 -0.0558,0.32967 0,0.20287 0.14202,0.20287 0.33474,0 0.59341,-0.6492 0.0254,-0.0659 0.0913,-0.0659 0.0659,0 0.0659,0.0558 0,0.13694 -0.22823,0.45647 -0.22824,0.31952 -0.53762,0.31952 -0.19273,0 -0.31446,-0.12679 -0.11665,-0.13187 -0.11665,-0.32967 0,-0.10651 0.0355,-0.22317 l 0.34996,-1.4049 h -0.41082 q -0.11158,0 -0.11158,-0.0659 z"
         style="font-size:5.07187px;line-height:1.25;font-family:'Fairy Godmother DEMO';-inkscape-font-specification:'Fairy Godmother DEMO';text-align:end;letter-spacing:0px;word-spacing:0px;baseline-shift:sub;text-anchor:end;fill:#ffffff;stroke-width:0.133785"
         id="path14163" />
      <path
         d="m 468.74932,119.11323 q -0.11158,0 -0.11158,-0.0609 0,-0.0609 0.11665,-0.0609 0.0152,0 0.0355,0.005 0.0203,0 0.0254,0 h 1.32376 q 0.005,-0.0203 0.17244,-0.70499 0.17245,-0.68978 0.18259,-0.72021 0.0203,-0.0609 0.0609,-0.0609 0.0507,0 0.0507,0.0609 l -0.0254,0.1268 -0.3246,1.2984 h 1.29333 q 0.005,0 0.0254,0 0.0254,-0.005 0.0355,-0.005 0.11666,0 0.11666,0.0609 0,0.0406 -0.0406,0.0507 -0.0355,0.005 -0.13694,0.005 h -1.32376 l -0.32967,1.32376 q -0.0406,0.16229 -0.0862,0.16229 -0.0507,0 -0.0507,-0.0609 0,-0.0304 0.0609,-0.27388 0.0609,-0.24345 0.15216,-0.59848 0.0913,-0.3601 0.13694,-0.55283 h -1.29333 q -0.005,0 -0.0304,0.005 -0.0254,0 -0.0355,0 z"
         style="font-size:5.07187px;line-height:1.25;font-family:'Fairy Godmother DEMO';-inkscape-font-specification:'Fairy Godmother DEMO';text-align:end;letter-spacing:0px;word-spacing:0px;baseline-shift:sub;text-anchor:end;fill:#ffffff;stroke-width:0.133785"
         id="path14165" />
      <path
         d="m 472.40614,120.2544 q 0,-0.0913 0.1268,-0.0913 h 0.0507 q 0.29924,-0.005 0.37024,-0.0507 0.071,-0.0457 0.11666,-0.23331 l 0.58833,-2.33306 q -0.31445,0.20288 -0.53762,0.20288 -0.0811,0 -0.0964,-0.0406 -0.0152,-0.0456 0.0152,-0.0862 0.0203,-0.0254 0.10651,-0.0355 0.0862,-0.0152 0.19273,-0.0406 0.10651,-0.0254 0.2891,-0.1623 0.18259,-0.14201 0.37532,-0.38546 0.0406,-0.0507 0.0761,-0.0507 0.0558,0 0.0558,0.0659 0,0.0254 -0.0102,0.0659 l -0.7202,2.87068 q -0.0152,0.0659 -0.0152,0.10651 0,0.10651 0.25867,0.10651 0.0152,0 0.0456,0 0.0304,-0.005 0.0456,-0.005 0.10651,0 0.14201,0.0203 0.0558,0.0406 0.0102,0.10651 -0.0254,0.0355 -0.0862,0.0355 -0.0203,0 -0.10144,-0.005 -0.0812,-0.005 -0.22823,-0.005 -0.14709,-0.005 -0.31953,-0.005 -0.17245,0 -0.3246,0.005 -0.14709,0 -0.23331,0.005 -0.0811,0.005 -0.10144,0.005 -0.0913,0 -0.0913,-0.0659 z"
         style="font-size:5.07187px;line-height:1.25;font-family:'Fairy Godmother DEMO';-inkscape-font-specification:'Fairy Godmother DEMO';text-align:end;letter-spacing:0px;word-spacing:0px;baseline-shift:sub;text-anchor:end;fill:#ffffff;stroke-width:0.133785"
         id="path14167" />
      <path
         d="m 495.56612,58.096029 q 0,-0.04682 0.0858,-0.40575 l 1.03778,-4.143329 q 0.0468,-0.179466 0.0468,-0.265298 0,-0.124846 -0.14045,-0.132649 -0.13265,-0.01561 -0.2731,-0.01561 -0.14046,-0.0078 -0.14046,-0.10924 0,-0.09363 0.10924,-0.124846 0.11705,-0.03121 0.45257,-0.05462 0.19507,-0.01561 0.31992,-0.02341 0.10924,-0.01561 0.15606,-0.01561 0.12484,0 0.12484,0.101438 0,0.04682 -0.10143,0.46037 -0.10144,0.405749 -0.2575,1.014374 -0.15606,0.600822 -0.22628,0.912937 0.47597,-0.522793 1.03778,-0.522793 h 0.008 q 0.32772,0 0.56961,0.187269 0.2497,0.187269 0.2497,0.62423 0,0.390144 -0.31212,1.27187 -0.30431,0.881725 -0.30431,1.053389 0,0.21848 0.17946,0.21848 0.43697,0 0.69446,-0.912937 0.0312,-0.124846 0.0858,-0.16386 0.0546,-0.03901 0.11705,-0.01561 0.0624,0.02341 0.0624,0.09363 0,0.04682 -0.0624,0.21848 -0.0546,0.171664 -0.16386,0.397947 -0.10924,0.218481 -0.31992,0.390144 -0.20288,0.171663 -0.44477,0.171663 -0.25749,0 -0.42135,-0.171663 -0.16386,-0.179466 -0.16386,-0.452567 0,-0.156058 0.2887,-0.983163 0.28871,-0.834908 0.28871,-1.240658 0,-0.507187 -0.36674,-0.507187 -0.24969,0 -0.47597,0.140452 -0.22628,0.132649 -0.37454,0.343327 -0.14825,0.202875 -0.22628,0.343326 -0.078,0.132649 -0.11705,0.226284 l -0.47597,1.8961 q -0.0936,0.405749 -0.33553,0.405749 -0.0858,0 -0.14825,-0.06242 -0.0624,-0.05462 -0.0624,-0.148254 z"
         style="font-size:7.80288px;line-height:1.25;font-family:'CMU Classical Serif';-inkscape-font-specification:'CMU Classical Serif';text-align:end;letter-spacing:0px;word-spacing:0px;text-anchor:end;fill:#ffffff;stroke-width:0.133785"
         id="path14170" />
      <path
         d="m 499.43478,57.686769 q 0,-0.08622 0.11158,-0.08622 0.0254,0 0.0761,0 0.0507,-0.0051 0.0761,-0.0051 0.0507,0 0.14708,0.0051 0.10144,0 0.15216,0 l 0.18259,-0.735421 q 0.0152,-0.06086 0.0203,-0.07101 0.005,-0.01522 0.0203,-0.04058 0.0152,-0.03043 0.0355,-0.03043 0.0254,-0.0051 0.0659,-0.0051 h 0.0913 q 0.11158,0 0.11158,0.06594 0,0.08622 -0.1978,0.816571 h 0.41589 q 0.10651,0 0.10651,0.06593 0,0.05579 -0.0406,0.07608 -0.0406,0.01522 -0.14201,0.01522 h -0.0812 q -0.0507,0 -0.15216,0 -0.0964,-0.0051 -0.14708,-0.0051 -0.0102,0.03043 -0.0254,0.101437 -0.0152,0.07101 -0.0254,0.101438 l -0.30431,1.232464 q -0.0558,0.233306 -0.0558,0.329672 0,0.202874 0.14201,0.202874 0.33474,0 0.59341,-0.649199 0.0254,-0.06593 0.0913,-0.06593 0.0659,0 0.0659,0.05579 0,0.136941 -0.22823,0.456469 -0.22823,0.319527 -0.53762,0.319527 -0.19273,0 -0.31445,-0.126796 -0.11666,-0.131869 -0.11666,-0.329672 0,-0.106509 0.0355,-0.223162 l 0.34995,-1.404908 h -0.41082 q -0.11158,0 -0.11158,-0.06593 z"
         style="font-size:5.07187px;line-height:1.25;font-family:'Fairy Godmother DEMO';-inkscape-font-specification:'Fairy Godmother DEMO';text-align:end;letter-spacing:0px;word-spacing:0px;baseline-shift:sub;text-anchor:end;fill:#ffffff;stroke-width:0.133785"
         id="path14172" />
      <path
         d="m 501.47875,58.574346 q -0.11158,0 -0.11158,-0.06086 0,-0.06086 0.11665,-0.06086 0.0152,0 0.0355,0.0051 0.0203,0 0.0254,0 h 1.32376 q 0.005,-0.02029 0.17245,-0.70499 0.17244,-0.689774 0.18258,-0.720206 0.0203,-0.06086 0.0609,-0.06086 0.0507,0 0.0507,0.06086 l -0.0254,0.126797 -0.3246,1.298399 h 1.29333 q 0.005,0 0.0254,0 0.0254,-0.0051 0.0355,-0.0051 0.11666,0 0.11666,0.06086 0,0.04057 -0.0406,0.05072 -0.0355,0.0051 -0.13694,0.0051 h -1.32376 l -0.32967,1.323758 q -0.0406,0.1623 -0.0862,0.1623 -0.0507,0 -0.0507,-0.06086 0,-0.03043 0.0609,-0.273881 0.0609,-0.243449 0.15216,-0.59848 0.0913,-0.360103 0.13694,-0.552834 h -1.29333 q -0.005,0 -0.0304,0.0051 -0.0254,0 -0.0355,0 z"
         style="font-size:5.07187px;line-height:1.25;font-family:'Fairy Godmother DEMO';-inkscape-font-specification:'Fairy Godmother DEMO';text-align:end;letter-spacing:0px;word-spacing:0px;baseline-shift:sub;text-anchor:end;fill:#ffffff;stroke-width:0.133785"
         id="path14174" />
      <path
         d="m 505.13557,59.715516 q 0,-0.09129 0.1268,-0.09129 h 0.0507 q 0.29924,-0.0051 0.37024,-0.05072 0.071,-0.04565 0.11666,-0.233306 l 0.58833,-2.33306 q -0.31445,0.202875 -0.53762,0.202875 -0.0811,0 -0.0964,-0.04057 -0.0152,-0.04565 0.0152,-0.08622 0.0203,-0.02536 0.1065,-0.0355 0.0862,-0.01522 0.19274,-0.04058 0.1065,-0.02536 0.28909,-0.1623 0.18259,-0.142012 0.37532,-0.385462 0.0406,-0.05072 0.0761,-0.05072 0.0558,0 0.0558,0.06594 0,0.02536 -0.0101,0.06593 l -0.72021,2.870678 q -0.0152,0.06594 -0.0152,0.10651 0,0.106509 0.25867,0.106509 0.0152,0 0.0457,0 0.0304,-0.0051 0.0456,-0.0051 0.10651,0 0.14202,0.02029 0.0558,0.04058 0.0101,0.10651 -0.0254,0.0355 -0.0862,0.0355 -0.0203,0 -0.10144,-0.0051 -0.0811,-0.0051 -0.22823,-0.0051 -0.14709,-0.0051 -0.31953,-0.0051 -0.17245,0 -0.3246,0.0051 -0.14709,0 -0.23331,0.0051 -0.0812,0.0051 -0.10144,0.0051 -0.0913,0 -0.0913,-0.06593 z"
         style="font-size:5.07187px;line-height:1.25;font-family:'Fairy Godmother DEMO';-inkscape-font-specification:'Fairy Godmother DEMO';text-align:end;letter-spacing:0px;word-spacing:0px;baseline-shift:sub;text-anchor:end;fill:#ffffff;stroke-width:0.133785"
         id="path14176" />
      <text
         xml:space="preserve"
         style="font-size:3.86249px;line-height:1.25;font-family:'Fairy Godmother DEMO';-inkscape-font-specification:'Fairy Godmother DEMO';text-align:end;letter-spacing:0px;word-spacing:0px;text-anchor:end;stroke-width:0.133786"
         x="405.32037"
         y="96.401779"
         id="text2959"
         transform="scale(1.0050851,0.99494059)"><tspan
           sodipodi:role="line"
           style="font-style:normal;font-variant:normal;font-weight:normal;font-stretch:normal;font-size:3.86249px;font-family:'CMU Classical Serif';-inkscape-font-specification:'CMU Classical Serif';fill:#ffffff;stroke-width:0.133786"
           x="405.32037"
           y="96.401779"
           id="tspan2957">σ</tspan></text>
      <rect
         style="fill:none;fill-opacity:0.2;stroke:#ffffff;stroke-width:0.133786;stroke-linejoin:round;stroke-dasharray:none;stroke-opacity:1;stop-color:#000000"
         id="rect2961"
         width="3.5505083"
         height="4.0983744"
         x="404.60379"
         y="92.692909" />
      <text
         xml:space="preserve"
         style="font-size:3.86249px;line-height:1.25;font-family:'Fairy Godmother DEMO';-inkscape-font-specification:'Fairy Godmother DEMO';text-align:end;letter-spacing:0px;word-spacing:0px;text-anchor:end;stroke-width:0.133786"
         x="399.92081"
         y="96.401779"
         id="text2973"
         transform="scale(1.0050851,0.99494059)"><tspan
           sodipodi:role="line"
           style="font-style:normal;font-variant:normal;font-weight:normal;font-stretch:normal;font-size:3.86249px;font-family:'CMU Classical Serif';-inkscape-font-specification:'CMU Classical Serif';fill:#ffffff;stroke-width:0.133786"
           x="399.92081"
           y="96.401779"
           id="tspan2971">σ</tspan></text>
      <rect
         style="fill:none;fill-opacity:0.2;stroke:#ffffff;stroke-width:0.133786;stroke-linejoin:round;stroke-dasharray:none;stroke-opacity:1;stop-color:#000000"
         id="rect2975"
         width="3.5505083"
         height="4.0983744"
         x="399.17676"
         y="92.692909" />
      <text
         xml:space="preserve"
         style="font-size:3.86249px;line-height:1.25;font-family:'Fairy Godmother DEMO';-inkscape-font-specification:'Fairy Godmother DEMO';text-align:end;letter-spacing:0px;word-spacing:0px;text-anchor:end;stroke-width:0.133786"
         x="421.21722"
         y="96.401779"
         id="text2981"
         transform="scale(1.0050851,0.99494059)"><tspan
           sodipodi:role="line"
           style="font-style:normal;font-variant:normal;font-weight:normal;font-stretch:normal;font-size:3.86249px;font-family:'CMU Classical Serif';-inkscape-font-specification:'CMU Classical Serif';fill:#ffffff;stroke-width:0.133786"
           x="421.21722"
           y="96.401779"
           id="tspan2979">σ</tspan></text>
      <rect
         style="fill:none;fill-opacity:0.2;stroke:#ffffff;stroke-width:0.133786;stroke-linejoin:round;stroke-dasharray:none;stroke-opacity:1;stop-color:#000000"
         id="rect2983"
         width="3.5505083"
         height="4.0983744"
         x="420.58148"
         y="92.692909" />
      <ellipse
         style="fill:none;fill-opacity:0.2;stroke:#ffffff;stroke-width:0.133786;stroke-linejoin:round;stroke-dasharray:none;stroke-opacity:1;stop-color:#000000"
         id="ellipse3089"
         cx="400.90814"
         cy="80.075645"
         rx="1.98982"
         ry="1.9899993" />
      <text
         xml:space="preserve"
         style="font-size:3.84929px;line-height:1.25;font-family:'Fairy Godmother DEMO';-inkscape-font-specification:'Fairy Godmother DEMO';text-align:end;letter-spacing:0px;word-spacing:0px;text-anchor:end;stroke-width:0.133785"
         x="401.60632"
         y="81.198692"
         id="text3093"
         transform="scale(1.0020072,0.99799686)"><tspan
           sodipodi:role="line"
           style="font-style:normal;font-variant:normal;font-weight:normal;font-stretch:normal;font-size:3.84929px;font-family:'CMU Sans Serif';-inkscape-font-specification:'CMU Sans Serif';fill:#ffffff;stroke-width:0.133785"
           x="401.60632"
           y="81.198692"
           id="tspan3091">×</tspan></text>
      <ellipse
         style="fill:none;fill-opacity:0.2;stroke:#ffffff;stroke-width:0.133786;stroke-linejoin:round;stroke-dasharray:none;stroke-opacity:1;stop-color:#000000"
         id="ellipse3097"
         cx="414.35135"
         cy="88.103134"
         rx="1.98982"
         ry="1.9899993" />
      <text
         xml:space="preserve"
         style="font-size:3.84929px;line-height:1.25;font-family:'Fairy Godmother DEMO';-inkscape-font-specification:'Fairy Godmother DEMO';text-align:end;letter-spacing:0px;word-spacing:0px;text-anchor:end;stroke-width:0.133785"
         x="415.02258"
         y="89.242302"
         id="text3101"
         transform="scale(1.0020072,0.99799686)"><tspan
           sodipodi:role="line"
           style="font-style:normal;font-variant:normal;font-weight:normal;font-stretch:normal;font-size:3.84929px;font-family:'CMU Sans Serif';-inkscape-font-specification:'CMU Sans Serif';fill:#ffffff;stroke-width:0.133785"
           x="415.02258"
           y="89.242302"
           id="tspan3099">×</tspan></text>
      <text
         xml:space="preserve"
         style="font-style:normal;font-variant:normal;font-weight:normal;font-stretch:normal;font-size:3.56762px;line-height:1.25;font-family:'CMU Serif';-inkscape-font-specification:'CMU Serif';text-align:end;letter-spacing:0px;word-spacing:0px;text-anchor:end;stroke-width:0.133786"
         x="429.39423"
         y="84.568253"
         id="text3930"
         transform="scale(1.0050851,0.99494059)"><tspan
           sodipodi:role="line"
           style="font-style:normal;font-variant:normal;font-weight:normal;font-stretch:normal;font-size:3.56762px;font-family:'CMU Serif';-inkscape-font-specification:'CMU Serif';fill:#ffffff;stroke-width:0.133786"
           x="429.39423"
           y="84.568253"
           id="tspan3928">tanh</tspan></text>
      <rect
         style="fill:none;fill-opacity:0.2;stroke:#ffffff;stroke-width:0.133786;stroke-linejoin:round;stroke-dasharray:none;stroke-opacity:1;stop-color:#000000"
         id="rect3932"
         width="8.6741276"
         height="4.0983744"
         x="423.67633"
         y="80.919258"
         rx="2.5281193"
         ry="2.5283446" />
      <path
         style="fill:none;stroke:#ffffff;stroke-width:0.133785;stroke-linecap:butt;stroke-linejoin:miter;stroke-dasharray:none;stroke-opacity:1;marker-end:url(#Arrow1L-3)"
         d="M 414.32896,85.857946 V 83.045253"
         id="path3958"
         sodipodi:nodetypes="cc" />
      <path
         style="fill:none;stroke:#ffffff;stroke-width:0.133785;stroke-linecap:butt;stroke-linejoin:miter;stroke-dasharray:none;stroke-opacity:1"
         d="m 427.97446,79.922172 v 0.939612"
         id="path3968"
         sodipodi:nodetypes="cc" />
      <path
         style="color:#000000;fill:#ffffff;-inkscape-stroke:none"
         d="m 400.88477,98.029297 v 14.992183 h 0.13281 V 98.029297 Z"
         id="path1470" />
      <g
         id="g1464"
         style="fill:#ffffff">
        <path
           style="fill:#ffffff;fill-rule:evenodd;stroke-width:0.0505646"
           d="m 400.95102,98.029907 0.5,0.5 -0.5,-1.75 -0.5,1.75 z"
           id="path1466" />
      </g>
      <path
         style="color:#000000;fill:#00aaff;-inkscape-stroke:none"
         d="m 416.21484,79.857422 v 0.132812 h 40.14063 v -0.132812 z"
         id="path1580" />
      <g
         id="g1574"
         style="fill:#00aaff;fill-opacity:1">
        <path
           style="fill:#00aaff;fill-opacity:1;fill-rule:evenodd;stroke-width:0.108353"
           d="m 456.35499,79.923543 -1.07143,1.071429 3.75,-1.071429 -3.75,-1.071429 z"
           id="path1576" />
      </g>
      <path
         style="color:#000000;fill:#00aaff;-inkscape-stroke:none"
         d="m 369.92773,79.857422 v 0.132812 h 27.56446 v -0.132812 z"
         id="path1560" />
      <g
         id="g1554"
         style="fill:#00aaff;fill-opacity:1">
        <path
           style="fill:#00aaff;fill-opacity:1;fill-rule:evenodd;stroke-width:0.0505646"
           d="m 397.49202,79.923543 -0.5,0.5 1.75,-0.5 -1.75,-0.5 z"
           id="path1556" />
      </g>
      <path
         style="color:#000000;fill:#ff0000;-inkscape-stroke:none"
         d="m 433.05273,64.708984 v 14.652344 h 0.13477 V 64.708984 Z m 0,15.923828 v 22.347658 h 0.13477 V 80.632812 Z"
         id="path1610" />
      <g
         id="g1604"
         style="fill:#ff0000;fill-opacity:1">
        <path
           style="fill:#ff0000;fill-opacity:1;fill-rule:evenodd;stroke-width:0.108353"
           d="m 433.1197,64.709318 1.07143,1.071429 -1.07143,-3.75 -1.07143,3.75 z"
           id="path1606" />
      </g>
      <path
         style="color:#000000;fill:#ffffff;-inkscape-stroke:none"
         d="m 331.31836,107.12695 v 5.89453 h 0.13476 v -5.89453 z"
         id="path1460" />
      <g
         id="g1454"
         style="fill:#ffffff">
        <path
           style="fill:#ffffff;fill-rule:evenodd;stroke-width:0.108353"
           d="m 331.38568,107.12773 1.07143,1.07143 -1.07143,-3.75 -1.07143,3.75 z"
           id="path1456" />
      </g>
      <path
         style="color:#000000;fill:#ffffff;-inkscape-stroke:none"
         d="m 470.44922,107.12695 v 5.89453 h 0.13476 v -5.89453 z"
         id="path1600" />
      <g
         id="g1594"
         style="fill:#ffffff">
        <path
           style="fill:#ffffff;fill-rule:evenodd;stroke-width:0.108353"
           d="m 470.51636,107.12773 1.07143,1.07143 -1.07143,-3.75 -1.07143,3.75 z"
           id="path1596" />
      </g>
      <path
         style="color:#000000;fill:#ffffff;-inkscape-stroke:none"
         d="m 502.61719,64.658203 v 11.513672 h 0.13476 V 64.658203 Z"
         id="path1620" />
      <g
         id="g1614"
         style="fill:#ffffff">
        <path
           style="fill:#ffffff;fill-rule:evenodd;stroke-width:0.108353"
           d="m 502.68504,64.658938 1.07143,1.071429 -1.07143,-3.75 -1.07143,3.75 z"
           id="path1616" />
      </g>
      <path
         style="color:#000000;fill:#ffffff;-inkscape-stroke:none"
         d="m 406.23437,98.029297 v 2.478513 h -5.2832 v 0.13477 h 5.41797 v -2.613283 z"
         id="path1480" />
      <g
         id="g1474"
         style="fill:#ffffff">
        <path
           style="fill:#ffffff;fill-rule:evenodd;stroke-width:0.0505646"
           d="m 406.3022,98.029907 0.5,0.5 -0.5,-1.75 -0.5,1.75 z"
           id="path1476" />
      </g>
      <path
         style="color:#000000;fill:#ffffff;-inkscape-stroke:none"
         d="m 414.5293,98.029297 v 2.478513 h -8.22657 v 0.13477 h 8.36133 v -2.613283 z"
         id="path1490" />
      <g
         id="g1484"
         style="fill:#ffffff">
        <path
           style="fill:#ffffff;fill-rule:evenodd;stroke-width:0.0505646"
           d="m 414.59653,98.029907 0.5,0.5 -0.5,-1.75 -0.5,1.75 z"
           id="path1486" />
      </g>
      <path
         style="color:#000000;fill:#ffffff;-inkscape-stroke:none"
         d="m 422.28906,98.029297 v 2.478513 h -7.69336 v 0.13477 h 7.82617 v -2.613283 z"
         id="path1500" />
      <g
         id="g1494"
         style="fill:#ffffff">
        <path
           style="fill:#ffffff;fill-rule:evenodd;stroke-width:0.0505646"
           d="m 422.35574,98.029907 0.5,0.5 -0.5,-1.75 -0.5,1.75 z"
           id="path1496" />
      </g>
      <path
         style="color:#000000;fill:#ffffff;-inkscape-stroke:none"
         d="m 406.23437,88.0625 v 4.484375 h 0.13477 v -4.351563 h 4.75 V 88.0625 Z"
         id="path1510" />
      <g
         id="g1504"
         style="fill:#ffffff">
        <path
           style="fill:#ffffff;fill-rule:evenodd;stroke-width:0.0505646"
           d="m 411.11826,88.129332 -0.5,0.5 1.75,-0.5 -1.75,-0.5 z"
           id="path1506" />
      </g>
      <path
         style="color:#000000;fill:#ffffff;-inkscape-stroke:none"
         d="m 414.26172,91.339844 v 1.207031 h 0.13476 v -1.207031 z"
         id="path1520" />
      <g
         id="g1514"
         style="fill:#f9f9f9">
        <path
           style="fill:#f9f9f9;fill-rule:evenodd;stroke-width:0.0505646"
           d="m 414.32896,91.340329 0.5,0.5 -0.5,-1.75 -0.5,1.75 z"
           id="path1516" />
      </g>
      <path
         style="color:#000000;fill:#00aaff;-inkscape-stroke:none"
         d="m 402.83789,79.857422 v 0.132812 h 8.29883 v -0.132812 z"
         id="path1550" />
      <g
         id="g1544"
         style="fill:#00aaff;fill-opacity:1">
        <path
           style="fill:#00aaff;fill-opacity:1;fill-rule:evenodd;stroke-width:0.0505646"
           d="m 411.13748,79.923543 -0.5,0.5 1.75,-0.5 -1.75,-0.5 z"
           id="path1546" />
      </g>
      <path
         style="color:#000000;fill:#ffffff;-inkscape-stroke:none"
         d="m 422.28906,89.400391 v 3.146484 h 0.13281 v -3.013672 h 2.3418 v -0.132812 z"
         id="path1530" />
      <g
         id="g1524"
         style="fill:#ffffff">
        <path
           style="fill:#ffffff;fill-rule:evenodd;stroke-width:0.0505646"
           d="m 424.76376,89.467248 -0.5,0.5 1.75,-0.5 -1.75,-0.5 z"
           id="path1526" />
      </g>
      <path
         style="color:#000000;fill:#ffffff;-inkscape-stroke:none"
         d="m 427.9082,85.005859 v 1.207032 h 0.13282 v -1.207032 z"
         id="path1540" />
      <g
         id="g1534"
         style="fill:#ffffff">
        <path
           style="fill:#ffffff;fill-rule:evenodd;stroke-width:0.0505646"
           d="m 427.97446,86.213446 -0.5,-0.5 0.5,1.75 0.5,-1.75 z"
           id="path1536" />
      </g>
      <path
         style="color:#000000;fill:#ff0000;-inkscape-stroke:none"
         d="m 427.9082,91.375 v 11.71094 h 28.42774 v -0.13477 H 428.04102 V 91.375 Z"
         id="path1590" />
      <g
         id="g1584"
         style="fill:#ff0000;fill-opacity:1">
        <path
           style="fill:#ff0000;fill-opacity:1;fill-rule:evenodd;stroke-width:0.108353"
           d="m 456.33576,103.01843 -1.07143,1.07143 3.75,-1.07143 -3.75,-1.07143 z"
           id="path1586" />
      </g>
      <path
         style="color:#000000;fill:#ffffff;-inkscape-stroke:none"
         d="m 400.88477,83.3125 v 9.371094 h 0.13281 V 83.3125 Z"
         id="path1570" />
      <g
         id="g1564"
         style="fill:#ffffff;fill-opacity:1">
        <path
           style="fill:#ffffff;fill-opacity:1;fill-rule:evenodd;stroke-width:0.0505646"
           d="m 400.95102,83.312836 0.5,0.5 -0.5,-1.75 -0.5,1.75 z"
           id="path1566" />
      </g>
      <text
         xml:space="preserve"
         style="font-size:2.85409px;line-height:1.25;font-family:'Fairy Godmother DEMO';-inkscape-font-specification:'Fairy Godmother DEMO';text-align:end;letter-spacing:0px;word-spacing:0px;text-anchor:end;stroke-width:0.133786;fill:#00aaff;fill-opacity:1"
         x="-84.29451"
         y="402.13696"
         id="text2891-6"
         transform="matrix(0,-1.0051746,0.99485203,0,0,0)"><tspan
           sodipodi:role="line"
           style="font-style:normal;font-variant:normal;font-weight:normal;font-stretch:normal;font-size:2.85409px;font-family:'CMU Sans Serif';-inkscape-font-specification:'CMU Sans Serif';fill:#00aaff;stroke-width:0.133786;fill-opacity:1"
           x="-84.29451"
           y="402.13696"
           id="tspan2889-1">forget</tspan></text>
      <text
         xml:space="preserve"
         style="font-size:2.85409px;line-height:1.25;font-family:'Fairy Godmother DEMO';-inkscape-font-specification:'Fairy Godmother DEMO';text-align:end;letter-spacing:0px;word-spacing:0px;text-anchor:end;stroke-width:0.133786;fill:#00aaff;fill-opacity:1"
         x="411.13901"
         y="86.001488"
         id="text7445"
         transform="scale(1.0050851,0.99494062)"><tspan
           sodipodi:role="line"
           style="font-style:normal;font-variant:normal;font-weight:normal;font-stretch:normal;font-size:2.85409px;font-family:'CMU Sans Serif';-inkscape-font-specification:'CMU Sans Serif';fill:#00aaff;stroke-width:0.133786;fill-opacity:1"
           x="411.13901"
           y="86.001488"
           id="tspan7443">update</tspan></text>
      <path
         d="m 374.44621,110.81046 q 0,-0.0468 0.0858,-0.40575 l 1.03779,-4.14333 q 0.0468,-0.17947 0.0468,-0.2653 0,-0.12485 -0.14045,-0.13265 -0.13265,-0.0156 -0.2731,-0.0156 -0.14045,-0.008 -0.14045,-0.10925 0,-0.0936 0.10924,-0.12484 0.11704,-0.0312 0.45257,-0.0546 0.19507,-0.0156 0.31991,-0.0234 0.10924,-0.0156 0.15606,-0.0156 0.12485,0 0.12485,0.10144 0,0.0468 -0.10144,0.46037 -0.10144,0.40575 -0.2575,1.01438 -0.15605,0.60082 -0.22628,0.91293 0.47598,-0.52279 1.03778,-0.52279 h 0.008 q 0.32772,0 0.56961,0.18727 0.24969,0.18727 0.24969,0.62423 0,0.39014 -0.31212,1.27187 -0.30431,0.88172 -0.30431,1.05339 0,0.21848 0.17947,0.21848 0.43696,0 0.69445,-0.91294 0.0312,-0.12484 0.0858,-0.16386 0.0546,-0.039 0.11704,-0.0156 0.0624,0.0234 0.0624,0.0936 0,0.0468 -0.0624,0.21848 -0.0546,0.17166 -0.16386,0.39795 -0.10924,0.21848 -0.31992,0.39014 -0.20287,0.17166 -0.44476,0.17166 -0.2575,0 -0.42136,-0.17166 -0.16386,-0.17947 -0.16386,-0.45257 0,-0.15605 0.28871,-0.98316 0.2887,-0.83491 0.2887,-1.24066 0,-0.50718 -0.36673,-0.50718 -0.24969,0 -0.47598,0.14045 -0.22628,0.13265 -0.37454,0.34332 -0.14825,0.20288 -0.22628,0.34333 -0.078,0.13265 -0.11704,0.22628 l -0.47598,1.8961 q -0.0936,0.40575 -0.33552,0.40575 -0.0858,0 -0.14826,-0.0624 -0.0624,-0.0546 -0.0624,-0.14825 z"
         style="font-size:7.80288px;line-height:1.25;font-family:'CMU Classical Serif';-inkscape-font-specification:'CMU Classical Serif';text-align:end;letter-spacing:0px;word-spacing:0px;text-anchor:end;fill:#ff0000;stroke-width:0.133785"
         id="path14114" />
      <path
         d="m 378.31488,110.4012 q 0,-0.0862 0.11158,-0.0862 0.0254,0 0.0761,0 0.0507,-0.005 0.0761,-0.005 0.0507,0 0.14709,0.005 0.10143,0 0.15215,0 l 0.18259,-0.73542 q 0.0152,-0.0609 0.0203,-0.071 0.005,-0.0152 0.0203,-0.0406 0.0152,-0.0304 0.0355,-0.0304 0.0254,-0.005 0.0659,-0.005 h 0.0913 q 0.11158,0 0.11158,0.0659 0,0.0862 -0.1978,0.81657 h 0.41589 q 0.10651,0 0.10651,0.0659 0,0.0558 -0.0406,0.0761 -0.0406,0.0152 -0.14201,0.0152 h -0.0812 q -0.0507,0 -0.15216,0 -0.0964,-0.005 -0.14708,-0.005 -0.0101,0.0304 -0.0254,0.10144 -0.0152,0.071 -0.0254,0.10144 l -0.30431,1.23246 q -0.0558,0.23331 -0.0558,0.32967 0,0.20288 0.14201,0.20288 0.33474,0 0.59341,-0.6492 0.0254,-0.0659 0.0913,-0.0659 0.0659,0 0.0659,0.0558 0,0.13694 -0.22824,0.45647 -0.22823,0.31953 -0.53761,0.31953 -0.19274,0 -0.31446,-0.1268 -0.11665,-0.13187 -0.11665,-0.32967 0,-0.10651 0.0355,-0.22316 l 0.34996,-1.40491 h -0.41082 q -0.11158,0 -0.11158,-0.0659 z"
         style="font-size:5.07187px;line-height:1.25;font-family:'Fairy Godmother DEMO';-inkscape-font-specification:'Fairy Godmother DEMO';text-align:end;letter-spacing:0px;word-spacing:0px;baseline-shift:sub;text-anchor:end;fill:#ff0000;stroke-width:0.133785"
         id="path14116" />
      <path
         d="m 380.12047,111.20255 q -0.11159,0 -0.11159,-0.0558 0,-0.0558 0.10651,-0.0558 h 2.06933 q 0.13186,0 0.13186,0.0558 0,0.0558 -0.12172,0.0558 z"
         style="font-size:5.07187px;line-height:1.25;font-family:'Fairy Godmother DEMO';-inkscape-font-specification:'Fairy Godmother DEMO';text-align:end;letter-spacing:0px;word-spacing:0px;baseline-shift:sub;text-anchor:end;fill:#ff0000;stroke-width:0.133785"
         id="path14118" />
      <path
         d="m 382.72233,112.42994 q 0,-0.0913 0.1268,-0.0913 h 0.0507 q 0.29924,-0.005 0.37024,-0.0507 0.071,-0.0456 0.11666,-0.2333 l 0.58833,-2.33306 q -0.31445,0.20287 -0.53761,0.20287 -0.0812,0 -0.0964,-0.0406 -0.0152,-0.0456 0.0152,-0.0862 0.0203,-0.0254 0.10651,-0.0355 0.0862,-0.0152 0.19273,-0.0406 0.10651,-0.0254 0.28909,-0.1623 0.18259,-0.14202 0.37532,-0.38547 0.0406,-0.0507 0.0761,-0.0507 0.0558,0 0.0558,0.0659 0,0.0254 -0.0101,0.0659 l -0.72021,2.87068 q -0.0152,0.0659 -0.0152,0.10651 0,0.10651 0.25866,0.10651 0.0152,0 0.0456,0 0.0304,-0.005 0.0456,-0.005 0.10651,0 0.14202,0.0203 0.0558,0.0406 0.0101,0.10651 -0.0254,0.0355 -0.0862,0.0355 -0.0203,0 -0.10144,-0.005 -0.0812,-0.005 -0.22823,-0.005 -0.14709,-0.005 -0.31953,-0.005 -0.17244,0 -0.3246,0.005 -0.14708,0 -0.23331,0.005 -0.0811,0.005 -0.10143,0.005 -0.0913,0 -0.0913,-0.0659 z"
         style="font-size:5.07187px;line-height:1.25;font-family:'Fairy Godmother DEMO';-inkscape-font-specification:'Fairy Godmother DEMO';text-align:end;letter-spacing:0px;word-spacing:0px;baseline-shift:sub;text-anchor:end;fill:#ff0000;stroke-width:0.133785"
         id="path14120" />
      <path
         d="m 373.30506,74.22702 q 0,-0.897331 0.49158,-1.740042 0.49159,-0.842711 1.24846,-1.342096 0.76469,-0.507187 1.53717,-0.507187 0.8037,0 1.17043,0.663245 0.54621,-0.624231 0.57742,-0.639836 0.0234,-0.01561 0.0546,-0.01561 0.078,0 0.078,0.09363 0,0.03121 -0.48378,1.966326 -0.039,0.163861 -0.14045,0.163861 -0.11705,0 -0.11705,-0.117044 0,-0.0078 0.0156,-0.140451 0.0156,-0.140452 0.0156,-0.29651 0,-0.600822 -0.2809,-1.014374 -0.2731,-0.421356 -0.8271,-0.421356 -0.56181,0 -1.09241,0.366736 -0.53059,0.366735 -0.87392,0.912937 -0.30431,0.491581 -0.49938,1.178234 -0.18727,0.686654 -0.18727,1.193841 0,0.795894 0.40575,1.170432 0.40575,0.366735 0.92074,0.366735 0.60862,0 1.17043,-0.46037 0.56181,-0.468172 0.8115,-1.209446 0.008,-0.01561 0.0156,-0.05462 0.008,-0.03901 0.0156,-0.05462 0.008,-0.02341 0.0234,-0.04682 0.0234,-0.03121 0.0468,-0.04682 0.0468,-0.03121 0.10924,-0.0078 0.0624,0.02341 0.0624,0.08583 0,0.117043 -0.10144,0.35113 -0.0936,0.234086 -0.29651,0.522793 -0.20287,0.288706 -0.47597,0.554004 -0.2653,0.257495 -0.66325,0.436961 -0.39014,0.171664 -0.8193,0.171664 -0.85052,0 -1.38111,-0.585216 -0.5306,-0.593019 -0.5306,-1.498153 z"
         style="font-size:7.80288px;line-height:1.25;font-family:'CMU Classical Serif';-inkscape-font-specification:'CMU Classical Serif';text-align:end;letter-spacing:0px;word-spacing:0px;text-anchor:end;fill:#00aaff;fill-opacity:1;stroke-width:0.133996;stroke-dasharray:none"
         id="path14123" />
      <path
         d="m 378.18811,75.604619 q 0,-0.08622 0.11158,-0.08622 0.0254,0 0.0761,0 0.0507,-0.0051 0.0761,-0.0051 0.0507,0 0.14709,0.0051 0.10143,0 0.15215,0 l 0.18259,-0.735421 q 0.0152,-0.06086 0.0203,-0.07101 0.005,-0.01522 0.0203,-0.04057 0.0152,-0.03043 0.0355,-0.03043 0.0254,-0.0051 0.0659,-0.0051 h 0.0913 q 0.11158,0 0.11158,0.06593 0,0.08622 -0.19781,0.816571 h 0.4159 q 0.10651,0 0.10651,0.06594 0,0.05579 -0.0406,0.07608 -0.0406,0.01521 -0.14201,0.01521 h -0.0811 q -0.0507,0 -0.15216,0 -0.0964,-0.0051 -0.14708,-0.0051 -0.0101,0.03043 -0.0254,0.101438 -0.0152,0.07101 -0.0254,0.101437 l -0.30431,1.232464 q -0.0558,0.233306 -0.0558,0.329672 0,0.202875 0.14201,0.202875 0.33474,0 0.59341,-0.6492 0.0254,-0.06593 0.0913,-0.06593 0.0659,0 0.0659,0.05579 0,0.13694 -0.22824,0.456468 -0.22823,0.319528 -0.53761,0.319528 -0.19274,0 -0.31446,-0.126797 -0.11665,-0.131869 -0.11665,-0.329671 0,-0.10651 0.0355,-0.223163 l 0.34996,-1.404908 h -0.41082 q -0.11158,0 -0.11158,-0.06593 z"
         style="font-size:5.07187px;line-height:1.25;font-family:'Fairy Godmother DEMO';-inkscape-font-specification:'Fairy Godmother DEMO';text-align:end;letter-spacing:0px;word-spacing:0px;baseline-shift:sub;text-anchor:end;fill:#00aaff;fill-opacity:1;stroke-width:0.133996;stroke-dasharray:none"
         id="path14125" />
      <path
         d="m 379.9937,76.405974 q -0.11159,0 -0.11159,-0.05579 0,-0.05579 0.10651,-0.05579 h 2.06933 q 0.13186,0 0.13186,0.05579 0,0.05579 -0.12172,0.05579 z"
         style="font-size:5.07187px;line-height:1.25;font-family:'Fairy Godmother DEMO';-inkscape-font-specification:'Fairy Godmother DEMO';text-align:end;letter-spacing:0px;word-spacing:0px;baseline-shift:sub;text-anchor:end;fill:#00aaff;fill-opacity:1;stroke-width:0.133996;stroke-dasharray:none"
         id="path14127" />
      <path
         d="m 382.59556,77.633367 q 0,-0.09129 0.1268,-0.09129 h 0.0507 q 0.29924,-0.0051 0.37024,-0.05072 0.071,-0.04565 0.11666,-0.233306 l 0.58833,-2.333061 q -0.31445,0.202875 -0.53761,0.202875 -0.0811,0 -0.0964,-0.04058 -0.0152,-0.04565 0.0152,-0.08622 0.0203,-0.02536 0.10651,-0.0355 0.0862,-0.01521 0.19273,-0.04058 0.10651,-0.02536 0.28909,-0.162299 0.18259,-0.142013 0.37532,-0.385463 0.0406,-0.05072 0.0761,-0.05072 0.0558,0 0.0558,0.06593 0,0.02536 -0.0101,0.06593 l -0.72021,2.870679 q -0.0152,0.06593 -0.0152,0.106509 0,0.106509 0.25866,0.106509 0.0152,0 0.0457,0 0.0304,-0.0051 0.0456,-0.0051 0.10651,0 0.14202,0.02029 0.0558,0.04058 0.0101,0.106509 -0.0254,0.0355 -0.0862,0.0355 -0.0203,0 -0.10144,-0.0051 -0.0811,-0.0051 -0.22823,-0.0051 -0.14709,-0.0051 -0.31953,-0.0051 -0.17244,0 -0.3246,0.0051 -0.14708,0 -0.23331,0.0051 -0.0812,0.0051 -0.10143,0.0051 -0.0913,0 -0.0913,-0.06593 z"
         style="font-size:5.07187px;line-height:1.25;font-family:'Fairy Godmother DEMO';-inkscape-font-specification:'Fairy Godmother DEMO';text-align:end;letter-spacing:0px;word-spacing:0px;baseline-shift:sub;text-anchor:end;fill:#00aaff;fill-opacity:1;stroke-width:0.133996;stroke-dasharray:none"
         id="path14129" />
      <path
         d="m 447.49291,110.81046 q 0,-0.0468 0.0858,-0.40575 l 1.03778,-4.14333 q 0.0468,-0.17947 0.0468,-0.2653 0,-0.12485 -0.14045,-0.13265 -0.13265,-0.0156 -0.2731,-0.0156 -0.14045,-0.008 -0.14045,-0.10925 0,-0.0936 0.10924,-0.12484 0.11704,-0.0312 0.45256,-0.0546 0.19508,-0.0156 0.31992,-0.0234 0.10924,-0.0156 0.15606,-0.0156 0.12485,0 0.12485,0.10144 0,0.0468 -0.10144,0.46037 -0.10144,0.40575 -0.2575,1.01438 -0.15605,0.60082 -0.22628,0.91293 0.47598,-0.52279 1.03778,-0.52279 h 0.008 q 0.32772,0 0.56961,0.18727 0.24969,0.18727 0.24969,0.62423 0,0.39014 -0.31212,1.27187 -0.30431,0.88172 -0.30431,1.05339 0,0.21848 0.17947,0.21848 0.43696,0 0.69445,-0.91294 0.0312,-0.12484 0.0858,-0.16386 0.0546,-0.039 0.11705,-0.0156 0.0624,0.0234 0.0624,0.0936 0,0.0468 -0.0624,0.21848 -0.0546,0.17166 -0.16386,0.39795 -0.10924,0.21848 -0.31992,0.39014 -0.20288,0.17166 -0.44476,0.17166 -0.2575,0 -0.42136,-0.17166 -0.16386,-0.17947 -0.16386,-0.45257 0,-0.15605 0.28871,-0.98316 0.2887,-0.83491 0.2887,-1.24066 0,-0.50718 -0.36673,-0.50718 -0.24969,0 -0.47598,0.14045 -0.22628,0.13265 -0.37454,0.34332 -0.14825,0.20288 -0.22628,0.34333 -0.078,0.13265 -0.11704,0.22628 l -0.47598,1.8961 q -0.0936,0.40575 -0.33552,0.40575 -0.0858,0 -0.14826,-0.0624 -0.0624,-0.0546 -0.0624,-0.14825 z"
         style="font-size:7.80288px;line-height:1.25;font-family:'CMU Classical Serif';-inkscape-font-specification:'CMU Classical Serif';text-align:end;letter-spacing:0px;word-spacing:0px;text-anchor:end;fill:#ff0000;stroke-width:0.133785"
         id="path14156" />
      <path
         d="m 451.36157,110.4012 q 0,-0.0862 0.11159,-0.0862 0.0254,0 0.0761,0 0.0507,-0.005 0.0761,-0.005 0.0507,0 0.14709,0.005 0.10143,0 0.15215,0 l 0.18259,-0.73542 q 0.0152,-0.0609 0.0203,-0.071 0.005,-0.0152 0.0203,-0.0406 0.0152,-0.0304 0.0355,-0.0304 0.0254,-0.005 0.0659,-0.005 h 0.0913 q 0.11158,0 0.11158,0.0659 0,0.0862 -0.19781,0.81657 h 0.4159 q 0.10651,0 0.10651,0.0659 0,0.0558 -0.0406,0.0761 -0.0406,0.0152 -0.14201,0.0152 h -0.0811 q -0.0507,0 -0.15216,0 -0.0964,-0.005 -0.14708,-0.005 -0.0101,0.0304 -0.0254,0.10144 -0.0152,0.071 -0.0254,0.10144 l -0.30431,1.23246 q -0.0558,0.23331 -0.0558,0.32967 0,0.20288 0.14201,0.20288 0.33474,0 0.59341,-0.6492 0.0254,-0.0659 0.0913,-0.0659 0.0659,0 0.0659,0.0558 0,0.13694 -0.22824,0.45647 -0.22823,0.31953 -0.53762,0.31953 -0.19273,0 -0.31445,-0.1268 -0.11666,-0.13187 -0.11666,-0.32967 0,-0.10651 0.0355,-0.22316 l 0.34996,-1.40491 h -0.41082 q -0.11159,0 -0.11159,-0.0659 z"
         style="font-size:5.07187px;line-height:1.25;font-family:'Fairy Godmother DEMO';-inkscape-font-specification:'Fairy Godmother DEMO';text-align:end;letter-spacing:0px;word-spacing:0px;baseline-shift:sub;text-anchor:end;fill:#ff0000;stroke-width:0.133785"
         id="path14158" />
      <path
         d="m 446.35173,74.22702 q 0,-0.897331 0.49158,-1.740042 0.49158,-0.842711 1.24846,-1.342096 0.76469,-0.507187 1.53717,-0.507187 0.8037,0 1.17043,0.663245 0.5462,-0.624231 0.57742,-0.639836 0.0234,-0.01561 0.0546,-0.01561 0.078,0 0.078,0.09363 0,0.03121 -0.48377,1.966326 -0.039,0.163861 -0.14046,0.163861 -0.11704,0 -0.11704,-0.117044 0,-0.0078 0.0156,-0.140451 0.0156,-0.140452 0.0156,-0.29651 0,-0.600822 -0.2809,-1.014374 -0.2731,-0.421356 -0.82711,-0.421356 -0.5618,0 -1.0924,0.366736 -0.5306,0.366735 -0.87392,0.912937 -0.30431,0.491581 -0.49939,1.178234 -0.18727,0.686654 -0.18727,1.193841 0,0.795894 0.40575,1.170432 0.40575,0.366735 0.92074,0.366735 0.60863,0 1.17044,-0.46037 0.5618,-0.468172 0.8115,-1.209446 0.008,-0.01561 0.0156,-0.05462 0.008,-0.03901 0.0156,-0.05462 0.008,-0.02341 0.0234,-0.04682 0.0234,-0.03121 0.0468,-0.04682 0.0468,-0.03121 0.10924,-0.0078 0.0624,0.02341 0.0624,0.08583 0,0.117043 -0.10144,0.35113 -0.0936,0.234086 -0.29651,0.522793 -0.20288,0.288706 -0.47598,0.554004 -0.26529,0.257495 -0.66324,0.436961 -0.39015,0.171664 -0.8193,0.171664 -0.85052,0 -1.38111,-0.585216 -0.5306,-0.593019 -0.5306,-1.498153 z"
         style="font-size:7.80288px;line-height:1.25;font-family:'CMU Classical Serif';-inkscape-font-specification:'CMU Classical Serif';text-align:end;letter-spacing:0px;word-spacing:0px;text-anchor:end;fill:#00aaff;fill-opacity:1;stroke-width:0.133996;stroke-dasharray:none"
         id="path14151" />
      <path
         d="m 451.23477,75.604619 q 0,-0.08622 0.11158,-0.08622 0.0254,0 0.0761,0 0.0507,-0.0051 0.0761,-0.0051 0.0507,0 0.14709,0.0051 0.10143,0 0.15215,0 l 0.18259,-0.735421 q 0.0152,-0.06086 0.0203,-0.07101 0.005,-0.01522 0.0203,-0.04057 0.0152,-0.03043 0.0355,-0.03043 0.0254,-0.0051 0.0659,-0.0051 h 0.0913 q 0.11159,0 0.11159,0.06593 0,0.08622 -0.19781,0.816571 h 0.4159 q 0.10651,0 0.10651,0.06594 0,0.05579 -0.0406,0.07608 -0.0406,0.01521 -0.14201,0.01521 h -0.0811 q -0.0507,0 -0.15216,0 -0.0964,-0.0051 -0.14708,-0.0051 -0.0102,0.03043 -0.0254,0.101438 -0.0152,0.07101 -0.0254,0.101437 l -0.30431,1.232464 q -0.0558,0.233306 -0.0558,0.329672 0,0.202875 0.14201,0.202875 0.33474,0 0.59341,-0.6492 0.0254,-0.06593 0.0913,-0.06593 0.0659,0 0.0659,0.05579 0,0.13694 -0.22824,0.456468 -0.22823,0.319528 -0.53762,0.319528 -0.19273,0 -0.31445,-0.126797 -0.11666,-0.131869 -0.11666,-0.329671 0,-0.10651 0.0355,-0.223163 l 0.34996,-1.404908 h -0.41083 q -0.11158,0 -0.11158,-0.06593 z"
         style="font-size:5.07187px;line-height:1.25;font-family:'Fairy Godmother DEMO';-inkscape-font-specification:'Fairy Godmother DEMO';text-align:end;letter-spacing:0px;word-spacing:0px;baseline-shift:sub;text-anchor:end;fill:#00aaff;fill-opacity:1;stroke-width:0.133996;stroke-dasharray:none"
         id="path14153" />
      <text
         xml:space="preserve"
         style="font-size:2.85409px;line-height:1.25;font-family:'Fairy Godmother DEMO';-inkscape-font-specification:'Fairy Godmother DEMO';text-align:end;letter-spacing:0px;word-spacing:0px;text-anchor:end;stroke-width:0.133786;fill:#ff0000;fill-opacity:1"
         x="100.6118"
         y="-431.56668"
         id="text8590"
         transform="matrix(0,1.0051746,-0.99485203,0,0,0)"><tspan
           sodipodi:role="line"
           style="font-style:normal;font-variant:normal;font-weight:normal;font-stretch:normal;font-size:2.85409px;font-family:'CMU Sans Serif';-inkscape-font-specification:'CMU Sans Serif';fill:#ff0000;stroke-width:0.133786;fill-opacity:1"
           x="100.6118"
           y="-431.56668"
           id="tspan8588">predict</tspan></text>
      <ellipse
         style="fill:none;fill-opacity:0.2;stroke:#ffffff;stroke-width:0.133786;stroke-linejoin:round;stroke-dasharray:none;stroke-opacity:1;stop-color:#000000"
         id="ellipse3920"
         cx="427.99686"
         cy="89.441048"
         rx="1.98982"
         ry="1.9899993" />
      <text
         xml:space="preserve"
         style="font-size:3.84929px;line-height:1.25;font-family:'Fairy Godmother DEMO';-inkscape-font-specification:'Fairy Godmother DEMO';text-align:end;letter-spacing:0px;word-spacing:0px;text-anchor:end;stroke-width:0.133785"
         x="428.64075"
         y="90.582901"
         id="text3924"
         transform="scale(1.0020072,0.99799686)"><tspan
           sodipodi:role="line"
           style="font-style:normal;font-variant:normal;font-weight:normal;font-stretch:normal;font-size:3.84929px;font-family:'CMU Sans Serif';-inkscape-font-specification:'CMU Sans Serif';fill:#ffffff;stroke-width:0.133785"
           x="428.64075"
           y="90.582901"
           id="tspan3922">×</tspan></text>
    </g>
  </g>
</svg>
