<?xml version="1.0" encoding="UTF-8" standalone="no"?>
<!-- Created with Inkscape (http://www.inkscape.org/) -->

<svg
   width="104.52801mm"
   height="99.586372mm"
   viewBox="0 0 104.52801 99.586372"
   version="1.1"
   id="svg1"
   inkscape:version="1.4.3 (0d15f75042, 2025-12-25)"
   sodipodi:docname="man_telescope.svg"
   xmlns:inkscape="http://www.inkscape.org/namespaces/inkscape"
   xmlns:sodipodi="http://sodipodi.sourceforge.net/DTD/sodipodi-0.dtd"
   xmlns="http://www.w3.org/2000/svg"
   xmlns:svg="http://www.w3.org/2000/svg">
  <sodipodi:namedview
     id="namedview1"
     pagecolor="#505050"
     bordercolor="#eeeeee"
     borderopacity="1"
     inkscape:showpageshadow="0"
     inkscape:pageopacity="0"
     inkscape:pagecheckerboard="0"
     inkscape:deskcolor="#505050"
     inkscape:document-units="mm"
     inkscape:zoom="0.87481762"
     inkscape:cx="618.41461"
     inkscape:cy="-129.16978"
     inkscape:window-width="1920"
     inkscape:window-height="1204"
     inkscape:window-x="0"
     inkscape:window-y="0"
     inkscape:window-maximized="1"
     inkscape:current-layer="layer1" />
  <defs
     id="defs1" />
  <g
     inkscape:label="Layer 1"
     inkscape:groupmode="layer"
     id="layer1"
     transform="translate(58.737498,-182.56254)">
    <path
       id="path93"
       d="m -32.759761,184.2947 c 0,0.26458 -0.0124,0.40927 -0.05374,0.60771 0.260449,0.11576 0.471289,0.16123 0.731738,0.16123 0.628385,0 1.033528,-0.32659 1.033528,-0.83096 0,-0.31419 -0.181901,-0.52916 -0.529166,-0.62011 l -0.401009,-0.10336 c -0.26045,-0.0661 -0.372071,-0.17776 -0.372071,-0.35553 0,-0.24391 0.194304,-0.40928 0.471289,-0.40928 0.186036,0 0.343132,0.062 0.475424,0.19017 l 0.02067,0.28939 h 0.144694 c 0,-0.22738 0.02067,-0.39687 0.04961,-0.50023 l -0.01654,-0.0413 c -0.235644,-0.0827 -0.417545,-0.11989 -0.649056,-0.11989 -0.58291,0 -0.93431,0.28112 -0.93431,0.75241 0,0.30179 0.186036,0.52503 0.516765,0.62425 l 0.491959,0.1447 c 0.194304,0.062 0.289388,0.1695 0.289388,0.33899 0,0.26045 -0.223242,0.45476 -0.525032,0.45476 -0.239779,0 -0.467155,-0.10749 -0.578776,-0.27285 l -0.0248,-0.31006 z m 0,0"
       style="fill:#4ea24e;fill-opacity:1;fill-rule:nonzero;stroke:none;stroke-width:0.352778"
       aria-label="S" />
    <path
       id="path94"
       d="m -58.315822,194.64342 h -0.07441 c -0.03307,0 -0.148828,-0.004 -0.347266,-0.0124 v 0.13229 l 0.128158,0.008 c 0.157096,0.0165 0.169499,0.0372 0.169499,0.34314 v 1.43453 c 0,0.31006 -0.0124,0.33073 -0.169499,0.34727 l -0.128158,0.008 v 0.13229 c 0.334864,-0.0124 0.334864,-0.0124 0.405144,-0.0124 0.07028,0 0.23151,0.004 0.396875,0.0124 v -0.13229 l -0.128158,-0.008 c -0.157096,-0.0165 -0.169499,-0.0331 -0.169499,-0.34727 v -1.38079 l 1.14515,1.37666 c 0.09508,0.11576 0.181901,0.21084 0.429948,0.49196 l 0.289388,0.0455 0.0248,-0.0165 c -0.0083,-0.1943 -0.0124,-0.27285 -0.0124,-0.35554 v -1.59576 c 0,-0.30593 0.0124,-0.3266 0.169499,-0.34314 l 0.128157,-0.008 v -0.13229 l -0.401009,0.0124 c -0.03721,0 -0.09508,0 -0.401009,-0.0124 v 0.13229 l 0.128158,0.008 c 0.157096,0.0165 0.169498,0.0372 0.169498,0.34314 v 1.26504 l -1.09554,-1.28158 c -0.07441,-0.0827 -0.136425,-0.1695 -0.363802,-0.46715 z m 3.64939,1.2361 c 0.04134,0.008 0.04548,0.008 0.05374,0.008 0.08682,0.0124 0.103353,0.0165 0.152962,0.0165 0.450619,0 0.789616,-0.32246 0.789616,-0.74414 0,-0.3514 -0.223242,-0.52917 -0.665592,-0.52917 h -0.04134 c -0.384472,0.008 -0.595312,0.0124 -0.636653,0.0124 -0.07441,0 -0.07441,0 -0.607715,-0.0124 v 0.1323 l 0.132292,0.008 c 0.157096,0.0165 0.165364,0.0372 0.165364,0.34314 v 1.43453 c 0,0.3142 0,0.32246 -0.165364,0.33487 l -0.132292,0.0124 v 0.14056 c 0.425814,-0.0124 0.425814,-0.0124 0.549837,-0.0124 0.107487,0 0.107487,0 0.578776,0.0124 v -0.14056 l -0.165364,-0.0124 c -0.161231,-0.0124 -0.169499,-0.0248 -0.169499,-0.33487 v -1.71152 c 0.05374,-0.0207 0.115755,-0.0289 0.21084,-0.0289 0.293522,0 0.44235,0.1571 0.44235,0.47129 0,0.28112 -0.14056,0.46302 -0.363802,0.46302 -0.02894,0 -0.03307,0 -0.124023,-0.0207 -0.0041,0 -0.0124,0 -0.02894,0 l -0.03307,0.0331 z m 0,0"
       style="fill:#14a3e6;fill-opacity:1;fill-rule:nonzero;stroke:none;stroke-width:0.352778"
       aria-label="NP" />
    <path
       id="path95"
       d="m -56.067896,279.16022 c 0,-0.27699 0.01654,-0.30593 0.177766,-0.31419 l 0.169499,-0.0124 v -0.10335 c -0.256315,0.008 -0.334863,0.008 -0.516764,0.008 -0.177767,0 -0.260449,-0.004 -0.51263,-0.008 v 0.10335 l 0.169498,0.0124 c 0.161231,0.008 0.177767,0.0372 0.177767,0.31419 v 1.57923 c 0,0.27699 -0.01654,0.30592 -0.177767,0.31419 l -0.169498,0.0124 v 0.10749 c 0.206705,-0.008 0.330729,-0.0124 0.51263,-0.0124 0.181901,0 0.310058,0.004 0.516764,0.0124 v -0.10749 l -0.169499,-0.0124 c -0.16123,-0.008 -0.177766,-0.0372 -0.177766,-0.31419 z m 0,0"
       style="fill:#ffffff;fill-opacity:1;fill-rule:nonzero;stroke:none;stroke-width:0.352778"
       aria-label="I" />
    <path
       id="path96"
       d="m -8.9741324,194.76331 v -0.13229 c -0.1488281,0.004 -0.2852539,0.004 -0.3224609,0.008 -0.1198893,0.004 -0.2025716,0.004 -0.2480469,0.004 -0.049609,0 -0.049609,0 -0.5539718,-0.0124 v 0.13229 l 0.1446945,0.008 c 0.086816,0.0124 0.1405599,0.0744 0.219108,0.25219 l 0.8392253,2.01331 h 0.2645833 c 0.037207,-0.0951 0.049609,-0.13229 0.066146,-0.17363 0.020671,-0.0538 0.033073,-0.0909 0.041341,-0.10336 0.00413,-0.0124 0.012402,-0.0413 0.028939,-0.0744 l 0.7276041,-1.74873 c 0.045475,-0.11162 0.095085,-0.1571 0.1653646,-0.16537 l 0.1157552,-0.008 v -0.13229 c -0.3762044,0.0124 -0.3762044,0.0124 -0.4092773,0.0124 -0.037207,0 -0.099219,0 -0.1984375,-0.004 -0.024805,-0.004 -0.1157552,-0.004 -0.2067057,-0.008 v 0.13229 l 0.1612304,0.008 c 0.082682,0.008 0.1322917,0.0372 0.1322917,0.091 0,0.0537 -0.037207,0.16123 -0.1116211,0.34726 l -0.4960937,1.24024 -0.5539713,-1.36013 c -0.07028,-0.17777 -0.074414,-0.18603 -0.074414,-0.25218 0,-0.0289 0.045475,-0.062 0.095085,-0.0661 z m 2.8070638,1.11621 c 0.041341,0.008 0.045475,0.008 0.053743,0.008 0.086817,0.0124 0.103353,0.0165 0.1529623,0.0165 0.4506186,0 0.7896158,-0.32246 0.7896158,-0.74414 0,-0.3514 -0.223242,-0.52917 -0.6655921,-0.52917 h -0.041341 c -0.3844727,0.008 -0.5953124,0.0124 -0.6366534,0.0124 -0.074414,0 -0.074414,0 -0.607715,-0.0124 v 0.1323 l 0.1322917,0.008 c 0.1570963,0.0165 0.1653646,0.0372 0.1653646,0.34314 v 1.43453 c 0,0.3142 0,0.32246 -0.1653646,0.33487 l -0.1322917,0.0124 v 0.14056 c 0.4258138,-0.0124 0.4258138,-0.0124 0.5498372,-0.0124 0.1074872,0 0.1074872,0 0.578776,0.0124 v -0.14056 l -0.1653645,-0.0124 c -0.1612304,-0.0124 -0.1694988,-0.0248 -0.1694988,-0.33487 v -1.71152 c 0.053744,-0.0207 0.1157552,-0.0289 0.2108401,-0.0289 0.293522,0 0.4423501,0.1571 0.4423501,0.47129 0,0.28112 -0.14056,0.46302 -0.363802,0.46302 -0.028938,0 -0.033073,0 -0.1240236,-0.0207 -0.00413,0 -0.012404,0 -0.028938,0 l -0.033073,0.0331 z m 0,0"
       style="fill:#f68d6d;fill-opacity:1;fill-rule:nonzero;stroke:none;stroke-width:0.352778"
       aria-label="VP" />
    <path
       id="path97"
       d="m -39.134564,206.78324 v -0.13229 c -0.148828,0.004 -0.285254,0.004 -0.322461,0.008 -0.119889,0.004 -0.202571,0.004 -0.248047,0.004 -0.04961,0 -0.04961,0 -0.553971,-0.0124 v 0.13229 l 0.144694,0.008 c 0.08682,0.0124 0.14056,0.0744 0.219108,0.25218 l 0.839225,2.01332 h 0.264584 c 0.03721,-0.0951 0.04961,-0.1323 0.06615,-0.17364 0.02067,-0.0537 0.03307,-0.091 0.04134,-0.10335 0.0041,-0.0124 0.0124,-0.0413 0.02894,-0.0744 l 0.727605,-1.74873 c 0.04548,-0.11163 0.09508,-0.1571 0.165364,-0.16537 l 0.115755,-0.008 v -0.13229 c -0.376204,0.0124 -0.376204,0.0124 -0.409277,0.0124 -0.03721,0 -0.09922,0 -0.198438,-0.004 -0.0248,-0.004 -0.115755,-0.004 -0.206705,-0.008 v 0.13229 l 0.16123,0.008 c 0.08268,0.008 0.132292,0.0372 0.132292,0.091 0,0.0537 -0.03721,0.16123 -0.111621,0.34727 l -0.496094,1.24023 -0.553971,-1.36012 c -0.07028,-0.17777 -0.07441,-0.18604 -0.07441,-0.25218 0,-0.0289 0.04548,-0.062 0.09508,-0.0662 z m 2.807064,1.11621 c 0.04134,0.008 0.04548,0.008 0.05374,0.008 0.08682,0.0124 0.103353,0.0165 0.152962,0.0165 0.450619,0 0.789617,-0.32246 0.789617,-0.74414 0,-0.3514 -0.223243,-0.52917 -0.665593,-0.52917 h -0.04134 c -0.384473,0.008 -0.595313,0.0124 -0.636654,0.0124 -0.07441,0 -0.07441,0 -0.607715,-0.0124 v 0.13229 l 0.132292,0.008 c 0.157096,0.0165 0.165365,0.0372 0.165365,0.34313 v 1.43454 c 0,0.31419 0,0.32246 -0.165365,0.33486 l -0.132292,0.0124 v 0.14056 c 0.425814,-0.0124 0.425814,-0.0124 0.549838,-0.0124 0.107487,0 0.107487,0 0.578776,0.0124 v -0.14056 l -0.165365,-0.0124 c -0.16123,-0.0124 -0.169498,-0.0248 -0.169498,-0.33486 v -1.71152 c 0.05374,-0.0207 0.115755,-0.0289 0.210839,-0.0289 0.293522,0 0.44235,0.15709 0.44235,0.47129 0,0.28112 -0.140559,0.46302 -0.363802,0.46302 -0.02894,0 -0.03307,0 -0.124023,-0.0207 -0.0041,0 -0.0124,0 -0.02894,0 l -0.03307,0.0331 z m 0,0"
       style="fill:#f68d6d;fill-opacity:1;fill-rule:nonzero;stroke:none;stroke-width:0.352778"
       aria-label="VP" />
    <path
       id="path98"
       d="m -47.964,218.80318 v -0.13229 c -0.148828,0.004 -0.285254,0.004 -0.322461,0.008 -0.119889,0.004 -0.202572,0.004 -0.248047,0.004 -0.04961,0 -0.04961,0 -0.553971,-0.0124 v 0.13229 l 0.144694,0.008 c 0.08682,0.0124 0.14056,0.0744 0.219108,0.25219 l 0.839225,2.01331 h 0.264583 c 0.03721,-0.0951 0.04961,-0.13229 0.06615,-0.17363 0.02067,-0.0538 0.03307,-0.0909 0.04134,-0.10336 0.0041,-0.0124 0.0124,-0.0413 0.02894,-0.0744 l 0.727604,-1.74873 c 0.04547,-0.11162 0.09508,-0.1571 0.165365,-0.16537 l 0.115755,-0.008 v -0.13229 c -0.376205,0.0124 -0.376205,0.0124 -0.409278,0.0124 -0.03721,0 -0.09922,0 -0.198437,-0.004 -0.02481,-0.004 -0.115755,-0.004 -0.206706,-0.008 v 0.13229 l 0.161231,0.008 c 0.08268,0.008 0.132291,0.0372 0.132291,0.091 0,0.0537 -0.03721,0.16123 -0.111621,0.34726 l -0.496093,1.24024 -0.553972,-1.36013 c -0.07028,-0.17776 -0.07441,-0.18603 -0.07441,-0.25218 0,-0.0289 0.04548,-0.062 0.09508,-0.0661 z m 0,0"
       style="fill:#b5251c;fill-opacity:1;fill-rule:nonzero;stroke:none;stroke-width:0.352778"
       aria-label="V" />
    <path
       id="path99"
       d="m -50.672878,280.65677 c 0,0.24391 -0.0124,0.3514 -0.03721,0.49196 0.181901,0.0579 0.318327,0.0827 0.479558,0.0827 0.458886,0 0.785481,-0.24805 0.785481,-0.59118 0,-0.10749 -0.02894,-0.19017 -0.09508,-0.26045 -0.09509,-0.0868 -0.21084,-0.12816 -0.516765,-0.19017 -0.289388,-0.0537 -0.384472,-0.12402 -0.384472,-0.28525 0,-0.17777 0.124023,-0.27699 0.338997,-0.27699 0.235645,0 0.413412,0.12403 0.413412,0.28939 v 0.0827 h 0.09922 c 0.0041,-0.2067 0.0041,-0.28938 0.01654,-0.39687 -0.186035,-0.0661 -0.314193,-0.091 -0.458887,-0.091 -0.405143,0 -0.657324,0.1943 -0.657324,0.51263 0,0.16536 0.07855,0.28525 0.239779,0.35967 0.09508,0.0413 0.281119,0.0992 0.520898,0.15296 0.157096,0.0331 0.223242,0.10749 0.223242,0.23978 0,0.19017 -0.173633,0.32659 -0.42168,0.32659 -0.256315,0 -0.44235,-0.12402 -0.44235,-0.30179 v -0.14469 z m 2.482536,0.21497 -0.01654,0.30179 c 0.227376,-0.0124 0.227376,-0.0124 0.272851,-0.0124 0.02067,0 0.107487,0.004 0.260449,0.0124 v -0.10749 l -0.136425,-0.008 c -0.08268,-0.004 -0.09922,-0.0289 -0.09922,-0.20258 v -0.64492 c 0,-0.51263 -0.144694,-0.69866 -0.553972,-0.69866 -0.148828,0 -0.289388,0.0413 -0.425813,0.11989 l -0.186035,0.11162 v 0.23151 l 0.09095,0.0248 0.04547,-0.11162 c 0.07441,-0.16536 0.111621,-0.19017 0.272852,-0.19017 0.330729,0 0.467155,0.13229 0.475423,0.45062 l -0.347266,0.062 c -0.475423,0.0909 -0.677994,0.25632 -0.677994,0.56224 0,0.27285 0.165364,0.42995 0.44235,0.42995 0.06615,0 0.124023,-0.008 0.148828,-0.0289 z m 0,-0.14469 c -0.09922,0.14056 -0.322461,0.27698 -0.458887,0.27698 -0.14056,0 -0.264583,-0.13229 -0.264583,-0.28112 0,-0.13229 0.07028,-0.25218 0.177767,-0.32246 0.08682,-0.0496 0.28112,-0.0992 0.545703,-0.14056 z m 1.945101,-1.21543 c -0.289388,0.67386 -0.338998,0.79375 -0.558106,1.28571 l -0.293522,-0.97152 c -0.0124,-0.0331 -0.01653,-0.0579 -0.01653,-0.0868 0,-0.0537 0.04547,-0.0827 0.132291,-0.0868 l 0.14056,-0.004 v -0.0992 c -0.347265,0.008 -0.347265,0.008 -0.417545,0.008 -0.07028,0 -0.07028,0 -0.417546,-0.008 v 0.0992 l 0.09922,0.004 c 0.09922,0.008 0.144694,0.0786 0.23151,0.3514 l 0.359668,1.18235 h 0.165365 l 0.343131,-0.81028 c 0.01654,-0.0413 0.05788,-0.12403 0.111621,-0.24392 l 0.07028,-0.14882 0.479558,1.20302 h 0.16123 c 0.0248,-0.0744 0.05374,-0.15296 0.07855,-0.23151 0.07028,-0.2067 0.148828,-0.42581 0.165365,-0.44648 l 0.235644,-0.54984 c 0.107487,-0.23564 0.148828,-0.29352 0.227376,-0.30592 l 0.09095,-0.004 v -0.0992 c -0.289388,0.008 -0.289388,0.008 -0.343132,0.008 -0.05788,0 -0.05788,0 -0.347265,-0.008 v 0.0992 l 0.119889,0.004 c 0.08682,0.004 0.136426,0.0455 0.136426,0.11162 0,0.0372 -0.0041,0.0786 -0.0248,0.12402 l -0.173632,0.49196 c -0.02894,0.0786 -0.05788,0.14883 -0.169499,0.43822 l -0.405146,-1.02113 c -0.04961,-0.11989 -0.07441,-0.19017 -0.09922,-0.28525 z m 0,0"
       style="fill:#ffffff;fill-opacity:1;fill-rule:nonzero;stroke:none;stroke-width:0.352778"
       aria-label="saw" />
    <path
       id="path100"
       d="m -29.888618,218.68329 h -0.07441 c -0.03307,0 -0.148828,-0.004 -0.347265,-0.0124 v 0.13229 l 0.128157,0.008 c 0.157097,0.0165 0.169499,0.0372 0.169499,0.34313 v 1.43453 c 0,0.31006 -0.0124,0.33073 -0.169499,0.34727 l -0.128157,0.008 v 0.13229 c 0.334863,-0.0124 0.334863,-0.0124 0.405143,-0.0124 0.07028,0 0.23151,0.004 0.396875,0.0124 v -0.13229 l -0.128158,-0.008 c -0.157096,-0.0165 -0.169498,-0.0331 -0.169498,-0.34727 v -1.38079 l 1.145149,1.37666 c 0.09509,0.11576 0.181901,0.21084 0.429948,0.49196 l 0.289388,0.0455 0.02481,-0.0165 c -0.0083,-0.1943 -0.0124,-0.27285 -0.0124,-0.35554 v -1.59576 c 0,-0.30593 0.0124,-0.3266 0.169498,-0.34313 l 0.128158,-0.008 v -0.13229 l -0.401009,0.0124 c -0.03721,0 -0.09509,0 -0.401009,-0.0124 v 0.13229 l 0.128157,0.008 c 0.157096,0.0165 0.169499,0.0372 0.169499,0.34313 v 1.26504 l -1.09554,-1.28158 c -0.07441,-0.0827 -0.136426,-0.1695 -0.363802,-0.46715 z m 3.64939,1.2361 c 0.04134,0.008 0.04547,0.008 0.05374,0.008 0.08682,0.0124 0.103353,0.0165 0.152963,0.0165 0.450618,0 0.789615,-0.32246 0.789615,-0.74414 0,-0.3514 -0.223242,-0.52916 -0.665592,-0.52916 h -0.04134 c -0.384473,0.008 -0.595313,0.0124 -0.636654,0.0124 -0.07441,0 -0.07441,0 -0.607715,-0.0124 v 0.13229 l 0.132292,0.008 c 0.157096,0.0165 0.165365,0.0372 0.165365,0.34314 v 1.43453 c 0,0.3142 0,0.32246 -0.165365,0.33487 l -0.132292,0.0124 v 0.14056 c 0.425814,-0.0124 0.425814,-0.0124 0.549838,-0.0124 0.107487,0 0.107487,0 0.578776,0.0124 v -0.14056 l -0.165365,-0.0124 c -0.16123,-0.0124 -0.169499,-0.0248 -0.169499,-0.33487 v -1.71152 c 0.05374,-0.0207 0.115755,-0.0289 0.21084,-0.0289 0.293522,0 0.442351,0.1571 0.442351,0.47129 0,0.28112 -0.140561,0.46302 -0.363803,0.46302 -0.02894,0 -0.03307,0 -0.124023,-0.0207 -0.0041,0 -0.0124,0 -0.02894,0 l -0.03307,0.0331 z m 0,0"
       style="fill:#14a3e6;fill-opacity:1;fill-rule:nonzero;stroke:none;stroke-width:0.352778"
       aria-label="NP" />
    <path
       id="path101"
       d="m -40.365498,233.01316 v 0.0827 c 0.475424,-0.0124 0.475424,-0.0124 0.545704,-0.0124 0.06201,0 0.25218,0.004 0.338997,0.008 l 0.206706,0.004 c 0.417545,0 0.802018,-0.14883 1.066601,-0.40927 0.239779,-0.23565 0.363802,-0.54984 0.363802,-0.92605 0,-0.33073 -0.09508,-0.60771 -0.268717,-0.77721 -0.206706,-0.20671 -0.487826,-0.28939 -0.959115,-0.29352 -0.549837,0.008 -0.830957,0.0124 -0.843359,0.0124 -0.04548,0 -0.04548,0 -0.566374,-0.0124 v 0.13229 l 0.128158,0.008 c 0.157096,0.0165 0.169498,0.0372 0.169498,0.34313 v 1.5751 c 0,0.11575 -0.01654,0.17363 -0.07028,0.20257 z m 0.677995,-2.1332 c 0.08268,-0.0124 0.14056,-0.0124 0.219108,-0.0124 0.413412,0 0.694531,0.0827 0.868164,0.25218 0.157097,0.15296 0.231511,0.39274 0.231511,0.74 0,0.35554 -0.09095,0.62425 -0.256315,0.78962 -0.177767,0.17363 -0.425814,0.25218 -0.822689,0.25218 -0.09095,0 -0.152962,-0.004 -0.239779,-0.0165 z m 3.806486,1.16582 c 0,-0.37621 -0.264583,-0.61599 -0.665592,-0.61599 -0.124024,0 -0.214974,0.0248 -0.310059,0.0786 l -0.165365,0.0992 c -0.23151,0.13643 -0.330729,0.34727 -0.330729,0.68213 0,0.55811 0.28112,0.85163 0.802018,0.85163 0.202572,0 0.330729,-0.0331 0.558106,-0.14883 l 0.07441,-0.1695 -0.04134,-0.0537 c -0.165365,0.0909 -0.268718,0.12402 -0.409278,0.12402 -0.181901,0 -0.355533,-0.0992 -0.44235,-0.24805 -0.05788,-0.0992 -0.07855,-0.1819 -0.08682,-0.34726 h 0.463021 c 0.198437,0 0.355534,-0.0207 0.553971,-0.0703 z m -0.740006,0.0785 h -0.01653 c -0.02067,0 -0.115755,-0.004 -0.169499,-0.008 l -0.111621,-0.004 c 0.0124,-0.34726 0.09508,-0.48782 0.297656,-0.48782 0.202572,0 0.285254,0.14056 0.293522,0.48782 z m 2.189013,0.74827 -0.0248,-0.0661 c -0.07028,0.0331 -0.107486,0.0455 -0.16123,0.0455 -0.165365,0 -0.219108,-0.0579 -0.219108,-0.22738 v -0.83922 h 0.37207 l 0.02894,-0.22738 -0.40101,0.0207 v -0.20257 c 0,-0.18603 0.0083,-0.30179 0.04134,-0.47956 l -0.04961,-0.0331 c -0.14056,0.0662 -0.248046,0.10749 -0.429947,0.17363 0.0124,0.18191 0.01653,0.25218 0.01653,0.32246 v 0.21084 l -0.23151,0.15297 v 0.0786 l 0.223242,-0.0165 v 0.9095 c 0,0.3142 0.132291,0.44649 0.438216,0.44649 0.107487,0 0.194303,-0.0207 0.227376,-0.062 z m 0,0"
       style="fill:#cccc00;fill-opacity:1;fill-rule:nonzero;stroke:none;stroke-width:0.352778"
       aria-label="Det" />
    <path
       id="path102"
       d="m -39.596551,279.81754 v 1.01286 c 0,0.26045 0.115755,0.37207 0.388607,0.37207 0.07855,0 0.165365,-0.0165 0.186035,-0.0413 l 0.169499,-0.18604 -0.04548,-0.062 c -0.09095,0.0496 -0.14056,0.0703 -0.21084,0.0703 -0.136426,0 -0.190169,-0.0703 -0.190169,-0.24391 v -0.92191 h 0.450618 l 0.02894,-0.19017 -0.479558,0.0207 v -0.13229 c 0,-0.14883 0.0083,-0.27285 0.03721,-0.50023 l -0.04134,-0.0372 c -0.08682,0.0537 -0.190169,0.0992 -0.297656,0.13229 0.0083,0.10749 0.0124,0.17363 0.0124,0.28112 v 0.24391 l -0.272852,0.12402 v 0.0744 z m 0.827857,-0.97978 h 0.198437 c 0.06201,0 0.08682,0.0372 0.08682,0.14469 v 1.81901 c 0,0.22324 -0.0124,0.24805 -0.132292,0.25218 l -0.157096,0.0124 v 0.10749 c 0.239778,-0.008 0.334863,-0.0124 0.438216,-0.0124 0.09922,0 0.194303,0.004 0.434082,0.0124 v -0.10749 l -0.157097,-0.0124 c -0.119889,-0.004 -0.132291,-0.0289 -0.132291,-0.25218 v -0.74414 c 0,-0.1571 0.23151,-0.33073 0.446484,-0.33073 0.235645,0 0.392741,0.17777 0.392741,0.44649 v 1.00045 c 0.21084,-0.0124 0.214974,-0.0124 0.276986,-0.0124 0.04961,0 0.04961,0 0.289388,0.0124 v -0.10749 l -0.144694,-0.0124 c -0.11989,-0.004 -0.128158,-0.0248 -0.128158,-0.25218 v -0.67799 c 0,-0.40928 -0.194303,-0.61185 -0.587044,-0.61185 -0.128158,0 -0.202572,0.0248 -0.276986,0.091 l -0.268717,0.23151 v -1.19476 l -0.02894,-0.0289 c -0.157096,0.0579 -0.272852,0.0868 -0.549837,0.12816 z m 3.554304,2.07532 -0.04547,-0.0331 c -0.223242,0.13229 -0.305924,0.16536 -0.454752,0.16536 -0.227377,0 -0.417546,-0.10335 -0.516765,-0.27285 -0.06614,-0.11575 -0.09095,-0.21497 -0.09922,-0.42168 h 0.51263 c 0.243913,0 0.392741,-0.008 0.636653,-0.0455 0.0041,-0.0496 0.0083,-0.0827 0.0083,-0.12403 0,-0.40514 -0.260449,-0.66972 -0.65319,-0.66972 -0.132292,0 -0.28112,0.0455 -0.425814,0.13229 -0.289388,0.16536 -0.405143,0.38034 -0.405143,0.74827 0,0.21911 0.05374,0.40928 0.148828,0.54571 0.14056,0.18603 0.376205,0.29352 0.640788,0.29352 0.128158,0 0.256315,-0.0289 0.401009,-0.0909 0.09508,-0.0372 0.169499,-0.0868 0.181901,-0.10749 z m -0.272851,-0.69039 c -0.181901,0.008 -0.264583,0.0124 -0.392741,0.0124 -0.16123,0 -0.252181,-0.004 -0.44235,-0.0248 0,-0.16123 0.0124,-0.23978 0.05788,-0.33073 0.07441,-0.15709 0.227376,-0.25218 0.396874,-0.25218 0.115756,0 0.206706,0.0455 0.268718,0.14056 0.07855,0.11576 0.103353,0.21911 0.111621,0.45476 z m 0,0"
       style="fill:#ffffff;fill-opacity:1;fill-rule:nonzero;stroke:none;stroke-width:0.352778"
       aria-label="the" />
    <path
       id="path103"
       d="m -19.033465,230.70219 h -0.07442 c -0.03307,0 -0.148828,-0.004 -0.347265,-0.0124 v 0.13229 l 0.128157,0.008 c 0.157097,0.0165 0.169499,0.0372 0.169499,0.34313 v 1.43454 c 0,0.31006 -0.0124,0.33073 -0.169499,0.34726 l -0.128157,0.008 v 0.13229 c 0.334863,-0.0124 0.334863,-0.0124 0.405143,-0.0124 0.07028,0 0.23151,0.004 0.396875,0.0124 v -0.13229 l -0.128157,-0.008 c -0.157097,-0.0165 -0.169499,-0.0331 -0.169499,-0.34726 v -1.3808 l 1.145149,1.37666 c 0.09509,0.11576 0.181902,0.21084 0.429948,0.49196 l 0.289388,0.0455 0.02481,-0.0165 c -0.0083,-0.1943 -0.0124,-0.27285 -0.0124,-0.35553 v -1.59577 c 0,-0.30592 0.0124,-0.3266 0.169498,-0.34313 l 0.128158,-0.008 v -0.13229 l -0.401009,0.0124 c -0.03721,0 -0.09509,0 -0.401009,-0.0124 v 0.13229 l 0.128157,0.008 c 0.157097,0.0165 0.169499,0.0372 0.169499,0.34313 v 1.26504 l -1.09554,-1.28158 c -0.07441,-0.0827 -0.136426,-0.1695 -0.363802,-0.46715 z m 0,0"
       style="fill:#47478d;fill-opacity:1;fill-rule:nonzero;stroke:none;stroke-width:0.352778"
       aria-label="N" />
    <path
       id="path104"
       d="m -27.703737,242.72214 h -0.07441 c -0.03307,0 -0.148828,-0.004 -0.347265,-0.0124 v 0.1323 l 0.128157,0.008 c 0.157097,0.0165 0.169499,0.0372 0.169499,0.34314 v 1.43453 c 0,0.31006 -0.0124,0.33073 -0.169499,0.34727 l -0.128157,0.008 v 0.13229 c 0.334863,-0.0124 0.334863,-0.0124 0.405143,-0.0124 0.07028,0 0.23151,0.004 0.396875,0.0124 v -0.13229 l -0.128158,-0.008 c -0.157096,-0.0165 -0.169498,-0.0331 -0.169498,-0.34727 v -1.38079 l 1.145149,1.37666 c 0.09509,0.11575 0.181901,0.21084 0.429948,0.49196 l 0.289388,0.0455 0.02481,-0.0165 c -0.0083,-0.19431 -0.0124,-0.27285 -0.0124,-0.35554 v -1.59576 c 0,-0.30593 0.0124,-0.3266 0.169498,-0.34314 l 0.128158,-0.008 v -0.1323 l -0.401009,0.0124 c -0.03721,0 -0.09509,0 -0.401009,-0.0124 v 0.1323 l 0.128157,0.008 c 0.157096,0.0165 0.169499,0.0372 0.169499,0.34314 v 1.26504 l -1.09554,-1.28158 c -0.07441,-0.0827 -0.136426,-0.1695 -0.363802,-0.46716 z m 0,0"
       style="fill:#47478d;fill-opacity:1;fill-rule:nonzero;stroke:none;stroke-width:0.352778"
       aria-label="N" />
    <path
       id="path105"
       d="m -30.175938,279.75553 h 0.132291 c 0.14056,0 0.152963,0.0248 0.152963,0.25632 v 0.78961 c 0,0.22324 -0.0083,0.24805 -0.128158,0.25218 l -0.16123,0.0124 v 0.10749 c 0.334863,-0.0124 0.347265,-0.0124 0.446484,-0.0124 0.09509,0 0.186035,0.004 0.417546,0.0124 v -0.10749 l -0.148829,-0.0124 c -0.119889,-0.004 -0.128157,-0.0289 -0.128157,-0.25218 v -0.74414 c 0,-0.1571 0.23151,-0.33073 0.44235,-0.33073 0.190169,0 0.318327,0.1819 0.318327,0.44649 v 0.62838 c 0,0.22324 -0.0124,0.24805 -0.128158,0.25218 l -0.165364,0.0124 v 0.10749 c 0.3514,-0.0124 0.3514,-0.0124 0.44235,-0.0124 0.08682,0 0.08682,0 0.438216,0.0124 v -0.10749 l -0.16123,-0.0124 c -0.11989,-0.004 -0.132292,-0.0289 -0.132292,-0.25218 v -0.74414 c 0,-0.1571 0.235645,-0.33073 0.446484,-0.33073 0.186036,0 0.318327,0.1819 0.318327,0.44649 v 1.00045 c 0.214974,-0.0124 0.219108,-0.0124 0.276986,-0.0124 0.04547,0 0.04547,0 0.314193,0.0124 v -0.10749 l -0.165365,-0.0124 c -0.119889,-0.004 -0.132292,-0.0289 -0.132292,-0.25218 v -0.72347 c 0,-0.34726 -0.202571,-0.56637 -0.525032,-0.56637 -0.124024,0 -0.227376,0.0331 -0.289388,0.091 l -0.268718,0.23564 c -0.111621,-0.23151 -0.256315,-0.32659 -0.496093,-0.32659 -0.132292,0 -0.227377,0.0331 -0.293522,0.091 l -0.239779,0.22324 v -0.29766 l -0.03307,-0.0165 c -0.177767,0.0744 -0.363802,0.12402 -0.549837,0.14469 z m 4.177522,1.11621 -0.01653,0.30179 c 0.227376,-0.0124 0.227376,-0.0124 0.272851,-0.0124 0.02067,0 0.107487,0.004 0.26045,0.0124 v -0.10749 l -0.136426,-0.008 c -0.08268,-0.004 -0.09922,-0.0289 -0.09922,-0.20258 v -0.64492 c 0,-0.51263 -0.144694,-0.69866 -0.553972,-0.69866 -0.148828,0 -0.289387,0.0413 -0.425813,0.11989 l -0.186035,0.11162 v 0.23151 l 0.09095,0.0248 0.04547,-0.11162 c 0.07441,-0.16536 0.111621,-0.19017 0.272852,-0.19017 0.330729,0 0.467155,0.13229 0.475423,0.45062 l -0.347265,0.062 c -0.475424,0.0909 -0.677995,0.25632 -0.677995,0.56224 0,0.27285 0.165364,0.42995 0.44235,0.42995 0.06615,0 0.124024,-0.008 0.148828,-0.0289 z m 0,-0.14469 c -0.09922,0.14056 -0.322461,0.27698 -0.458886,0.27698 -0.14056,0 -0.264584,-0.13229 -0.264584,-0.28112 0,-0.13229 0.07028,-0.25218 0.177767,-0.32246 0.08682,-0.0496 0.28112,-0.0992 0.545703,-0.14056 z m 2.063957,0.44648 c 0.21084,-0.0124 0.214974,-0.0124 0.276986,-0.0124 0.04961,0 0.04961,0 0.289387,0.0124 v -0.10749 l -0.144693,-0.0124 c -0.11989,-0.004 -0.128158,-0.0248 -0.128158,-0.25218 v -0.67799 c 0,-0.40928 -0.194303,-0.61185 -0.587044,-0.61185 -0.128158,0 -0.202572,0.0248 -0.276986,0.091 l -0.268717,0.23151 v -0.30593 l -0.02894,-0.0165 c -0.181901,0.0744 -0.363802,0.12402 -0.549837,0.14469 v 0.0992 h 0.128158 c 0.140559,0 0.157096,0.0248 0.157096,0.25632 v 0.78961 c 0,0.22324 -0.0124,0.24805 -0.132292,0.25218 l -0.157096,0.0124 v 0.10749 c 0.239779,-0.008 0.334863,-0.0124 0.438216,-0.0124 0.09922,0 0.194303,0.004 0.434082,0.0124 v -0.10749 l -0.157096,-0.0124 c -0.119889,-0.004 -0.132292,-0.0289 -0.132292,-0.25218 v -0.74414 c 0,-0.1571 0.23151,-0.33073 0.446484,-0.33073 0.235645,0 0.392741,0.17777 0.392741,0.44649 z m 0,0"
       style="fill:#ffffff;fill-opacity:1;fill-rule:nonzero;stroke:none;stroke-width:0.352778"
       aria-label="man" />
    <path
       id="path106"
       d="m -10.589536,243.95824 c 0.04134,0.008 0.04548,0.008 0.05374,0.008 0.08682,0.0124 0.103353,0.0165 0.152963,0.0165 0.4506181,0 0.7896154,-0.32246 0.7896154,-0.74414 0,-0.3514 -0.2232421,-0.52917 -0.6655924,-0.52917 h -0.04134 c -0.384473,0.008 -0.595313,0.0124 -0.636654,0.0124 -0.07441,0 -0.07441,0 -0.607715,-0.0124 v 0.1323 l 0.132292,0.008 c 0.157096,0.0165 0.165365,0.0372 0.165365,0.34314 v 1.43453 c 0,0.3142 0,0.32246 -0.165365,0.33487 l -0.132292,0.0124 v 0.14056 c 0.425814,-0.0124 0.425814,-0.0124 0.549838,-0.0124 0.107487,0 0.107487,0 0.578776,0.0124 v -0.14056 l -0.165365,-0.0124 c -0.16123,-0.0124 -0.169499,-0.0248 -0.169499,-0.33487 v -1.71152 c 0.05374,-0.0207 0.115756,-0.0289 0.21084,-0.0289 0.293522,0 0.44235,0.1571 0.44235,0.47129 0,0.28112 -0.140559,0.46302 -0.363802,0.46302 -0.02894,0 -0.03307,0 -0.124023,-0.0207 -0.0041,0 -0.0124,0 -0.02894,0 l -0.03307,0.0331 z m 2.3233721,0 c 0.041341,0.008 0.045475,0.008 0.053744,0.008 0.086816,0.0124 0.103353,0.0165 0.1529624,0.0165 0.4506182,0 0.7896157,-0.32246 0.7896157,-0.74414 0,-0.3514 -0.2232423,-0.52917 -0.6655925,-0.52917 h -0.041341 c -0.3844728,0.008 -0.5953126,0.0124 -0.6366538,0.0124 -0.074414,0 -0.074414,0 -0.6077148,-0.0124 v 0.1323 l 0.1322917,0.008 c 0.1570963,0.0165 0.1653646,0.0372 0.1653646,0.34314 v 1.43453 c 0,0.3142 0,0.32246 -0.1653646,0.33487 l -0.1322917,0.0124 v 0.14056 c 0.4258138,-0.0124 0.4258138,-0.0124 0.5498372,-0.0124 0.107487,0 0.107487,0 0.5787761,0.0124 v -0.14056 l -0.1653646,-0.0124 c -0.1612305,-0.0124 -0.1694987,-0.0248 -0.1694987,-0.33487 v -1.71152 c 0.053743,-0.0207 0.1157552,-0.0289 0.2108398,-0.0289 0.293522,0 0.4423501,0.1571 0.4423501,0.47129 0,0.28112 -0.1405597,0.46302 -0.3638021,0.46302 -0.028939,0 -0.033073,0 -0.1240232,-0.0207 -0.00413,0 -0.012402,0 -0.028939,0 l -0.033073,0.0331 z m 0,0"
       style="fill:#dda0dd;fill-opacity:1;fill-rule:nonzero;stroke:none;stroke-width:0.352778"
       aria-label="PP" />
    <path
       id="path107"
       d="m -16.505456,255.97714 c 0.04134,0.008 0.04547,0.008 0.05374,0.008 0.08682,0.0124 0.103353,0.0165 0.152963,0.0165 0.450618,0 0.789616,-0.32246 0.789616,-0.74414 0,-0.3514 -0.223243,-0.52916 -0.665593,-0.52916 h -0.04134 c -0.384473,0.008 -0.595312,0.0124 -0.636654,0.0124 -0.07441,0 -0.07441,0 -0.607714,-0.0124 v 0.13229 l 0.132291,0.008 c 0.157097,0.0165 0.165365,0.0372 0.165365,0.34313 v 1.43454 c 0,0.31419 0,0.32246 -0.165365,0.33486 l -0.132291,0.0124 v 0.14056 c 0.425813,-0.0124 0.425813,-0.0124 0.549837,-0.0124 0.107487,0 0.107487,0 0.578776,0.0124 v -0.14056 l -0.165365,-0.0124 c -0.16123,-0.0124 -0.169498,-0.0248 -0.169498,-0.33486 v -1.71153 c 0.05374,-0.0207 0.115755,-0.0289 0.210839,-0.0289 0.293522,0 0.442351,0.1571 0.442351,0.47129 0,0.28112 -0.14056,0.46302 -0.363802,0.46302 -0.02894,0 -0.03307,0 -0.124024,-0.0207 -0.0041,0 -0.0124,0 -0.02894,0 l -0.03307,0.0331 z m 0,0"
       style="fill:#9932cc;fill-opacity:1;fill-rule:nonzero;stroke:none;stroke-width:0.352778"
       aria-label="P" />
    <path
       id="path108"
       d="m -17.526581,279.51162 c -0.51263,0 -0.868164,0.3638 -0.868164,0.88883 0,0.49196 0.314193,0.83096 0.768946,0.83096 0.537434,0 0.926041,-0.37621 0.926041,-0.90124 0,-0.47542 -0.343131,-0.81855 -0.826823,-0.81855 z m -0.06201,0.11575 c 0.32246,0 0.562239,0.3514 0.562239,0.83096 0,0.40514 -0.177767,0.65732 -0.463021,0.65732 -0.347265,0 -0.578776,-0.33899 -0.578776,-0.83509 0,-0.42168 0.169499,-0.65319 0.479558,-0.65319 z m 2.444295,1.54616 c 0.210839,-0.0124 0.214974,-0.0124 0.276985,-0.0124 0.04961,0 0.04961,0 0.289388,0.0124 v -0.10749 l -0.144694,-0.0124 c -0.119889,-0.004 -0.128157,-0.0248 -0.128157,-0.25218 v -0.67799 c 0,-0.40928 -0.194304,-0.61185 -0.587044,-0.61185 -0.128158,0 -0.202572,0.0248 -0.276986,0.091 l -0.268718,0.23151 v -0.30593 l -0.02894,-0.0165 c -0.181901,0.0744 -0.363802,0.12402 -0.549837,0.14469 v 0.0992 h 0.128157 c 0.14056,0 0.157096,0.0248 0.157096,0.25632 v 0.78961 c 0,0.22324 -0.0124,0.24805 -0.132291,0.25218 l -0.157097,0.0124 v 0.10749 c 0.239779,-0.008 0.334864,-0.0124 0.438217,-0.0124 0.09922,0 0.194303,0.004 0.434082,0.0124 v -0.10749 l -0.157097,-0.0124 c -0.119889,-0.004 -0.132291,-0.0289 -0.132291,-0.25218 v -0.74414 c 0,-0.1571 0.23151,-0.33073 0.446484,-0.33073 0.235644,0 0.392741,0.17777 0.392741,0.44649 z m 0,0"
       style="fill:#ffffff;fill-opacity:1;fill-rule:nonzero;stroke:none;stroke-width:0.352778"
       aria-label="on" />
    <path
       id="path109"
       d="m -4.4472756,254.74104 h -0.074414 c -0.033073,0 -0.1488282,-0.004 -0.3472657,-0.0124 v 0.13229 l 0.1281576,0.008 c 0.1570963,0.0165 0.1694987,0.0372 0.1694987,0.34313 v 1.43454 c 0,0.31006 -0.012402,0.33073 -0.1694987,0.34726 l -0.1281576,0.008 v 0.13229 c 0.3348633,-0.0124 0.3348633,-0.0124 0.4051433,-0.0124 0.07028,0 0.2315104,0.004 0.396875,0.0124 v -0.13229 l -0.1281576,-0.008 c -0.1570964,-0.0165 -0.1694987,-0.0331 -0.1694987,-0.34726 v -1.3808 l 1.1451497,1.37666 c 0.095085,0.11576 0.181901,0.21084 0.4299479,0.49196 l 0.289388,0.0455 0.024805,-0.0165 c -0.00827,-0.1943 -0.012402,-0.27285 -0.012402,-0.35553 v -1.59577 c 0,-0.30593 0.012402,-0.3266 0.1694987,-0.34313 l 0.1281576,-0.008 v -0.13229 l -0.4010091,0.0124 c -0.037207,0 -0.095085,0 -0.4010091,-0.0124 v 0.13229 l 0.1281575,0.008 c 0.1570964,0.0165 0.1694987,0.0372 0.1694987,0.34313 v 1.26504 l -1.0955402,-1.28158 c -0.074414,-0.0827 -0.1364258,-0.1695 -0.3638021,-0.46715 z m 3.6483558,1.2361 c 0.0413413,0.008 0.0454755,0.008 0.0537436,0.008 0.0868165,0.0124 0.10335295,0.0165 0.15296232,0.0165 0.45061856,0 0.78961576,-0.32246 0.78961576,-0.74414 0,-0.3514 -0.223242,-0.52916 -0.6655925,-0.52916 h -0.041341 c -0.38447273,0.008 -0.59531248,0.0124 -0.63665378,0.0124 -0.074414,0 -0.074414,0 -0.6077147,-0.0124 v 0.13229 l 0.1322917,0.008 c 0.1570964,0.0165 0.1653645,0.0372 0.1653645,0.34313 v 1.43454 c 0,0.31419 0,0.32246 -0.1653645,0.33486 l -0.1322917,0.0124 v 0.14056 c 0.4258137,-0.0124 0.4258137,-0.0124 0.5498373,-0.0124 0.1074868,0 0.1074868,0 0.57877598,0.0124 v -0.14056 l -0.16536458,-0.0124 c -0.16123037,-0.0124 -0.16949878,-0.0248 -0.16949878,-0.33486 v -1.71153 c 0.0537436,-0.0207 0.11575521,-0.0289 0.21083975,-0.0289 0.29352238,0 0.4423505,0.1571 0.4423505,0.47129 0,0.28112 -0.14056006,0.46302 -0.36380206,0.46302 -0.0289384,0 -0.0330729,0 -0.12402361,-0.0207 -0.004135,0 -0.0124037,0 -0.0289384,0 l -0.0330729,0.0331 z m 0,0"
       style="fill:#14a3e6;fill-opacity:1;fill-rule:nonzero;stroke:none;stroke-width:0.352778"
       aria-label="NP" />
    <path
       id="path110"
       d="m -10.140985,269.07195 v 0.0827 c 0.4754232,-0.0124 0.4754232,-0.0124 0.5457031,-0.0124 0.062012,0 0.252181,0.004 0.3389974,0.008 l 0.2067057,0.004 c 0.4175456,0 0.8020182,-0.14883 1.0666015,-0.40928 0.2397786,-0.23564 0.3638021,-0.54984 0.3638021,-0.92604 0,-0.33073 -0.095085,-0.60772 -0.2687174,-0.77721 -0.2067058,-0.20671 -0.4878255,-0.28939 -0.9591146,-0.29353 -0.5498372,0.008 -0.830957,0.0124 -0.8433593,0.0124 -0.045475,0 -0.045475,0 -0.5663735,-0.0124 v 0.1323 l 0.128157,0.008 c 0.1570967,0.0165 0.169499,0.0372 0.169499,0.34314 v 1.57509 c 0,0.11576 -0.016536,0.17364 -0.07028,0.20257 z m 0.6779948,-2.13321 c 0.082682,-0.0124 0.1405599,-0.0124 0.219108,-0.0124 0.4134115,0 0.6945313,0.0827 0.8681641,0.25218 0.1570963,0.15296 0.2315104,0.39274 0.2315104,0.74001 0,0.35553 -0.09095,0.62425 -0.2563151,0.78961 -0.177767,0.17364 -0.4258138,0.25219 -0.8226888,0.25219 -0.09095,0 -0.1529622,-0.004 -0.2397786,-0.0165 z m 3.8054521,1.16582 c 0,-0.3762 -0.2645833,-0.61598 -0.6655922,-0.61598 -0.1240236,0 -0.2149739,0.0248 -0.3100588,0.0786 l -0.1653646,0.0992 c -0.2315102,0.13642 -0.330729,0.34726 -0.330729,0.68213 0,0.5581 0.2811196,0.85162 0.8020182,0.85162 0.2025717,0 0.3307292,-0.0331 0.5581054,-0.14882 l 0.074414,-0.1695 -0.041341,-0.0537 c -0.1653646,0.0909 -0.2687175,0.12403 -0.4092772,0.12403 -0.1819011,0 -0.355534,-0.0992 -0.4423502,-0.24805 -0.057878,-0.0992 -0.078548,-0.1819 -0.086817,-0.34727 h 0.4630208 c 0.1984375,0 0.3555337,-0.0207 0.5539712,-0.0703 z m -0.7400064,0.0786 h -0.016535 c -0.020669,0 -0.1157552,-0.004 -0.1694988,-0.008 l -0.111621,-0.004 c 0.012404,-0.34727 0.095085,-0.48783 0.2976563,-0.48783 0.2025717,0 0.2852539,0.14056 0.293522,0.48783 z m 2.1900472,0.74828 -0.024804,-0.0662 c -0.07028,0.0331 -0.1074872,0.0455 -0.1612308,0.0455 -0.1653645,0 -0.2191078,-0.0579 -0.2191078,-0.22738 v -0.83923 h 0.3720701 l 0.028938,-0.22737 -0.4010088,0.0207 v -0.20257 c 0,-0.18604 0.00827,-0.30179 0.041341,-0.47956 l -0.049609,-0.0331 c -0.1405597,0.0661 -0.2480469,0.10748 -0.4299479,0.17363 0.012404,0.1819 0.016535,0.25218 0.016535,0.32246 v 0.21084 l -0.2315104,0.15296 v 0.0786 l 0.2232423,-0.0165 v 0.90951 c 0,0.31419 0.1322917,0.44648 0.438216,0.44648 0.1074871,0 0.1943033,-0.0207 0.2273762,-0.062 z m 0,0"
       style="fill:#cccc00;fill-opacity:1;fill-rule:nonzero;stroke:none;stroke-width:0.352778"
       aria-label="Det" />
    <path
       id="path111"
       d="m -9.3720404,279.81754 v 1.01286 c 0,0.26045 0.1157552,0.37207 0.3886067,0.37207 0.078548,0 0.1653646,-0.0165 0.1860352,-0.0413 l 0.1694987,-0.18604 -0.045475,-0.062 c -0.09095,0.0496 -0.1405599,0.0703 -0.2108398,0.0703 -0.1364258,0 -0.1901693,-0.0703 -0.1901693,-0.24391 v -0.92191 h 0.4506185 l 0.028939,-0.19017 -0.4795573,0.0207 v -0.13229 c 0,-0.14883 0.00827,-0.27285 0.037207,-0.50023 l -0.041341,-0.0372 c -0.086816,0.0537 -0.1901692,0.0992 -0.2976562,0.13229 0.00827,0.10749 0.012402,0.17363 0.012402,0.28112 v 0.24391 l -0.2728515,0.12402 v 0.0744 z m 0.8278564,-0.97978 h 0.1984375 c 0.062012,0 0.086816,0.0372 0.086816,0.14469 v 1.81901 c 0,0.22324 -0.012402,0.24805 -0.1322917,0.25218 l -0.1570963,0.0124 v 0.10749 c 0.2397786,-0.008 0.3348632,-0.0124 0.4382161,-0.0124 0.099219,0 0.1943034,0.004 0.434082,0.0124 v -0.10749 l -0.1570963,-0.0124 c -0.1198893,-0.004 -0.1322917,-0.0289 -0.1322917,-0.25218 v -0.74414 c 0,-0.1571 0.2315104,-0.33073 0.4464843,-0.33073 0.2356446,0 0.3927409,0.17777 0.3927409,0.44649 v 1.00045 c 0.2108398,-0.0124 0.214974,-0.0124 0.2769857,-0.0124 0.049609,0 0.049609,0 0.289388,0.0124 v -0.10749 l -0.144694,-0.0124 c -0.1198893,-0.004 -0.1281576,-0.0248 -0.1281576,-0.25218 v -0.67799 c 0,-0.40928 -0.1943033,-0.61185 -0.5870442,-0.61185 -0.1281575,0 -0.2025716,0.0248 -0.2769857,0.091 l -0.2687174,0.23151 v -1.19476 l -0.028939,-0.0289 c -0.1570964,0.0579 -0.2728516,0.0868 -0.5498372,0.12816 z m 3.554305,2.07532 -0.045476,-0.0331 c -0.223242,0.13229 -0.3059243,0.16536 -0.4547524,0.16536 -0.2273762,0 -0.4175456,-0.10335 -0.5167644,-0.27285 -0.066146,-0.11575 -0.09095,-0.21497 -0.099219,-0.42168 h 0.5126302 c 0.2439126,0 0.3927408,-0.008 0.6366538,-0.0455 0.00413,-0.0496 0.00827,-0.0827 0.00827,-0.12403 0,-0.40514 -0.2604491,-0.66972 -0.6531899,-0.66972 -0.1322917,0 -0.2811198,0.0455 -0.4258141,0.13229 -0.2893878,0.16536 -0.405143,0.38034 -0.405143,0.74827 0,0.21911 0.053743,0.40928 0.1488281,0.54571 0.1405597,0.18603 0.3762043,0.29352 0.6407877,0.29352 0.1281574,0 0.2563152,-0.0289 0.4010091,-0.0909 0.095085,-0.0372 0.1694988,-0.0868 0.1819011,-0.10749 z m -0.2728518,-0.69039 c -0.181901,0.008 -0.2645833,0.0124 -0.3927407,0.0124 -0.1612304,0 -0.2521811,-0.004 -0.4423502,-0.0248 0,-0.16123 0.012404,-0.23978 0.057877,-0.33073 0.074414,-0.15709 0.2273762,-0.25218 0.396875,-0.25218 0.1157552,0 0.2067059,0.0455 0.2687175,0.14056 0.078548,0.11576 0.103353,0.21911 0.111621,0.45476 z m 0,0"
       style="fill:#ffffff;fill-opacity:1;fill-rule:nonzero;stroke:none;stroke-width:0.352778"
       aria-label="the" />
    <path
       id="path112"
       d="m 1.6247042,266.76098 h -0.074414 c -0.033073,0 -0.1488281,-0.004 -0.3472656,-0.0124 v 0.1323 l 0.1281576,0.008 c 0.1570963,0.0165 0.1694987,0.0372 0.1694987,0.34314 v 1.43453 c 0,0.31006 -0.012402,0.33073 -0.1694987,0.34727 l -0.1281576,0.008 v 0.13229 c 0.3348633,-0.0124 0.3348633,-0.0124 0.4051432,-0.0124 0.07028,0 0.2315104,0.004 0.396875,0.0124 v -0.13229 l -0.1281575,-0.008 C 1.7197888,268.99753 1.7073865,268.981 1.7073865,268.6668 v -1.38079 l 1.1451497,1.37666 c 0.095085,0.11575 0.181901,0.21084 0.4299479,0.49196 l 0.289388,0.0455 0.024805,-0.0165 c -0.00827,-0.19431 -0.012402,-0.27285 -0.012402,-0.35554 v -1.59576 c 0,-0.30593 0.012402,-0.3266 0.1694987,-0.34314 l 0.1281575,-0.008 v -0.1323 l -0.401009,0.0124 c -0.037207,0 -0.095085,0 -0.4010092,-0.0124 v 0.1323 l 0.1281576,0.008 c 0.1570964,0.0165 0.1694987,0.0372 0.1694987,0.34314 v 1.26503 l -1.0955403,-1.28157 c -0.074414,-0.0827 -0.1364258,-0.1695 -0.3638021,-0.46716 z m 0,0"
       style="fill:#47478d;fill-opacity:1;fill-rule:nonzero;stroke:none;stroke-width:0.352778"
       aria-label="N" />
    <path
       id="path113"
       d="m 0.01033253,278.83776 h 0.19843749 c 0.0620117,0 0.0868164,0.0372 0.0868164,0.14469 v 1.81901 c 0,0.22324 -0.0124024,0.24805 -0.13229166,0.25218 l -0.15709635,0.0124 v 0.10749 c 0.23977863,-0.008 0.33486325,-0.0124 0.43821612,-0.0124 0.0992188,0 0.19430336,0.004 0.43408199,0.0124 v -0.10749 l -0.15709634,-0.0124 c -0.1198893,-0.004 -0.13229166,-0.0289 -0.13229166,-0.25218 v -0.74414 c 0,-0.1571 0.2315104,-0.33073 0.44648438,-0.33073 0.2356445,0 0.3927409,0.17777 0.3927409,0.44649 v 1.00045 c 0.2108398,-0.0124 0.2149739,-0.0124 0.2769856,-0.0124 0.049609,0 0.049609,0 0.289388,0.0124 v -0.10749 l -0.144694,-0.0124 c -0.1198893,-0.004 -0.1281575,-0.0248 -0.1281575,-0.25218 v -0.67799 c 0,-0.40928 -0.1943034,-0.61185 -0.5870443,-0.61185 -0.1281575,0 -0.20257157,0.0248 -0.27698563,0.091 l -0.26871745,0.23151 v -1.19476 l -0.0289387,-0.0289 c -0.15709642,0.0579 -0.27285162,0.0868 -0.54983729,0.12816 z m 2.68200667,0.69039 -0.033073,-0.0165 c -0.1777669,0.0744 -0.3596679,0.12402 -0.5457031,0.14469 v 0.0992 h 0.1281576 c 0.1405599,0 0.1529622,0.0248 0.1529622,0.25632 v 0.78961 c 0,0.22324 -0.00827,0.24805 -0.1281575,0.25218 l -0.1612305,0.0124 v 0.10749 c 0.3513997,-0.0124 0.3513997,-0.0124 0.4382161,-0.0124 0.086816,0 0.086816,0 0.4382161,0.0124 v -0.10749 l -0.1612304,-0.0124 c -0.1198893,-0.004 -0.1281576,-0.0289 -0.1281576,-0.25218 z m -0.1612304,-0.78134 c -0.107487,0 -0.1984375,0.091 -0.1984375,0.19843 0,0.0992 0.09095,0.19017 0.1943034,0.19017 0.1033528,0 0.1943033,-0.0909 0.1943033,-0.19017 0,-0.0992 -0.09095,-0.19843 -0.1901692,-0.19843 z m 0.6056477,0.091 h 0.1943034 c 0.062012,0 0.086816,0.0372 0.086816,0.14469 v 1.81901 c 0,0.22324 -0.00827,0.24805 -0.1281575,0.25218 l -0.1612305,0.0124 v 0.10749 c 0.3513997,-0.0124 0.3513997,-0.0124 0.438216,-0.0124 0.086816,0 0.086816,0 0.4382163,0.0124 v -0.10749 l -0.1612304,-0.0124 c -0.1198894,-0.004 -0.1281578,-0.0289 -0.1281578,-0.25218 v -2.16214 l -0.033073,-0.0289 c -0.152962,0.0579 -0.2687173,0.0868 -0.545703,0.12816 z m 1.0221597,0 h 0.1943036 c 0.062012,0 0.086816,0.0372 0.086816,0.14469 v 1.81901 c 0,0.22324 -0.00827,0.24805 -0.1281575,0.25218 l -0.1612304,0.0124 v 0.10749 c 0.3513998,-0.0124 0.3513998,-0.0124 0.438216,-0.0124 0.086816,0 0.086816,0 0.4382163,0.0124 v -0.10749 L 4.86585,281.05364 c -0.1198894,-0.004 -0.1281578,-0.0289 -0.1281578,-0.25218 v -2.16214 l -0.033073,-0.0289 c -0.152962,0.0579 -0.2687172,0.0868 -0.5457031,0.12816 z m 0,0"
       style="fill:#ffffff;fill-opacity:1;fill-rule:nonzero;stroke:none;stroke-width:0.352778"
       aria-label="hill" />
    <path
       id="path114"
       d="m 21.375436,207.89945 c 0.04134,0.008 0.04548,0.008 0.05374,0.008 0.08682,0.0124 0.103353,0.0165 0.152962,0.0165 0.450619,0 0.789616,-0.32246 0.789616,-0.74414 0,-0.3514 -0.223242,-0.52917 -0.665592,-0.52917 h -0.04134 c -0.384472,0.008 -0.595312,0.0124 -0.636653,0.0124 -0.07441,0 -0.07441,0 -0.607715,-0.0124 v 0.13229 l 0.132292,0.008 c 0.157096,0.0165 0.165364,0.0372 0.165364,0.34313 v 1.43454 c 0,0.31419 0,0.32246 -0.165364,0.33486 l -0.132292,0.0124 v 0.14056 c 0.425814,-0.0124 0.425814,-0.0124 0.549837,-0.0124 0.107487,0 0.107487,0 0.578776,0.0124 v -0.14056 l -0.165364,-0.0124 c -0.161231,-0.0124 -0.169499,-0.0248 -0.169499,-0.33486 v -1.71152 c 0.05374,-0.0207 0.115755,-0.0289 0.21084,-0.0289 0.293522,0 0.44235,0.15709 0.44235,0.47129 0,0.28112 -0.14056,0.46302 -0.363802,0.46302 -0.02894,0 -0.03307,0 -0.124023,-0.0207 -0.0041,0 -0.0124,0 -0.02894,0 l -0.03307,0.0331 z m 2.323373,0 c 0.04134,0.008 0.04547,0.008 0.05374,0.008 0.08682,0.0124 0.103353,0.0165 0.152962,0.0165 0.450619,0 0.789616,-0.32246 0.789616,-0.74414 0,-0.3514 -0.223242,-0.52917 -0.665592,-0.52917 h -0.04134 c -0.384473,0.008 -0.595313,0.0124 -0.636654,0.0124 -0.07441,0 -0.07441,0 -0.607715,-0.0124 v 0.13229 l 0.132292,0.008 c 0.157096,0.0165 0.165364,0.0372 0.165364,0.34313 v 1.43454 c 0,0.31419 0,0.32246 -0.165364,0.33486 l -0.132292,0.0124 v 0.14056 c 0.425814,-0.0124 0.425814,-0.0124 0.549837,-0.0124 0.107487,0 0.107487,0 0.578777,0.0124 v -0.14056 l -0.165365,-0.0124 c -0.161231,-0.0124 -0.169499,-0.0248 -0.169499,-0.33486 v -1.71152 c 0.05374,-0.0207 0.115755,-0.0289 0.21084,-0.0289 0.293522,0 0.44235,0.15709 0.44235,0.47129 0,0.28112 -0.14056,0.46302 -0.363802,0.46302 -0.02894,0 -0.03307,0 -0.124023,-0.0207 -0.0041,0 -0.0124,0 -0.02894,0 l -0.03307,0.0331 z m 0,0"
       style="fill:#dda0dd;fill-opacity:1;fill-rule:nonzero;stroke:none;stroke-width:0.352778"
       aria-label="PP" />
    <path
       id="path115"
       d="m 13.51545,219.91939 c 0.04134,0.008 0.04547,0.008 0.05374,0.008 0.08682,0.0124 0.103353,0.0165 0.152963,0.0165 0.450618,0 0.789616,-0.32246 0.789616,-0.74414 0,-0.3514 -0.223243,-0.52916 -0.665593,-0.52916 h -0.04134 c -0.384473,0.008 -0.595313,0.0124 -0.636654,0.0124 -0.07441,0 -0.07441,0 -0.607714,-0.0124 v 0.13229 l 0.132291,0.008 c 0.157097,0.0165 0.165365,0.0372 0.165365,0.34314 v 1.43453 c 0,0.3142 0,0.32246 -0.165365,0.33487 l -0.132291,0.0124 v 0.14056 c 0.425813,-0.0124 0.425813,-0.0124 0.549837,-0.0124 0.107487,0 0.107487,0 0.578776,0.0124 v -0.14056 l -0.165365,-0.0124 c -0.16123,-0.0124 -0.169499,-0.0248 -0.169499,-0.33487 v -1.71152 c 0.05374,-0.0207 0.115756,-0.0289 0.21084,-0.0289 0.293522,0 0.442351,0.1571 0.442351,0.47129 0,0.28112 -0.14056,0.46302 -0.363803,0.46302 -0.02894,0 -0.03307,0 -0.124023,-0.0207 -0.0041,0 -0.0124,0 -0.02894,0 l -0.03307,0.0331 z m 0,0"
       style="fill:#9932cc;fill-opacity:1;fill-rule:nonzero;stroke:none;stroke-width:0.352778"
       aria-label="P" />
    <path
       id="path116"
       d="m 11.37708,279.51162 c -0.289388,0.67386 -0.338998,0.79375 -0.558106,1.28571 l -0.293522,-0.97152 c -0.0124,-0.0331 -0.01654,-0.0579 -0.01654,-0.0868 0,-0.0537 0.04548,-0.0827 0.132291,-0.0868 l 0.14056,-0.004 v -0.0992 c -0.347266,0.008 -0.347266,0.008 -0.417545,0.008 -0.07028,0 -0.07028,0 -0.417546,-0.008 v 0.0992 l 0.099219,0.004 c 0.09922,0.008 0.144694,0.0786 0.23151,0.3514 l 0.359668,1.18235 h 0.165365 l 0.343131,-0.81028 c 0.01654,-0.0413 0.05788,-0.12403 0.111621,-0.24392 l 0.07028,-0.14882 0.479557,1.20302 h 0.161231 c 0.0248,-0.0744 0.05374,-0.15296 0.07855,-0.23151 0.07028,-0.2067 0.148828,-0.42581 0.165365,-0.44648 l 0.235644,-0.54984 c 0.107487,-0.23564 0.148828,-0.29352 0.227376,-0.30592 l 0.09095,-0.004 v -0.0992 c -0.289388,0.008 -0.289388,0.008 -0.343132,0.008 -0.05788,0 -0.05788,0 -0.347265,-0.008 v 0.0992 l 0.119889,0.004 c 0.08682,0.004 0.136426,0.0455 0.136426,0.11162 0,0.0372 -0.0041,0.0786 -0.02481,0.12402 l -0.173632,0.49196 c -0.02894,0.0786 -0.05788,0.14883 -0.169499,0.43822 l -0.405143,-1.02113 c -0.04961,-0.11989 -0.07441,-0.19017 -0.09922,-0.28525 z m 2.141471,0.0165 -0.03307,-0.0165 c -0.177767,0.0744 -0.359668,0.12402 -0.545703,0.14469 v 0.0992 h 0.128157 c 0.14056,0 0.152963,0.0248 0.152963,0.25632 v 0.78961 c 0,0.22324 -0.0083,0.24805 -0.128158,0.25218 l -0.16123,0.0124 v 0.10749 c 0.351399,-0.0124 0.351399,-0.0124 0.438216,-0.0124 0.08682,0 0.08682,0 0.438216,0.0124 v -0.10749 l -0.161231,-0.0124 c -0.119889,-0.004 -0.128157,-0.0289 -0.128157,-0.25218 z m -0.161231,-0.78134 c -0.107487,0 -0.198437,0.091 -0.198437,0.19843 0,0.0992 0.09095,0.19017 0.194303,0.19017 0.103353,0 0.194304,-0.0909 0.194304,-0.19017 0,-0.0992 -0.09095,-0.19843 -0.19017,-0.19843 z m 0.865064,1.07073 v 1.01286 c 0,0.26045 0.115755,0.37207 0.388606,0.37207 0.07855,0 0.165365,-0.0165 0.186036,-0.0413 l 0.169499,-0.18604 -0.04548,-0.062 c -0.09095,0.0496 -0.14056,0.0703 -0.21084,0.0703 -0.136426,0 -0.190169,-0.0703 -0.190169,-0.24391 v -0.92191 h 0.450618 l 0.02894,-0.19017 -0.479558,0.0207 v -0.13229 c 0,-0.14883 0.0083,-0.27285 0.03721,-0.50023 l -0.04134,-0.0372 c -0.08682,0.0537 -0.190169,0.0992 -0.297656,0.13229 0.0083,0.10749 0.0124,0.17363 0.0124,0.28112 v 0.24391 l -0.272852,0.12402 v 0.0744 z m 0.827856,-0.97978 h 0.198438 c 0.06201,0 0.08682,0.0372 0.08682,0.14469 v 1.81901 c 0,0.22324 -0.0124,0.24805 -0.132292,0.25218 l -0.157096,0.0124 v 0.10749 c 0.239779,-0.008 0.334863,-0.0124 0.438216,-0.0124 0.09922,0 0.194303,0.004 0.434082,0.0124 v -0.10749 l -0.157096,-0.0124 c -0.11989,-0.004 -0.132292,-0.0289 -0.132292,-0.25218 v -0.74414 c 0,-0.1571 0.23151,-0.33073 0.446484,-0.33073 0.235645,0 0.392741,0.17777 0.392741,0.44649 v 1.00045 c 0.21084,-0.0124 0.214974,-0.0124 0.276986,-0.0124 0.04961,0 0.04961,0 0.289388,0.0124 v -0.10749 l -0.144694,-0.0124 c -0.119889,-0.004 -0.128157,-0.0248 -0.128157,-0.25218 v -0.67799 c 0,-0.40928 -0.194304,-0.61185 -0.587045,-0.61185 -0.128157,0 -0.202572,0.0248 -0.276985,0.091 l -0.268718,0.23151 v -1.19476 l -0.02894,-0.0289 c -0.157097,0.0579 -0.272852,0.0868 -0.549838,0.12816 z m 0,0"
       style="fill:#ffffff;fill-opacity:1;fill-rule:nonzero;stroke:none;stroke-width:0.352778"
       aria-label="with" />
    <path
       id="path117"
       d="m 29.461765,218.68329 h -0.07441 c -0.03307,0 -0.148828,-0.004 -0.347266,-0.0124 v 0.13229 l 0.128158,0.008 c 0.157096,0.0165 0.169498,0.0372 0.169498,0.34313 v 1.43453 c 0,0.31006 -0.0124,0.33073 -0.169498,0.34727 l -0.128158,0.008 v 0.13229 c 0.334863,-0.0124 0.334863,-0.0124 0.405143,-0.0124 0.07028,0 0.231511,0.004 0.396875,0.0124 v -0.13229 l -0.128157,-0.008 c -0.157096,-0.0165 -0.169499,-0.0331 -0.169499,-0.34727 v -1.38079 l 1.14515,1.37666 c 0.09508,0.11576 0.181901,0.21084 0.429948,0.49196 l 0.289388,0.0455 0.0248,-0.0165 c -0.0083,-0.1943 -0.0124,-0.27285 -0.0124,-0.35554 v -1.59576 c 0,-0.30593 0.0124,-0.3266 0.169499,-0.34313 l 0.128157,-0.008 v -0.13229 l -0.401009,0.0124 c -0.03721,0 -0.09508,0 -0.401009,-0.0124 v 0.13229 l 0.128158,0.008 c 0.157096,0.0165 0.169498,0.0372 0.169498,0.34313 v 1.26504 l -1.09554,-1.28158 c -0.07441,-0.0827 -0.136426,-0.1695 -0.363802,-0.46715 z m 3.649389,1.2361 c 0.04134,0.008 0.04548,0.008 0.05374,0.008 0.08682,0.0124 0.103353,0.0165 0.152962,0.0165 0.450619,0 0.789616,-0.32246 0.789616,-0.74414 0,-0.3514 -0.223242,-0.52916 -0.665593,-0.52916 h -0.04134 c -0.384472,0.008 -0.595312,0.0124 -0.636653,0.0124 -0.07441,0 -0.07441,0 -0.607715,-0.0124 v 0.13229 l 0.132292,0.008 c 0.157096,0.0165 0.165364,0.0372 0.165364,0.34314 v 1.43453 c 0,0.3142 0,0.32246 -0.165364,0.33487 l -0.132292,0.0124 v 0.14056 c 0.425814,-0.0124 0.425814,-0.0124 0.549837,-0.0124 0.107487,0 0.107487,0 0.578776,0.0124 v -0.14056 l -0.165364,-0.0124 c -0.161231,-0.0124 -0.169499,-0.0248 -0.169499,-0.33487 v -1.71152 c 0.05374,-0.0207 0.115755,-0.0289 0.21084,-0.0289 0.293522,0 0.44235,0.1571 0.44235,0.47129 0,0.28112 -0.14056,0.46302 -0.363802,0.46302 -0.02894,0 -0.03307,0 -0.124024,-0.0207 -0.0041,0 -0.0124,0 -0.02894,0 l -0.03307,0.0331 z m 0,0"
       style="fill:#14a3e6;fill-opacity:1;fill-rule:nonzero;stroke:none;stroke-width:0.352778"
       aria-label="NP" />
    <path
       id="path118"
       d="m 21.47052,233.01316 v 0.0827 c 0.475423,-0.0124 0.475423,-0.0124 0.545703,-0.0124 0.06201,0 0.252181,0.004 0.338998,0.008 l 0.206705,0.004 c 0.417546,0 0.802019,-0.14883 1.066602,-0.40927 0.239779,-0.23565 0.363802,-0.54984 0.363802,-0.92605 0,-0.33073 -0.09508,-0.60771 -0.268717,-0.77721 -0.206706,-0.20671 -0.487826,-0.28939 -0.959115,-0.29352 -0.549837,0.008 -0.830957,0.0124 -0.843359,0.0124 -0.04547,0 -0.04547,0 -0.566374,-0.0124 v 0.13229 l 0.128158,0.008 c 0.157096,0.0165 0.169498,0.0372 0.169498,0.34313 v 1.5751 c 0,0.11575 -0.01654,0.17363 -0.07028,0.20257 z m 0.677995,-2.1332 c 0.08268,-0.0124 0.14056,-0.0124 0.219108,-0.0124 0.413412,0 0.694531,0.0827 0.868164,0.25218 0.157096,0.15296 0.231511,0.39274 0.231511,0.74 0,0.35554 -0.09095,0.62425 -0.256316,0.78962 -0.177766,0.17363 -0.425813,0.25218 -0.822688,0.25218 -0.09095,0 -0.152963,-0.004 -0.239779,-0.0165 z m 3.806486,1.16582 c 0,-0.37621 -0.264583,-0.61599 -0.665593,-0.61599 -0.124023,0 -0.214974,0.0248 -0.310058,0.0786 l -0.165365,0.0992 c -0.23151,0.13643 -0.330729,0.34727 -0.330729,0.68213 0,0.55811 0.28112,0.85163 0.802018,0.85163 0.202572,0 0.33073,-0.0331 0.558106,-0.14883 l 0.07441,-0.1695 -0.04134,-0.0537 c -0.165365,0.0909 -0.268718,0.12402 -0.409277,0.12402 -0.181902,0 -0.355534,-0.0992 -0.442351,-0.24805 -0.05788,-0.0992 -0.07855,-0.1819 -0.08682,-0.34726 h 0.463021 c 0.198437,0 0.355533,-0.0207 0.553971,-0.0703 z m -0.740007,0.0785 h -0.01653 c -0.02067,0 -0.115755,-0.004 -0.169499,-0.008 l -0.111621,-0.004 c 0.0124,-0.34726 0.09509,-0.48782 0.297656,-0.48782 0.202572,0 0.285254,0.14056 0.293522,0.48782 z m 2.189014,0.74827 -0.0248,-0.0661 c -0.07028,0.0331 -0.107487,0.0455 -0.16123,0.0455 -0.165365,0 -0.219108,-0.0579 -0.219108,-0.22738 v -0.83922 h 0.37207 l 0.02894,-0.22738 -0.401009,0.0207 v -0.20257 c 0,-0.18603 0.0083,-0.30179 0.04134,-0.47956 l -0.04961,-0.0331 c -0.14056,0.0662 -0.248047,0.10749 -0.429948,0.17363 0.0124,0.18191 0.01653,0.25218 0.01653,0.32246 v 0.21084 l -0.23151,0.15297 v 0.0786 l 0.223242,-0.0165 v 0.9095 c 0,0.3142 0.132291,0.44649 0.438216,0.44649 0.107487,0 0.194303,-0.0207 0.227376,-0.062 z m 0,0"
       style="fill:#cccc00;fill-opacity:1;fill-rule:nonzero;stroke:none;stroke-width:0.352778"
       aria-label="Det" />
    <path
       id="path119"
       d="m 22.240501,279.81754 v 1.01286 c 0,0.26045 0.115755,0.37207 0.388606,0.37207 0.07855,0 0.165365,-0.0165 0.186036,-0.0413 l 0.169498,-0.18604 -0.04547,-0.062 c -0.09095,0.0496 -0.14056,0.0703 -0.21084,0.0703 -0.136426,0 -0.190169,-0.0703 -0.190169,-0.24391 v -0.92191 h 0.450618 l 0.02894,-0.19017 -0.479557,0.0207 v -0.13229 c 0,-0.14883 0.0083,-0.27285 0.03721,-0.50023 l -0.04134,-0.0372 c -0.08682,0.0537 -0.190169,0.0992 -0.297656,0.13229 0.0083,0.10749 0.0124,0.17363 0.0124,0.28112 v 0.24391 l -0.272852,0.12402 v 0.0744 z m 0.826823,-0.97978 h 0.198437 c 0.06201,0 0.08682,0.0372 0.08682,0.14469 v 1.81901 c 0,0.22324 -0.0124,0.24805 -0.132291,0.25218 l -0.157097,0.0124 v 0.10749 c 0.239779,-0.008 0.334864,-0.0124 0.438217,-0.0124 0.09922,0 0.194303,0.004 0.434082,0.0124 v -0.10749 l -0.157097,-0.0124 c -0.119889,-0.004 -0.132291,-0.0289 -0.132291,-0.25218 v -0.74414 c 0,-0.1571 0.23151,-0.33073 0.446484,-0.33073 0.235644,0 0.392741,0.17777 0.392741,0.44649 v 1.00045 c 0.21084,-0.0124 0.214974,-0.0124 0.276985,-0.0124 0.04961,0 0.04961,0 0.289388,0.0124 v -0.10749 l -0.144694,-0.0124 c -0.119889,-0.004 -0.128157,-0.0248 -0.128157,-0.25218 v -0.67799 c 0,-0.40928 -0.194303,-0.61185 -0.587044,-0.61185 -0.128158,0 -0.202572,0.0248 -0.276986,0.091 l -0.268717,0.23151 v -1.19476 l -0.02894,-0.0289 c -0.157096,0.0579 -0.272852,0.0868 -0.549837,0.12816 z m 3.554304,2.07532 -0.04547,-0.0331 c -0.223242,0.13229 -0.305924,0.16536 -0.454752,0.16536 -0.227377,0 -0.417546,-0.10335 -0.516765,-0.27285 -0.06615,-0.11575 -0.09095,-0.21497 -0.09922,-0.42168 h 0.51263 c 0.243912,0 0.39274,-0.008 0.636653,-0.0455 0.0041,-0.0496 0.0083,-0.0827 0.0083,-0.12403 0,-0.40514 -0.260449,-0.66972 -0.65319,-0.66972 -0.132292,0 -0.28112,0.0455 -0.425814,0.13229 -0.289388,0.16536 -0.405143,0.38034 -0.405143,0.74827 0,0.21911 0.05374,0.40928 0.148828,0.54571 0.14056,0.18603 0.376205,0.29352 0.640788,0.29352 0.128157,0 0.256315,-0.0289 0.401009,-0.0909 0.09509,-0.0372 0.169499,-0.0868 0.181901,-0.10749 z m -0.272851,-0.69039 c -0.181901,0.008 -0.264583,0.0124 -0.392741,0.0124 -0.161231,0 -0.252181,-0.004 -0.44235,-0.0248 0,-0.16123 0.0124,-0.23978 0.05788,-0.33073 0.07441,-0.15709 0.227377,-0.25218 0.396875,-0.25218 0.115756,0 0.206706,0.0455 0.268718,0.14056 0.07855,0.11576 0.103352,0.21911 0.111621,0.45476 z m 0,0"
       style="fill:#ffffff;fill-opacity:1;fill-rule:nonzero;stroke:none;stroke-width:0.352778"
       aria-label="the" />
    <path
       id="path120"
       d="m 37.830245,230.70219 h -0.07441 c -0.03307,0 -0.148828,-0.004 -0.347266,-0.0124 v 0.13229 l 0.128158,0.008 c 0.157096,0.0165 0.169498,0.0372 0.169498,0.34313 v 1.43454 c 0,0.31006 -0.0124,0.33073 -0.169498,0.34726 l -0.128158,0.008 v 0.13229 c 0.334863,-0.0124 0.334863,-0.0124 0.405143,-0.0124 0.07028,0 0.231511,0.004 0.396875,0.0124 v -0.13229 l -0.128157,-0.008 c -0.157096,-0.0165 -0.169499,-0.0331 -0.169499,-0.34726 v -1.3808 l 1.14515,1.37666 c 0.09508,0.11576 0.181901,0.21084 0.429948,0.49196 l 0.289388,0.0455 0.0248,-0.0165 c -0.0083,-0.1943 -0.0124,-0.27285 -0.0124,-0.35553 v -1.59577 c 0,-0.30592 0.0124,-0.3266 0.169499,-0.34313 l 0.128157,-0.008 v -0.13229 l -0.401009,0.0124 c -0.03721,0 -0.09508,0 -0.401009,-0.0124 v 0.13229 l 0.128158,0.008 c 0.157096,0.0165 0.169498,0.0372 0.169498,0.34313 v 1.26504 l -1.09554,-1.28158 c -0.07441,-0.0827 -0.136426,-0.1695 -0.363802,-0.46715 z m 0,0"
       style="fill:#47478d;fill-opacity:1;fill-rule:nonzero;stroke:none;stroke-width:0.352778"
       aria-label="N" />
    <path
       id="path121"
       d="m 31.941199,279.81754 v 1.01286 c 0,0.26045 0.115756,0.37207 0.388607,0.37207 0.07855,0 0.165365,-0.0165 0.186035,-0.0413 l 0.169499,-0.18604 -0.04547,-0.062 c -0.09095,0.0496 -0.14056,0.0703 -0.21084,0.0703 -0.136426,0 -0.190169,-0.0703 -0.190169,-0.24391 v -0.92191 h 0.450618 l 0.02894,-0.19017 -0.479557,0.0207 v -0.13229 c 0,-0.14883 0.0083,-0.27285 0.03721,-0.50023 l -0.04134,-0.0372 c -0.08682,0.0537 -0.19017,0.0992 -0.297657,0.13229 0.0083,0.10749 0.0124,0.17363 0.0124,0.28112 v 0.24391 l -0.272852,0.12402 v 0.0744 z m 2.335775,1.09554 -0.04548,-0.0331 c -0.223242,0.13229 -0.305925,0.16536 -0.454753,0.16536 -0.227376,0 -0.417545,-0.10335 -0.516764,-0.27285 -0.06615,-0.11575 -0.09095,-0.21497 -0.09922,-0.42168 h 0.51263 c 0.243913,0 0.392741,-0.008 0.636654,-0.0455 0.0041,-0.0496 0.0083,-0.0827 0.0083,-0.12403 0,-0.40514 -0.260449,-0.66972 -0.65319,-0.66972 -0.132292,0 -0.28112,0.0455 -0.425814,0.13229 -0.289388,0.16536 -0.405143,0.38034 -0.405143,0.74827 0,0.21911 0.05374,0.40928 0.148828,0.54571 0.14056,0.18603 0.376204,0.29352 0.640788,0.29352 0.128157,0 0.256315,-0.0289 0.401009,-0.0909 0.09508,-0.0372 0.169499,-0.0868 0.181901,-0.10749 z m -0.272851,-0.69039 c -0.181902,0.008 -0.264584,0.0124 -0.392741,0.0124 -0.161231,0 -0.252181,-0.004 -0.442351,-0.0248 0,-0.16123 0.0124,-0.23978 0.05788,-0.33073 0.07441,-0.15709 0.227376,-0.25218 0.396875,-0.25218 0.115755,0 0.206706,0.0455 0.268717,0.14056 0.07855,0.11576 0.103353,0.21911 0.111622,0.45476 z m 0.505395,-1.38493 h 0.194303 c 0.06201,0 0.08682,0.0372 0.08682,0.14469 v 1.81901 c 0,0.22324 -0.0083,0.24805 -0.128158,0.25218 l -0.16123,0.0124 v 0.10749 c 0.351399,-0.0124 0.351399,-0.0124 0.438216,-0.0124 0.08682,0 0.08682,0 0.438216,0.0124 v -0.10749 l -0.16123,-0.0124 c -0.11989,-0.004 -0.128158,-0.0289 -0.128158,-0.25218 v -2.16214 l -0.03307,-0.0289 c -0.152962,0.0579 -0.268717,0.0868 -0.545703,0.12816 z m 2.474267,2.07532 -0.04547,-0.0331 c -0.223242,0.13229 -0.305924,0.16536 -0.454752,0.16536 -0.227377,0 -0.417546,-0.10335 -0.516765,-0.27285 -0.06615,-0.11575 -0.09095,-0.21497 -0.09922,-0.42168 h 0.51263 c 0.243912,0 0.392741,-0.008 0.636653,-0.0455 0.0041,-0.0496 0.0083,-0.0827 0.0083,-0.12403 0,-0.40514 -0.260449,-0.66972 -0.65319,-0.66972 -0.132292,0 -0.28112,0.0455 -0.425814,0.13229 -0.289387,0.16536 -0.405143,0.38034 -0.405143,0.74827 0,0.21911 0.05374,0.40928 0.148828,0.54571 0.14056,0.18603 0.376205,0.29352 0.640788,0.29352 0.128158,0 0.256315,-0.0289 0.401009,-0.0909 0.09508,-0.0372 0.169499,-0.0868 0.181901,-0.10749 z m -0.272851,-0.69039 c -0.181901,0.008 -0.264583,0.0124 -0.392741,0.0124 -0.161231,0 -0.252181,-0.004 -0.44235,-0.0248 0,-0.16123 0.0124,-0.23978 0.05788,-0.33073 0.07441,-0.15709 0.227377,-0.25218 0.396875,-0.25218 0.115756,0 0.206706,0.0455 0.268718,0.14056 0.07855,0.11576 0.103353,0.21911 0.111621,0.45476 z m 0.567407,0.43408 c 0,0.24391 -0.0124,0.3514 -0.03721,0.49196 0.181901,0.0579 0.318327,0.0827 0.479557,0.0827 0.458887,0 0.785482,-0.24805 0.785482,-0.59118 0,-0.10749 -0.02894,-0.19017 -0.09508,-0.26045 -0.09508,-0.0868 -0.21084,-0.12816 -0.516765,-0.19017 -0.289388,-0.0537 -0.384473,-0.12402 -0.384473,-0.28525 0,-0.17777 0.124024,-0.27699 0.338998,-0.27699 0.235645,0 0.413411,0.12403 0.413411,0.28939 v 0.0827 h 0.09922 c 0.0041,-0.2067 0.0041,-0.28938 0.01653,-0.39687 -0.186035,-0.0661 -0.314193,-0.091 -0.458887,-0.091 -0.405143,0 -0.657324,0.1943 -0.657324,0.51263 0,0.16536 0.07855,0.28525 0.239779,0.35967 0.09508,0.0413 0.281119,0.0992 0.520898,0.15296 0.157096,0.0331 0.223242,0.10749 0.223242,0.23978 0,0.19017 -0.173633,0.32659 -0.42168,0.32659 -0.256315,0 -0.44235,-0.12402 -0.44235,-0.30179 v -0.14469 z m 2.747119,-0.58705 c 0,-0.16123 0.01653,-0.30592 0.04961,-0.43408 -0.14056,-0.0827 -0.264584,-0.12402 -0.409278,-0.12402 -0.165365,0 -0.363802,0.0661 -0.574642,0.20257 -0.243912,0.15296 -0.376204,0.40101 -0.376204,0.70693 0,0.47543 0.334863,0.81029 0.806152,0.81029 0.181901,0 0.446484,-0.0661 0.479557,-0.11989 l 0.07441,-0.11162 -0.03307,-0.0537 c -0.132292,0.0703 -0.243913,0.10335 -0.372071,0.10335 -0.388606,0 -0.644922,-0.30179 -0.644922,-0.76895 0,-0.37207 0.173633,-0.58291 0.49196,-0.58291 0.152962,0 0.322461,0.0703 0.384473,0.1571 l 0.0248,0.21497 z m 1.137915,-0.5581 c -0.51263,0 -0.868164,0.3638 -0.868164,0.88883 0,0.49196 0.314193,0.83096 0.768945,0.83096 0.537435,0 0.926042,-0.37621 0.926042,-0.90124 0,-0.47542 -0.343132,-0.81855 -0.826823,-0.81855 z m -0.06201,0.11575 c 0.322461,0 0.56224,0.3514 0.56224,0.83096 0,0.40514 -0.177767,0.65732 -0.463021,0.65732 -0.347266,0 -0.578776,-0.33899 -0.578776,-0.83509 0,-0.42168 0.169499,-0.65319 0.479557,-0.65319 z m 1.038696,0.12816 h 0.128158 c 0.14056,0 0.152962,0.0248 0.152962,0.25632 v 1.7694 c 0,0.2191 -0.0083,0.24391 -0.128157,0.25218 l -0.161231,0.008 v 0.10748 c 0.3514,-0.0124 0.3514,-0.0124 0.438216,-0.0124 0.08682,0 0.08682,0 0.438217,0.0124 v -0.10748 l -0.161231,-0.008 c -0.119889,-0.008 -0.128157,-0.0331 -0.128157,-0.25218 v -0.6656 c 0.103352,0.062 0.214973,0.0868 0.376204,0.0868 0.09922,0 0.190169,-0.0207 0.248047,-0.0537 l 0.401009,-0.26045 c 0.14056,-0.091 0.305925,-0.45475 0.305925,-0.678 0,-0.39274 -0.322462,-0.69866 -0.731739,-0.69866 -0.128157,0 -0.256315,0.0372 -0.314193,0.091 l -0.285253,0.26045 v -0.33487 l -0.03307,-0.0165 c -0.177767,0.0744 -0.359668,0.12402 -0.545704,0.14469 z m 0.578777,0.33073 c 0,-0.0496 0.01653,-0.0868 0.06201,-0.14883 0.103353,-0.12816 0.248047,-0.1943 0.42168,-0.1943 0.330729,0 0.541569,0.23151 0.541569,0.59531 0,0.39274 -0.235644,0.68626 -0.549837,0.68626 -0.194304,0 -0.338998,-0.062 -0.475423,-0.2067 z m 3.030305,0.82682 -0.04548,-0.0331 c -0.223242,0.13229 -0.305924,0.16536 -0.454752,0.16536 -0.227377,0 -0.417546,-0.10335 -0.516765,-0.27285 -0.06614,-0.11575 -0.09095,-0.21497 -0.09922,-0.42168 h 0.51263 c 0.243913,0 0.392741,-0.008 0.636653,-0.0455 0.0041,-0.0496 0.0083,-0.0827 0.0083,-0.12403 0,-0.40514 -0.260449,-0.66972 -0.65319,-0.66972 -0.132291,0 -0.28112,0.0455 -0.425813,0.13229 -0.289389,0.16536 -0.405144,0.38034 -0.405144,0.74827 0,0.21911 0.05374,0.40928 0.148828,0.54571 0.14056,0.18603 0.376205,0.29352 0.640788,0.29352 0.128158,0 0.256315,-0.0289 0.401009,-0.0909 0.09509,-0.0372 0.169499,-0.0868 0.181901,-0.10749 z m -0.272851,-0.69039 c -0.181901,0.008 -0.264583,0.0124 -0.392741,0.0124 -0.16123,0 -0.252181,-0.004 -0.44235,-0.0248 0,-0.16123 0.0124,-0.23978 0.05788,-0.33073 0.07441,-0.15709 0.227376,-0.25218 0.396875,-0.25218 0.115755,0 0.206705,0.0455 0.268717,0.14056 0.07855,0.11576 0.103353,0.21911 0.111621,0.45476 z m 0,0"
       style="fill:#ffffff;fill-opacity:1;fill-rule:nonzero;stroke:none;stroke-width:0.352778"
       aria-label="telescope" />
    <path
       id="path122"
       d="m -31.938005,187.72314 -24.298267,4.61575"
       style="fill:none;stroke:#ffffff;stroke-width:0.140582;stroke-linecap:butt;stroke-linejoin:miter;stroke-miterlimit:10;stroke-dasharray:none;stroke-opacity:1" />
    <path
       id="path123"
       d="m -56.236272,199.74282 v 76.73389"
       style="fill:none;stroke:#ffffff;stroke-width:0.140582;stroke-linecap:butt;stroke-linejoin:miter;stroke-miterlimit:10;stroke-dasharray:none;stroke-opacity:1" />
    <path
       id="path124"
       d="m -31.938005,187.72314 24.2982632,4.61575"
       style="fill:none;stroke:#ffffff;stroke-width:0.140582;stroke-linecap:butt;stroke-linejoin:miter;stroke-miterlimit:10;stroke-dasharray:none;stroke-opacity:1" />
    <path
       id="path125"
       d="M -7.6397418,199.74282 -37.80011,204.35858"
       style="fill:none;stroke:#ffffff;stroke-width:0.140582;stroke-linecap:butt;stroke-linejoin:miter;stroke-miterlimit:10;stroke-dasharray:none;stroke-opacity:1" />
    <path
       id="path126"
       d="m -37.80011,211.76251 -9.991565,4.61576"
       style="fill:none;stroke:#ffffff;stroke-width:0.140582;stroke-linecap:butt;stroke-linejoin:miter;stroke-miterlimit:10;stroke-dasharray:none;stroke-opacity:1" />
    <path
       id="path127"
       d="m -47.791675,223.7822 v 52.69451"
       style="fill:none;stroke:#ffffff;stroke-width:0.140582;stroke-linecap:butt;stroke-linejoin:miter;stroke-miterlimit:10;stroke-dasharray:none;stroke-opacity:1" />
    <path
       id="path128"
       d="m -37.80011,211.76251 9.991563,4.61576"
       style="fill:none;stroke:#ffffff;stroke-width:0.140582;stroke-linecap:butt;stroke-linejoin:miter;stroke-miterlimit:10;stroke-dasharray:none;stroke-opacity:1" />
    <path
       id="path129"
       d="m -27.808547,223.7822 -9.693352,4.61576"
       style="fill:none;stroke:#ffffff;stroke-width:0.140582;stroke-linecap:butt;stroke-linejoin:miter;stroke-miterlimit:10;stroke-dasharray:none;stroke-opacity:1" />
    <path
       id="path130"
       d="m -37.501899,235.80189 v 40.67482"
       style="fill:none;stroke:#ffffff;stroke-width:0.140582;stroke-linecap:butt;stroke-linejoin:miter;stroke-miterlimit:10;stroke-dasharray:none;stroke-opacity:1" />
    <path
       id="path131"
       d="m -27.808547,223.7822 9.693352,4.61576"
       style="fill:none;stroke:#ffffff;stroke-width:0.140582;stroke-linecap:butt;stroke-linejoin:miter;stroke-miterlimit:10;stroke-dasharray:none;stroke-opacity:1" />
    <path
       id="path132"
       d="m -18.115195,235.80189 -8.669895,4.61575"
       style="fill:none;stroke:#ffffff;stroke-width:0.140582;stroke-linecap:butt;stroke-linejoin:miter;stroke-miterlimit:10;stroke-dasharray:none;stroke-opacity:1" />
    <path
       id="path133"
       d="m -26.78509,247.82157 v 28.65514"
       style="fill:none;stroke:#ffffff;stroke-width:0.140582;stroke-linecap:butt;stroke-linejoin:miter;stroke-miterlimit:10;stroke-dasharray:none;stroke-opacity:1" />
    <path
       id="path134"
       d="m -18.115195,235.80189 8.6698872,4.61575"
       style="fill:none;stroke:#ffffff;stroke-width:0.140582;stroke-linecap:butt;stroke-linejoin:miter;stroke-miterlimit:10;stroke-dasharray:none;stroke-opacity:1" />
    <path
       id="path135"
       d="m -9.4453078,247.82157 -7.0781122,4.61576"
       style="fill:none;stroke:#ffffff;stroke-width:0.140582;stroke-linecap:butt;stroke-linejoin:miter;stroke-miterlimit:10;stroke-dasharray:none;stroke-opacity:1" />
    <path
       id="path136"
       d="m -16.52342,259.84126 v 16.63545"
       style="fill:none;stroke:#ffffff;stroke-width:0.140582;stroke-linecap:butt;stroke-linejoin:miter;stroke-miterlimit:10;stroke-dasharray:none;stroke-opacity:1" />
    <path
       id="path137"
       d="m -9.4453078,247.82157 7.0781154,4.61576"
       style="fill:none;stroke:#ffffff;stroke-width:0.140582;stroke-linecap:butt;stroke-linejoin:miter;stroke-miterlimit:10;stroke-dasharray:none;stroke-opacity:1" />
    <path
       id="path138"
       d="m -2.3671924,259.84126 -4.9102925,4.61576"
       style="fill:none;stroke:#ffffff;stroke-width:0.140582;stroke-linecap:butt;stroke-linejoin:miter;stroke-miterlimit:10;stroke-dasharray:none;stroke-opacity:1" />
    <path
       id="path139"
       d="m -7.2774849,271.86095 v 4.61576"
       style="fill:none;stroke:#ffffff;stroke-width:0.140582;stroke-linecap:butt;stroke-linejoin:miter;stroke-miterlimit:10;stroke-dasharray:none;stroke-opacity:1" />
    <path
       id="path140"
       d="m -2.3671924,259.84126 4.9102889,4.61576"
       style="fill:none;stroke:#ffffff;stroke-width:0.140582;stroke-linecap:butt;stroke-linejoin:miter;stroke-miterlimit:10;stroke-dasharray:none;stroke-opacity:1" />
    <path
       id="path141"
       d="m 2.5430965,271.86095 v 4.61576"
       style="fill:none;stroke:#ffffff;stroke-width:0.140582;stroke-linecap:butt;stroke-linejoin:miter;stroke-miterlimit:10;stroke-dasharray:none;stroke-opacity:1" />
    <path
       id="path142"
       d="m -7.6397418,199.74282 30.1603678,4.61576"
       style="fill:none;stroke:#ffffff;stroke-width:0.140582;stroke-linecap:butt;stroke-linejoin:miter;stroke-miterlimit:10;stroke-dasharray:none;stroke-opacity:1" />
    <path
       id="path143"
       d="m 22.520626,211.76251 -9.021716,4.61576"
       style="fill:none;stroke:#ffffff;stroke-width:0.140582;stroke-linecap:butt;stroke-linejoin:miter;stroke-miterlimit:10;stroke-dasharray:none;stroke-opacity:1" />
    <path
       id="path144"
       d="m 13.49891,223.7822 v 52.69451"
       style="fill:none;stroke:#ffffff;stroke-width:0.140582;stroke-linecap:butt;stroke-linejoin:miter;stroke-miterlimit:10;stroke-dasharray:none;stroke-opacity:1" />
    <path
       id="path145"
       d="m 22.520626,211.76251 9.021705,4.61576"
       style="fill:none;stroke:#ffffff;stroke-width:0.140582;stroke-linecap:butt;stroke-linejoin:miter;stroke-miterlimit:10;stroke-dasharray:none;stroke-opacity:1" />
    <path
       id="path146"
       d="m 31.542331,223.7822 -7.207112,4.61576"
       style="fill:none;stroke:#ffffff;stroke-width:0.140582;stroke-linecap:butt;stroke-linejoin:miter;stroke-miterlimit:10;stroke-dasharray:none;stroke-opacity:1" />
    <path
       id="path147"
       d="m 24.335219,235.80189 v 40.67482"
       style="fill:none;stroke:#ffffff;stroke-width:0.140582;stroke-linecap:butt;stroke-linejoin:miter;stroke-miterlimit:10;stroke-dasharray:none;stroke-opacity:1" />
    <path
       id="path148"
       d="m 31.542331,223.7822 7.207109,4.61576"
       style="fill:none;stroke:#ffffff;stroke-width:0.140582;stroke-linecap:butt;stroke-linejoin:miter;stroke-miterlimit:10;stroke-dasharray:none;stroke-opacity:1" />
    <path
       id="path149"
       d="m 38.74944,235.80189 v 40.67482"
       style="fill:none;stroke:#ffffff;stroke-width:0.140582;stroke-linecap:butt;stroke-linejoin:miter;stroke-miterlimit:10;stroke-dasharray:none;stroke-opacity:1" />
  </g>
</svg>
