<?xml version="1.0" encoding="UTF-8" standalone="no"?>
<!-- Created with Inkscape (http://www.inkscape.org/) -->

<svg
   width="253.52118mm"
   height="129.19194mm"
   viewBox="0 0 253.52118 129.19194"
   version="1.1"
   id="svg8874"
   inkscape:version="1.2.2 (b0a8486541, 2022-12-01)"
   sodipodi:docname="rnn-unroll.svg"
   xmlns:inkscape="http://www.inkscape.org/namespaces/inkscape"
   xmlns:sodipodi="http://sodipodi.sourceforge.net/DTD/sodipodi-0.dtd"
   xmlns="http://www.w3.org/2000/svg"
   xmlns:svg="http://www.w3.org/2000/svg">
  <sodipodi:namedview
     id="namedview8876"
     pagecolor="#505050"
     bordercolor="#eeeeee"
     borderopacity="1"
     inkscape:showpageshadow="0"
     inkscape:pageopacity="0"
     inkscape:pagecheckerboard="0"
     inkscape:deskcolor="#505050"
     inkscape:document-units="mm"
     showgrid="false"
     inkscape:zoom="1.1389101"
     inkscape:cx="122.92454"
     inkscape:cy="354.28607"
     inkscape:window-width="1854"
     inkscape:window-height="965"
     inkscape:window-x="0"
     inkscape:window-y="0"
     inkscape:window-maximized="1"
     inkscape:current-layer="g1731" />
  <defs
     id="defs8871" />
  <g
     inkscape:label="Layer 1"
     inkscape:groupmode="layer"
     id="layer1"
     transform="translate(87.66435,-90.474827)">
    <g
       id="g1731"
       transform="translate(-464.07427,67.511648)">
      <path
         id="rect1663"
         style="fill:none;fill-opacity:0.2;stroke:#ffffff;stroke-width:0.264583;stroke-linejoin:round;stop-color:#000000"
         d="M 389.24011,23.09547 H 439.2988 V 46.18951 H 389.24011 Z" />
      <path
         id="rect1665"
         style="fill:none;fill-opacity:0.2;stroke:#ffffff;stroke-width:0.264583;stroke-linejoin:round;stop-color:#000000"
         d="m 389.24011,76.012138 h 50.05869 v 23.09404 h -50.05869 z" />
      <path
         id="rect1667"
         style="fill:none;fill-opacity:0.2;stroke:#00aaff;stroke-width:0.264583;stroke-linejoin:round;stop-color:#000000;stroke-opacity:1"
         d="m 389.24011,128.92879 h 50.05869 v 23.09404 h -50.05869 z" />
      <g
         aria-label="x0"
         id="text1679"
         style="font-size:19.05px;line-height:1.25;font-family:'Fairy Godmother DEMO';-inkscape-font-specification:'Fairy Godmother DEMO';text-align:end;letter-spacing:0px;word-spacing:0px;text-anchor:end;stroke-width:0.264583;fill:#00aaff;fill-opacity:1">
        <path
           d="m 405.62878,143.14507 q 0,-0.40005 0.24765,-0.70485 0.2667,-0.3048 0.66675,-0.3048 0.28575,0 0.4572,0.1905 0.1905,0.17145 0.1905,0.43815 0,0.6477 -0.74295,0.89535 0.43815,0.24765 0.8382,0.24765 0.3048,0 0.55245,-0.13335 0.2667,-0.13335 0.47625,-0.43815 0.20955,-0.3048 0.3429,-0.59055 0.1524,-0.3048 0.3048,-0.85725 0.17145,-0.5715 0.2667,-0.9525 0.0953,-0.381 0.2667,-1.1049 0.17145,-0.74295 0.2667,-1.16205 0.2286,-1.00965 0.2286,-1.2954 0,-0.55245 -0.2667,-0.8763 -0.24765,-0.3429 -0.66675,-0.3429 -0.6477,0 -1.2573,0.62865 -0.59055,0.6096 -0.93345,1.58115 -0.019,0.0381 -0.0381,0.1143 -0.019,0.0762 -0.0381,0.1143 -0.0191,0.019 -0.0572,0.0952 -0.019,0.0572 -0.0571,0.0953 -0.0381,0.019 -0.0953,0.0381 -0.0381,0.019 -0.1143,0.019 -0.2667,0 -0.2667,-0.24765 0,-0.3048 0.3048,-0.9525 0.32385,-0.6477 1.0287,-1.27635 0.7239,-0.6477 1.58115,-0.6477 h 0.019 q 1.27635,0.019 1.8288,1.31445 0.7239,-1.31445 1.8669,-1.31445 0.59055,0 1.1049,0.3048 0.5334,0.3048 0.5334,0.89535 0,0.43815 -0.28575,0.7239 -0.28575,0.28575 -0.6477,0.28575 -0.2667,0 -0.4572,-0.17145 -0.17145,-0.17145 -0.17145,-0.43815 0,-0.28575 0.1905,-0.5334 0.1905,-0.2667 0.5334,-0.36195 -0.36195,-0.2667 -0.81915,-0.2667 -0.24765,0 -0.4953,0.1143 -0.24765,0.0952 -0.62865,0.62865 -0.36195,0.5334 -0.59055,1.4478 -0.17145,0.66675 -0.3429,1.35255 -0.1524,0.6858 -0.24765,1.0287 -0.0762,0.32385 -0.17145,0.6858 -0.0953,0.36195 -0.13335,0.51435 -0.019,0.1524 -0.0572,0.32385 -0.019,0.17145 -0.0381,0.2667 0,0.0762 0,0.20955 0,0.51435 0.24765,0.85725 0.24765,0.32385 0.6858,0.32385 0.6477,0 1.2573,-0.6096 0.6096,-0.62865 0.93345,-1.6002 0.019,-0.0381 0.0381,-0.1143 0.0381,-0.0762 0.0381,-0.1143 0.019,-0.0381 0.0381,-0.0952 0.0381,-0.0572 0.0762,-0.0762 0.0381,-0.0381 0.0762,-0.0572 0.0572,-0.019 0.13335,-0.019 0.2667,0 0.2667,0.24765 0,0.3048 -0.32385,0.9525 -0.3048,0.6477 -1.0287,1.2954 -0.7239,0.62865 -1.5621,0.62865 -0.5334,0 -1.04775,-0.28575 -0.51435,-0.3048 -0.78105,-1.00965 -0.24765,0.36195 -0.43815,0.59055 -0.17145,0.20955 -0.59055,0.4572 -0.40005,0.24765 -0.85725,0.24765 -0.62865,0 -1.143,-0.3048 -0.4953,-0.32385 -0.4953,-0.89535 z"
           style="font-family:'CMU Classical Serif';-inkscape-font-specification:'CMU Classical Serif';fill:#00aaff;fill-opacity:1"
           id="path13895" />
        <path
           d="m 414.89471,146.10067 q 0,-0.55721 0.17336,-1.52304 0.18574,-0.97822 0.66865,-2.21647 0.4953,-1.23825 1.15158,-1.86976 0.81724,-0.79248 1.78308,-0.79248 0.28479,0 0.54483,0.0867 0.26003,0.0743 0.52006,0.2848 0.27242,0.2105 0.43339,0.66865 0.16097,0.44577 0.16097,1.08966 0,0.35909 -0.0991,1.02775 -0.0991,0.65627 -0.37147,1.60972 -0.27242,0.95346 -0.66866,1.7707 -0.39624,0.81725 -1.08966,1.39922 -0.69342,0.58198 -1.54781,0.58198 -0.29718,0 -0.55721,-0.0867 -0.24765,-0.0743 -0.52007,-0.28479 -0.26003,-0.21051 -0.421,-0.65628 -0.16098,-0.44577 -0.16098,-1.08966 z m 0.79248,0.64389 q 0,0.63151 0.2848,0.91631 0.2848,0.27241 0.65627,0.27241 0.19812,0 0.43339,-0.0743 0.24765,-0.0867 0.58198,-0.39624 0.33433,-0.32195 0.55721,-0.81725 0.33433,-0.73056 0.84201,-2.74891 0.52007,-2.01835 0.52007,-2.74892 0,-0.54483 -0.27242,-0.85439 -0.26003,-0.32194 -0.69342,-0.32194 -0.68104,0 -1.25063,0.74295 -0.4953,0.6315 -1.05251,2.87274 -0.60675,2.42697 -0.60675,3.15753 z"
           style="font-size:65%;baseline-shift:sub;fill:#00aaff;fill-opacity:1"
           id="path13897" />
      </g>
      <g
         aria-label="h0"
         id="text1685"
         style="font-size:19.05px;line-height:1.25;font-family:'Fairy Godmother DEMO';-inkscape-font-specification:'Fairy Godmother DEMO';text-align:end;letter-spacing:0px;word-spacing:0px;text-anchor:end;stroke-width:0.264583;fill:#ffffff">
        <path
           d="m 405.15255,90.914187 q 0,-0.1143 0.20955,-0.9906 l 2.53365,-10.11555 q 0.1143,-0.43815 0.1143,-0.6477 0,-0.3048 -0.3429,-0.32385 -0.32385,-0.0381 -0.66675,-0.0381 -0.3429,-0.01905 -0.3429,-0.2667 0,-0.2286 0.2667,-0.3048 0.28575,-0.0762 1.1049,-0.13335 0.47625,-0.0381 0.78105,-0.05715 0.2667,-0.0381 0.381,-0.0381 0.3048,0 0.3048,0.24765 0,0.1143 -0.24765,1.12395 -0.24765,0.9906 -0.62865,2.4765 -0.381,1.46685 -0.55245,2.22885 1.16205,-1.27635 2.53365,-1.27635 h 0.019 q 0.8001,0 1.39065,0.4572 0.6096,0.4572 0.6096,1.524 0,0.9525 -0.762,3.10515 -0.74295,2.15265 -0.74295,2.57175 0,0.5334 0.43815,0.5334 1.0668,0 1.69545,-2.22885 0.0762,-0.3048 0.20955,-0.40005 0.13335,-0.09525 0.28575,-0.0381 0.1524,0.05715 0.1524,0.2286 0,0.1143 -0.1524,0.5334 -0.13335,0.4191 -0.40005,0.97155 -0.2667,0.5334 -0.78105,0.9525 -0.4953,0.4191 -1.08585,0.4191 -0.62865,0 -1.0287,-0.4191 -0.40005,-0.43815 -0.40005,-1.1049 0,-0.381 0.70485,-2.4003 0.70485,-2.03835 0.70485,-3.02895 0,-1.23825 -0.89535,-1.23825 -0.6096,0 -1.16205,0.3429 -0.55245,0.32385 -0.9144,0.8382 -0.36195,0.4953 -0.55245,0.8382 -0.1905,0.32385 -0.28575,0.55245 l -1.16205,4.62915 q -0.2286,0.9906 -0.81915,0.9906 -0.20955,0 -0.36195,-0.1524 -0.1524,-0.13335 -0.1524,-0.36195 z"
           style="font-family:'CMU Classical Serif';-inkscape-font-specification:'CMU Classical Serif';fill:#ffffff"
           id="path13890" />
        <path
           d="m 414.89471,93.183994 q 0,-0.557212 0.17336,-1.523047 0.18574,-0.978218 0.66865,-2.216467 0.4953,-1.23825 1.15158,-1.869758 0.81724,-0.79248 1.78308,-0.79248 0.28479,0 0.54483,0.08668 0.26003,0.07429 0.52006,0.284797 0.27242,0.210503 0.43339,0.668655 0.16097,0.44577 0.16097,1.08966 0,0.359093 -0.0991,1.027747 -0.0991,0.656273 -0.37147,1.609725 -0.27242,0.953453 -0.66866,1.770698 -0.39624,0.817245 -1.08966,1.399222 -0.69342,0.581977 -1.54781,0.581977 -0.29718,0 -0.55721,-0.08668 -0.24765,-0.0743 -0.52007,-0.284798 -0.26003,-0.210502 -0.421,-0.656272 -0.16098,-0.44577 -0.16098,-1.08966 z m 0.79248,0.64389 q 0,0.631508 0.2848,0.916305 0.2848,0.272415 0.65627,0.272415 0.19812,0 0.43339,-0.0743 0.24765,-0.08668 0.58198,-0.39624 0.33433,-0.321945 0.55721,-0.817245 0.33433,-0.730567 0.84201,-2.748915 0.52007,-2.018347 0.52007,-2.748914 0,-0.54483 -0.27242,-0.854393 -0.26003,-0.321945 -0.69342,-0.321945 -0.68104,0 -1.25063,0.74295 -0.4953,0.631508 -1.05251,2.87274 -0.60675,2.42697 -0.60675,3.157537 z"
           style="font-size:65%;baseline-shift:sub;fill:#ffffff"
           id="path13892" />
      </g>
      <g
         aria-label="y0"
         id="text1691"
         style="font-size:19.05px;line-height:1.25;font-family:'Fairy Godmother DEMO';-inkscape-font-specification:'Fairy Godmother DEMO';text-align:end;letter-spacing:0px;word-spacing:0px;text-anchor:end;stroke-width:0.264583;fill:#ffffff">
        <path
           d="m 406.08598,40.569272 q 0,-0.59055 0.28575,-0.89535 0.3048,-0.28575 0.66675,-0.28575 0.28575,0 0.4572,0.17145 0.1905,0.17145 0.1905,0.43815 0,0.28575 -0.2286,0.59055 -0.20955,0.3048 -0.74295,0.32385 0.32385,0.8763 1.20015,0.8763 0.85725,0 1.61925,-0.81915 0.762,-0.8001 1.2192,-2.2098 0.0953,-0.3048 0.24765,-0.9525 -0.8382,0.70485 -1.7145,0.70485 -0.85725,0 -1.50495,-0.4953 -0.62865,-0.4953 -0.62865,-1.69545 0,-0.62865 0.3048,-1.847849 0.32385,-1.23825 0.62865,-2.22885 0.32385,-1.00965 0.32385,-1.08585 0,-0.1905 -0.2667,-0.2286 -0.24765,-0.05715 -0.5715,-0.05715 -0.32385,0 -0.40005,-0.05715 -0.17145,-0.1143 -0.0381,-0.36195 0.0952,-0.1524 0.4191,-0.1905 1.905,-0.17145 2.11455,-0.17145 h 0.019 q 0.28575,0 0.28575,0.24765 0,0.17145 -0.2286,1.08585 -0.13335,0.4191 -0.3048,0.51435 -1.12395,3.771899 -1.12395,4.705349 0,1.42875 1.04775,1.42875 0.6477,0 1.20015,-0.4953 0.55245,-0.4953 0.7239,-0.93345 0.0381,-0.1143 0.0762,-0.3048 0.0572,-0.20955 0.0762,-0.28575 l 1.2573,-4.972049 0.019,-0.09525 q 0.019,-0.09525 0.0381,-0.1524 0.019,-0.0762 0.0571,-0.1905 0.0381,-0.1143 0.0953,-0.1905 0.0762,-0.09525 0.1524,-0.17145 0.0762,-0.0762 0.1905,-0.1143 0.1143,-0.05715 0.24765,-0.05715 0.20955,0 0.36195,0.1524 0.1524,0.13335 0.1524,0.36195 0,0.05715 -0.0381,0.17145 -0.0191,0.1143 -0.0191,0.13335 l -1.7526,7.029449 q -0.2667,1.04775 -0.7239,1.84785 -0.4572,0.81915 -0.93345,1.2573 -0.47625,0.43815 -1.0287,0.7239 -0.5334,0.28575 -0.9144,0.36195 -0.36195,0.0762 -0.6858,0.0762 -0.8001,0 -1.31445,-0.4572 -0.51435,-0.4572 -0.51435,-1.20015 z"
           style="font-family:'CMU Classical Serif';-inkscape-font-specification:'CMU Classical Serif';fill:#ffffff"
           id="path13885" />
        <path
           d="m 414.89471,40.26733 q 0,-0.557212 0.17336,-1.523047 0.18574,-0.978218 0.66865,-2.216468 0.4953,-1.238249 1.15158,-1.869757 0.81724,-0.79248 1.78308,-0.79248 0.28479,0 0.54483,0.08668 0.26003,0.07429 0.52006,0.284797 0.27242,0.210503 0.43339,0.668655 0.16097,0.44577 0.16097,1.08966 0,0.359092 -0.0991,1.027747 -0.0991,0.656273 -0.37147,1.609725 -0.27242,0.953453 -0.66866,1.770698 -0.39624,0.817244 -1.08966,1.399222 -0.69342,0.581977 -1.54781,0.581977 -0.29718,0 -0.55721,-0.08668 -0.24765,-0.07429 -0.52007,-0.284798 -0.26003,-0.210502 -0.421,-0.656272 -0.16098,-0.44577 -0.16098,-1.08966 z m 0.79248,0.64389 q 0,0.631507 0.2848,0.916305 0.2848,0.272415 0.65627,0.272415 0.19812,0 0.43339,-0.07429 0.24765,-0.08668 0.58198,-0.39624 0.33433,-0.321945 0.55721,-0.817245 0.33433,-0.730567 0.84201,-2.748915 0.52007,-2.018347 0.52007,-2.748914 0,-0.54483 -0.27242,-0.854393 -0.26003,-0.321945 -0.69342,-0.321945 -0.68104,0 -1.25063,0.74295 -0.4953,0.631508 -1.05251,2.87274 -0.60675,2.42697 -0.60675,3.157537 z"
           style="font-size:65%;baseline-shift:sub;fill:#ffffff"
           id="path13887" />
      </g>
      <g
         aria-label="w2"
         id="text1697"
         style="font-size:19.05px;line-height:1.25;font-family:'Fairy Godmother DEMO';-inkscape-font-specification:'Fairy Godmother DEMO';text-align:end;letter-spacing:0px;word-spacing:0px;text-anchor:end;stroke-width:0.264583;fill:#ffffff">
        <path
           d="m 448.66483,78.250173 q 0,-0.13335 0.0381,-0.1905 0.0572,-0.0762 0.1905,-0.1143 0.1524,-0.0381 0.28575,-0.05715 0.13335,-0.01905 0.43815,-0.0381 0.3048,-0.01905 0.55245,-0.05715 0.0381,0 0.20955,-0.0381 0.1905,-0.05715 0.55245,-0.05715 h 0.20955 q 0.4191,0 0.4191,0.2667 -0.1905,1.3716 -0.5334,1.6002 -1.0668,3.5433 -1.0668,4.514849 0,0.89535 0.40005,1.2573 0.40005,0.3429 0.8763,0.3429 0.4572,0 0.8382,-0.40005 0.40005,-0.40005 0.55245,-0.7239 0.1524,-0.3429 0.1905,-0.51435 0.019,-0.0762 0.0381,-0.43815 0.019,-0.381 0.1143,-0.781049 0.1905,-0.8382 1.04775,-4.2291 0.2286,-0.8763 0.81915,-0.8763 0.2286,0 0.381,0.1524 0.1524,0.1524 0.1524,0.381 0,0.17145 -0.6477,2.68605 -0.6477,2.495549 -0.6477,3.200399 0,0.81915 0.3429,1.1811 0.3429,0.36195 0.85725,0.36195 0.43815,0 0.81915,-0.2667 0.381,-0.2667 0.62865,-0.62865 0.2667,-0.36195 0.4953,-0.9525 0.24765,-0.59055 0.36195,-0.990599 0.1143,-0.40005 0.2667,-0.9906 0.2667,-1.0668 0.2667,-1.4859 0,-0.74295 -0.381,-1.2954 -0.36195,-0.55245 -0.36195,-0.70485 0,-0.28575 0.2667,-0.5715 0.28575,-0.28575 0.62865,-0.28575 0.3048,0 0.55245,0.3048 0.24765,0.3048 0.24765,1.0287 0,0.70485 -0.40005,2.3241 -0.381,1.6002 -0.74295,2.514599 -0.97155,2.49555 -2.7051,2.49555 -1.6002,0 -2.15265,-1.20015 -0.40005,0.59055 -0.8001,0.89535 -0.40005,0.28575 -1.0668,0.28575 -0.9525,0 -1.7145,-0.5334 -0.762,-0.55245 -0.762,-1.80975 0,-0.55245 0.3048,-1.771649 0.3048,-1.23825 0.6096,-2.2479 0.32385,-1.00965 0.32385,-1.0287 0,-0.2286 -0.6477,-0.24765 -0.6477,-0.01905 -0.6477,-0.2667 z"
           style="font-family:'CMU Classical Serif';-inkscape-font-specification:'CMU Classical Serif';fill:#ffffff"
           id="path13880" />
        <path
           d="m 459.4776,89.848765 q 0,-0.173355 0.17335,-0.606743 0.17336,-0.433387 0.69342,-1.114425 0.52007,-0.681037 1.25064,-1.151572 0.0124,0 0.39624,-0.235267 0.39624,-0.24765 0.60674,-0.39624 0.2105,-0.14859 0.59436,-0.507683 0.39624,-0.359092 0.60674,-0.705802 0.2105,-0.34671 0.38386,-0.879158 0.18574,-0.54483 0.18574,-1.139189 0,-0.619125 -0.29718,-0.978218 -0.29718,-0.371475 -0.79248,-0.371475 -0.66866,0 -1.26302,0.619125 -0.59436,0.606743 -0.89154,1.324927 -0.2848,0.705803 -0.2848,1.18872 0,0.39624 0.2848,0.39624 0.44577,0 0.81725,-0.606742 0.37147,-0.619125 0.37147,-1.052513 0,-0.136207 -0.0619,-0.321945 -0.0619,-0.185737 -0.0619,-0.210502 0,-0.04953 0.0371,-0.08668 0.0495,-0.04953 0.11145,-0.03715 0.0991,0.02477 0.17335,0.222885 0.0743,0.19812 0.0743,0.421005 0,0.54483 -0.43339,1.250632 -0.43339,0.705803 -1.05251,0.705803 -0.30957,0 -0.47054,-0.210503 -0.16097,-0.222885 -0.16097,-0.557212 0,-0.359093 0.19812,-0.89154 0.19812,-0.54483 0.53245,-1.08966 0.34671,-0.557212 0.90392,-0.94107 0.56959,-0.39624 1.21348,-0.39624 0.84201,0 1.38684,0.581978 0.54483,0.581977 0.54483,1.498282 0,0.978217 -0.60674,1.696402 -0.60674,0.718185 -2.11741,1.58496 -0.0248,0.01238 -0.19812,0.111443 -0.16097,0.09906 -0.2105,0.136207 -0.0495,0.02477 -0.22288,0.123825 -0.16098,0.09906 -0.23527,0.14859 -0.0619,0.04953 -0.22289,0.160973 -0.14859,0.111442 -0.23526,0.19812 -0.0867,0.08668 -0.22289,0.222885 -0.13621,0.123824 -0.23527,0.247649 -0.0991,0.123825 -0.22288,0.284798 -0.11144,0.160972 -0.2105,0.334327 0.14859,-0.03715 0.29718,-0.03715 0.38385,0 1.16395,0.185737 0.7801,0.173355 1.15157,0.173355 0.29718,0 0.54483,-0.123825 0.26004,-0.136207 0.42101,-0.334327 0.17335,-0.210503 0.27241,-0.371475 0.0991,-0.160973 0.16098,-0.309562 0.0371,-0.07429 0.0743,-0.173355 0.0372,-0.111443 0.0495,-0.136208 0.0124,-0.03715 0.0495,-0.06191 0.0495,-0.03715 0.12383,-0.03715 0.17335,0 0.17335,0.160973 0,0.136207 -0.13621,0.482917 -0.12382,0.334327 -0.34671,0.74295 -0.22288,0.408622 -0.6315,0.718185 -0.40863,0.309562 -0.86678,0.309562 -0.4953,0 -1.18872,-0.470535 -0.68104,-0.470535 -1.05251,-0.470535 -0.2105,0 -0.35909,0.14859 -0.11145,0.111443 -0.19812,0.272415 -0.0743,0.14859 -0.11145,0.24765 -0.0248,0.111443 -0.0867,0.185738 -0.0619,0.08668 -0.16098,0.08668 -0.17335,0 -0.17335,-0.160972 z"
           style="font-size:65%;baseline-shift:sub;fill:#ffffff"
           id="path13882" />
      </g>
      <g
         aria-label="w1"
         id="text1703"
         style="font-size:19.05px;line-height:1.25;font-family:'Fairy Godmother DEMO';-inkscape-font-specification:'Fairy Godmother DEMO';text-align:end;letter-spacing:0px;word-spacing:0px;text-anchor:end;stroke-width:0.264583;fill:#ffffff">
        <path
           d="m 412.68149,112.11681 q 0,-0.13335 0.0381,-0.1905 0.0572,-0.0762 0.1905,-0.1143 0.1524,-0.0381 0.28575,-0.0572 0.13335,-0.019 0.43815,-0.0381 0.3048,-0.019 0.55245,-0.0571 0.0381,0 0.20955,-0.0381 0.1905,-0.0572 0.55245,-0.0572 h 0.20955 q 0.4191,0 0.4191,0.2667 -0.1905,1.3716 -0.5334,1.6002 -1.0668,3.5433 -1.0668,4.51485 0,0.89535 0.40005,1.2573 0.40005,0.3429 0.8763,0.3429 0.4572,0 0.8382,-0.40005 0.40005,-0.40005 0.55245,-0.7239 0.1524,-0.3429 0.1905,-0.51435 0.019,-0.0762 0.0381,-0.43815 0.019,-0.381 0.1143,-0.78105 0.1905,-0.8382 1.04775,-4.2291 0.2286,-0.8763 0.81915,-0.8763 0.2286,0 0.381,0.1524 0.1524,0.1524 0.1524,0.381 0,0.17145 -0.6477,2.68605 -0.6477,2.49555 -0.6477,3.2004 0,0.81915 0.3429,1.1811 0.3429,0.36195 0.85725,0.36195 0.43815,0 0.81915,-0.2667 0.381,-0.2667 0.62865,-0.62865 0.2667,-0.36195 0.4953,-0.9525 0.24765,-0.59055 0.36195,-0.9906 0.1143,-0.40005 0.2667,-0.9906 0.2667,-1.0668 0.2667,-1.4859 0,-0.74295 -0.381,-1.2954 -0.36195,-0.55245 -0.36195,-0.70485 0,-0.28575 0.2667,-0.5715 0.28575,-0.28575 0.62865,-0.28575 0.3048,0 0.55245,0.3048 0.24765,0.3048 0.24765,1.0287 0,0.70485 -0.40005,2.3241 -0.381,1.6002 -0.74295,2.5146 -0.97155,2.49555 -2.7051,2.49555 -1.6002,0 -2.15265,-1.20015 -0.40005,0.59055 -0.8001,0.89535 -0.40005,0.28575 -1.0668,0.28575 -0.9525,0 -1.7145,-0.5334 -0.762,-0.55245 -0.762,-1.80975 0,-0.55245 0.3048,-1.77165 0.3048,-1.23825 0.6096,-2.2479 0.32385,-1.00965 0.32385,-1.0287 0,-0.2286 -0.6477,-0.24765 -0.6477,-0.0191 -0.6477,-0.2667 z"
           style="font-family:'CMU Classical Serif';-inkscape-font-specification:'CMU Classical Serif';fill:#ffffff"
           id="path13875" />
        <path
           d="m 423.91527,123.44299 q 0,-0.22289 0.30956,-0.22289 h 0.12382 q 0.73057,-0.0124 0.90393,-0.12382 0.17335,-0.11144 0.28479,-0.5696 l 1.43637,-5.69595 q -0.76771,0.4953 -1.31254,0.4953 -0.19812,0 -0.23527,-0.0991 -0.0371,-0.11144 0.0371,-0.2105 0.0495,-0.0619 0.26003,-0.0867 0.2105,-0.0371 0.47054,-0.0991 0.26003,-0.0619 0.7058,-0.39624 0.44577,-0.34671 0.9163,-0.94107 0.0991,-0.12382 0.18574,-0.12382 0.13621,0 0.13621,0.16097 0,0.0619 -0.0248,0.16097 l -1.75831,7.0085 q -0.0371,0.16097 -0.0371,0.26003 0,0.26003 0.63151,0.26003 0.0371,0 0.11144,0 0.0743,-0.0124 0.11144,-0.0124 0.26004,0 0.34671,0.0495 0.13621,0.0991 0.0248,0.26003 -0.0619,0.0867 -0.2105,0.0867 -0.0495,0 -0.24765,-0.0124 -0.19812,-0.0124 -0.55722,-0.0124 -0.35909,-0.0124 -0.78009,-0.0124 -0.42101,0 -0.79248,0.0124 -0.3591,0 -0.5696,0.0124 -0.19812,0.0124 -0.24765,0.0124 -0.22288,0 -0.22288,-0.16097 z"
           style="font-size:65%;baseline-shift:sub;fill:#ffffff"
           id="path13877" />
      </g>
      <g
         aria-label="w3"
         id="text1709"
         style="font-size:19.05px;line-height:1.25;font-family:'Fairy Godmother DEMO';-inkscape-font-specification:'Fairy Godmother DEMO';text-align:end;letter-spacing:0px;word-spacing:0px;text-anchor:end;stroke-width:0.264583;fill:#ffffff">
        <path
           d="m 412.68149,59.20017 q 0,-0.13335 0.0381,-0.1905 0.0572,-0.0762 0.1905,-0.1143 0.1524,-0.0381 0.28575,-0.05715 0.13335,-0.01905 0.43815,-0.0381 0.3048,-0.01905 0.55245,-0.05715 0.0381,0 0.20955,-0.0381 0.1905,-0.05715 0.55245,-0.05715 h 0.20955 q 0.4191,0 0.4191,0.2667 -0.1905,1.3716 -0.5334,1.6002 -1.0668,3.543299 -1.0668,4.514849 0,0.89535 0.40005,1.2573 0.40005,0.3429 0.8763,0.3429 0.4572,0 0.8382,-0.40005 0.40005,-0.40005 0.55245,-0.7239 0.1524,-0.3429 0.1905,-0.51435 0.019,-0.0762 0.0381,-0.43815 0.019,-0.381 0.1143,-0.78105 0.1905,-0.8382 1.04775,-4.229099 0.2286,-0.8763 0.81915,-0.8763 0.2286,0 0.381,0.1524 0.1524,0.1524 0.1524,0.381 0,0.17145 -0.6477,2.68605 -0.6477,2.495549 -0.6477,3.200399 0,0.81915 0.3429,1.1811 0.3429,0.36195 0.85725,0.36195 0.43815,0 0.81915,-0.2667 0.381,-0.2667 0.62865,-0.62865 0.2667,-0.36195 0.4953,-0.9525 0.24765,-0.59055 0.36195,-0.9906 0.1143,-0.40005 0.2667,-0.9906 0.2667,-1.066799 0.2667,-1.485899 0,-0.74295 -0.381,-1.2954 -0.36195,-0.55245 -0.36195,-0.70485 0,-0.28575 0.2667,-0.5715 0.28575,-0.28575 0.62865,-0.28575 0.3048,0 0.55245,0.3048 0.24765,0.3048 0.24765,1.0287 0,0.70485 -0.40005,2.3241 -0.381,1.600199 -0.74295,2.514599 -0.97155,2.49555 -2.7051,2.49555 -1.6002,0 -2.15265,-1.20015 -0.40005,0.59055 -0.8001,0.89535 -0.40005,0.28575 -1.0668,0.28575 -0.9525,0 -1.7145,-0.5334 -0.762,-0.55245 -0.762,-1.80975 0,-0.55245 0.3048,-1.77165 0.3048,-1.238249 0.6096,-2.247899 0.32385,-1.00965 0.32385,-1.0287 0,-0.2286 -0.6477,-0.24765 -0.6477,-0.01905 -0.6477,-0.2667 z"
           style="font-family:'CMU Classical Serif';-inkscape-font-specification:'CMU Classical Serif';fill:#ffffff"
           id="path13870" />
        <path
           d="m 423.61809,69.374774 q 0,-0.532447 0.18574,-0.74295 0.19811,-0.210502 0.45815,-0.210502 0.19812,0 0.30956,0.111442 0.11144,0.111443 0.11144,0.284798 0,0.19812 -0.16097,0.39624 -0.14859,0.19812 -0.4953,0.19812 h -0.0248 q 0.0248,0.4953 0.26004,0.804862 0.24765,0.29718 0.48291,0.383858 0.24765,0.0743 0.50769,0.0743 0.52006,0 1.00298,-0.309563 0.4953,-0.321945 0.76771,-0.829627 0.22289,-0.421005 0.34671,-0.965835 0.12383,-0.54483 0.12383,-0.817245 0,-1.027747 -0.9906,-1.027747 h -0.35909 q -0.26004,0 -0.26004,-0.160973 0,-0.222885 0.30957,-0.222885 0.0248,0 0.0743,0.01238 0.0495,0 0.0743,0 h 0.1362 q 0.55722,0 0.97822,-0.235268 0.43339,-0.235267 0.64389,-0.54483 0.22289,-0.321945 0.35909,-0.718185 0.13621,-0.39624 0.16098,-0.631507 0.0371,-0.24765 0.0371,-0.408623 0,-0.520064 -0.29718,-0.804862 -0.28479,-0.29718 -0.75533,-0.29718 -0.87916,0 -1.60972,0.69342 -0.71819,0.681037 -0.71819,1.423987 0,0.470535 0.34671,0.470535 0.23527,0 0.47054,-0.222885 0.24765,-0.222885 0.24765,-0.532447 0,-0.123825 -0.0743,-0.284798 -0.0619,-0.160972 -0.0619,-0.210502 0,-0.123825 0.12382,-0.123825 0.0867,0 0.18574,0.185737 0.11144,0.185738 0.11144,0.421005 0,0.421005 -0.32194,0.730568 -0.32195,0.309562 -0.71819,0.309562 -0.30956,0 -0.4953,-0.210502 -0.18573,-0.222885 -0.18573,-0.569595 0,-0.829628 0.82962,-1.597342 0.82963,-0.767715 1.90691,-0.767715 0.74295,0 1.25063,0.458152 0.52007,0.44577 0.52007,1.213485 0,0.74295 -0.52007,1.43637 -0.52006,0.681037 -1.4859,1.064895 0.43339,0.19812 0.7058,0.606742 0.27242,0.408623 0.27242,0.965835 0,1.114425 -0.97822,1.956435 -0.96583,0.829627 -2.12979,0.829627 -0.74295,0 -1.2011,-0.433387 -0.45815,-0.44577 -0.45815,-1.151573 z"
           style="font-size:65%;baseline-shift:sub;fill:#ffffff"
           id="path13872" />
      </g>
      <g
         aria-label="b1"
         id="text1715"
         style="font-size:12.192px;line-height:1.25;font-family:'Fairy Godmother DEMO';-inkscape-font-specification:'Fairy Godmother DEMO';text-align:end;letter-spacing:0px;word-spacing:0px;text-anchor:end;stroke-width:0.264583;fill:#ffffff">
        <path
           d="m 380.65311,116.39329 q 0,-0.42672 0.18288,-1.15824 l 1.12166,-4.51104 q 0.061,-0.21946 0.061,-0.317 0,-0.21945 -0.43891,-0.21945 -0.43891,-0.0122 -0.43891,-0.18288 0,-0.061 0.0244,-0.0975 0.0244,-0.0366 0.0488,-0.061 0.0244,-0.0244 0.0731,-0.0366 0.0488,-0.0244 0.0731,-0.0244 0.0244,0 0.0731,0 0.061,-0.0122 0.0732,-0.0122 0.15849,-0.0122 0.48768,-0.0366 0.32918,-0.0366 0.53644,-0.0488 0.21946,-0.0244 0.24384,-0.0244 0.19508,0 0.19508,0.17069 0,0.0731 -0.061,0.28042 l -0.81687,3.27964 q 0.68275,-0.65836 1.29235,-0.65836 0.65837,0 1.0729,0.53644 0.41453,0.53645 0.41453,1.36551 0,1.34112 -0.89002,2.48717 -0.87782,1.13385 -1.91414,1.13385 -0.63399,0 -1.02413,-0.51206 -0.39014,-0.52426 -0.39014,-1.35331 z m 0.69494,0.42672 q 0,0.4511 0.17069,0.80467 0.17069,0.35357 0.56083,0.35357 0.53645,0 1.03632,-0.71933 0.39014,-0.56083 0.64618,-1.60935 0.26822,-1.0607 0.26822,-1.56057 0,-0.51207 -0.18288,-0.79248 -0.17069,-0.28042 -0.47549,-0.28042 -0.3048,0 -0.67056,0.26823 -0.36576,0.25603 -0.67056,0.69494 -0.0731,0.10973 -0.12192,0.21946 -0.0488,0.0975 -0.0731,0.17068 -0.0122,0.0732 -0.0853,0.35357 -0.061,0.26823 -0.10973,0.47549 -0.29261,1.13386 -0.29261,1.62154 z"
           style="font-family:'CMU Classical Serif';-inkscape-font-specification:'CMU Classical Serif';fill:#ffffff"
           id="path13865" />
        <path
           d="m 385.81884,120.45993 q 0,-0.14265 0.19812,-0.14265 h 0.0793 q 0.46757,-0.008 0.57851,-0.0793 0.11095,-0.0713 0.18227,-0.36454 l 0.91928,-3.64541 q -0.49134,0.317 -0.84003,0.317 -0.1268,0 -0.15057,-0.0634 -0.0238,-0.0713 0.0238,-0.13472 0.0317,-0.0396 0.16643,-0.0555 0.13472,-0.0238 0.30114,-0.0634 0.16642,-0.0396 0.45171,-0.25359 0.28529,-0.22189 0.58644,-0.60228 0.0634,-0.0793 0.11887,-0.0793 0.0872,0 0.0872,0.10302 0,0.0396 -0.0159,0.10302 l -1.12532,4.48544 q -0.0238,0.10302 -0.0238,0.16642 0,0.16642 0.40416,0.16642 0.0238,0 0.0713,0 0.0476,-0.008 0.0713,-0.008 0.16642,0 0.22189,0.0317 0.0872,0.0634 0.0159,0.16642 -0.0396,0.0555 -0.13472,0.0555 -0.0317,0 -0.1585,-0.008 -0.12679,-0.008 -0.35661,-0.008 -0.22982,-0.008 -0.49927,-0.008 -0.26944,0 -0.50718,0.008 -0.22982,0 -0.36454,0.008 -0.1268,0.008 -0.1585,0.008 -0.14265,0 -0.14265,-0.10302 z"
           style="font-size:7.9248px;baseline-shift:sub;fill:#ffffff"
           id="path13867" />
      </g>
      <g
         aria-label="b2"
         id="text1721"
         style="font-size:12.192px;line-height:1.25;font-family:'Fairy Godmother DEMO';-inkscape-font-specification:'Fairy Godmother DEMO';text-align:end;letter-spacing:0px;word-spacing:0px;text-anchor:end;stroke-width:0.264583;fill:#ffffff">
        <path
           d="m 380.71326,63.476645 q 0,-0.42672 0.18288,-1.15824 l 1.12166,-4.511041 q 0.061,-0.219456 0.061,-0.316992 0,-0.219456 -0.43891,-0.219456 -0.43891,-0.01219 -0.43891,-0.18288 0,-0.06096 0.0244,-0.09754 0.0244,-0.03658 0.0488,-0.06096 0.0244,-0.02438 0.0731,-0.03658 0.0488,-0.02438 0.0731,-0.02438 0.0244,0 0.0731,0 0.061,-0.01219 0.0732,-0.01219 0.15849,-0.01219 0.48768,-0.03658 0.32918,-0.03658 0.53644,-0.04877 0.21946,-0.02438 0.24384,-0.02438 0.19508,0 0.19508,0.170688 0,0.07315 -0.061,0.280416 l -0.81687,3.279648 q 0.68275,-0.658368 1.29235,-0.658368 0.65837,0 1.0729,0.536448 0.41453,0.536448 0.41453,1.365505 0,1.34112 -0.89002,2.487168 -0.87782,1.133856 -1.91414,1.133856 -0.63399,0 -1.02413,-0.512064 -0.39014,-0.524256 -0.39014,-1.353312 z m 0.69494,0.42672 q 0,0.451104 0.17069,0.804672 0.17069,0.353568 0.56083,0.353568 0.53645,0 1.03632,-0.719328 0.39014,-0.560832 0.64618,-1.609344 0.26822,-1.060704 0.26822,-1.560576 0,-0.512065 -0.18288,-0.792481 -0.17069,-0.280416 -0.47549,-0.280416 -0.3048,0 -0.67056,0.268224 -0.36576,0.256032 -0.67056,0.694944 -0.0731,0.109729 -0.12192,0.219457 -0.0488,0.09754 -0.0731,0.170688 -0.0122,0.07315 -0.0853,0.353568 -0.061,0.268224 -0.10973,0.475488 -0.29261,1.133856 -0.29261,1.621536 z"
           style="font-family:'CMU Classical Serif';-inkscape-font-specification:'CMU Classical Serif';fill:#ffffff"
           id="path13860" />
        <path
           d="m 385.60955,67.717632 q 0,-0.110947 0.11095,-0.388315 0.11095,-0.277368 0.44379,-0.713232 0.33284,-0.435864 0.8004,-0.737007 0.008,0 0.2536,-0.150571 0.25359,-0.158496 0.38831,-0.253594 0.13472,-0.0951 0.38039,-0.324916 0.2536,-0.22982 0.38832,-0.451714 0.13472,-0.221894 0.24567,-0.562661 0.11887,-0.348691 0.11887,-0.729081 0,-0.39624 -0.1902,-0.626059 -0.19019,-0.237744 -0.50718,-0.237744 -0.42794,0 -0.80833,0.39624 -0.38039,0.388315 -0.57059,0.847953 -0.18227,0.451714 -0.18227,0.760781 0,0.253593 0.18227,0.253593 0.28529,0 0.52304,-0.388315 0.23774,-0.39624 0.23774,-0.673608 0,-0.08717 -0.0396,-0.206044 -0.0396,-0.118872 -0.0396,-0.134722 0,-0.0317 0.0238,-0.05547 0.0317,-0.0317 0.0713,-0.02377 0.0634,0.01585 0.11095,0.142646 0.0476,0.126797 0.0476,0.269444 0,0.348691 -0.27737,0.800404 -0.27737,0.451714 -0.67361,0.451714 -0.19812,0 -0.30114,-0.134722 -0.10302,-0.142646 -0.10302,-0.356616 0,-0.229819 0.12679,-0.570585 0.1268,-0.348691 0.34077,-0.697383 0.22189,-0.356616 0.57851,-0.602284 0.36454,-0.253594 0.77663,-0.253594 0.53889,0 0.88758,0.372466 0.34869,0.372465 0.34869,0.9589 0,0.626059 -0.38832,1.085698 -0.38831,0.459638 -1.35514,1.014374 -0.0159,0.0079 -0.12679,0.07132 -0.10303,0.0634 -0.13473,0.08717 -0.0317,0.01585 -0.14264,0.07925 -0.10302,0.0634 -0.15057,0.0951 -0.0396,0.0317 -0.14265,0.103022 -0.0951,0.07132 -0.15057,0.126797 -0.0555,0.05547 -0.14265,0.142646 -0.0872,0.07925 -0.15057,0.158496 -0.0634,0.07925 -0.14265,0.182271 -0.0713,0.103022 -0.13472,0.213969 0.0951,-0.02377 0.1902,-0.02377 0.24567,0 0.74493,0.118872 0.49926,0.110947 0.73701,0.110947 0.19019,0 0.34869,-0.07925 0.16642,-0.08717 0.26944,-0.213969 0.11095,-0.134722 0.17435,-0.237744 0.0634,-0.103023 0.10302,-0.19812 0.0238,-0.04755 0.0476,-0.110948 0.0238,-0.07132 0.0317,-0.08717 0.008,-0.02378 0.0317,-0.03962 0.0317,-0.02378 0.0792,-0.02378 0.11095,0 0.11095,0.103023 0,0.08717 -0.0872,0.309067 -0.0793,0.213969 -0.2219,0.475488 -0.14264,0.261518 -0.40416,0.459638 -0.26152,0.19812 -0.55474,0.19812 -0.31699,0 -0.76078,-0.301142 -0.43586,-0.301143 -0.67361,-0.301143 -0.13472,0 -0.22982,0.0951 -0.0713,0.07132 -0.12679,0.174346 -0.0476,0.0951 -0.0713,0.158496 -0.0158,0.07132 -0.0555,0.118872 -0.0396,0.05547 -0.10302,0.05547 -0.11095,0 -0.11095,-0.103022 z"
           style="font-size:7.9248px;baseline-shift:sub;fill:#ffffff"
           id="path13862" />
      </g>
      <path
         id="circle1723"
         style="fill:none;fill-opacity:0.2;stroke:#ffffff;stroke-width:0.264583;stroke-linejoin:round;stop-color:#000000"
         d="m 391.66,62.509399 a 7.5588932,7.5588932 0 0 1 -7.5589,7.558894 7.5588932,7.5588932 0 0 1 -7.55889,-7.558894 7.5588932,7.5588932 0 0 1 7.55889,-7.558893 7.5588932,7.5588932 0 0 1 7.5589,7.558893 z" />
      <path
         id="circle1725"
         style="fill:none;fill-opacity:0.2;stroke:#ffffff;stroke-width:0.264583;stroke-linejoin:round;stop-color:#000000"
         d="m 391.66,115.42604 a 7.5588932,7.5588932 0 0 1 -7.5589,7.55889 7.5588932,7.5588932 0 0 1 -7.55889,-7.55889 7.5588932,7.5588932 0 0 1 7.55889,-7.55889 7.5588932,7.5588932 0 0 1 7.5589,7.55889 z" />
      <path
         id="rect1733"
         style="fill:none;fill-opacity:0.2;stroke:#ffffff;stroke-width:0.264583;stroke-linejoin:round;stop-color:#000000"
         d="m 484.48993,23.09547 h 50.05869 v 23.09404 h -50.05869 z" />
      <path
         id="rect1735"
         style="fill:none;fill-opacity:0.2;stroke:#ffffff;stroke-width:0.264583;stroke-linejoin:round;stop-color:#000000"
         d="m 484.48993,76.012138 h 50.05869 v 23.09404 h -50.05869 z" />
      <path
         id="rect1737"
         style="fill:none;fill-opacity:0.2;stroke:#00aaff;stroke-width:0.264583;stroke-linejoin:round;stop-color:#000000;stroke-opacity:1"
         d="m 484.48993,128.92879 h 50.05869 v 23.09404 h -50.05869 z" />
      <g
         aria-label="x1"
         id="text1747"
         style="font-size:19.05px;line-height:1.25;font-family:'Fairy Godmother DEMO';-inkscape-font-specification:'Fairy Godmother DEMO';text-align:end;letter-spacing:0px;word-spacing:0px;text-anchor:end;stroke-width:0.264583;fill:#00aaff;fill-opacity:1">
        <path
           d="m 500.87863,143.14507 q 0,-0.40005 0.24765,-0.70485 0.2667,-0.3048 0.66675,-0.3048 0.28575,0 0.4572,0.1905 0.1905,0.17145 0.1905,0.43815 0,0.6477 -0.74295,0.89535 0.43815,0.24765 0.8382,0.24765 0.3048,0 0.55245,-0.13335 0.2667,-0.13335 0.47625,-0.43815 0.20955,-0.3048 0.3429,-0.59055 0.1524,-0.3048 0.3048,-0.85725 0.17145,-0.5715 0.2667,-0.9525 0.0952,-0.381 0.2667,-1.1049 0.17145,-0.74295 0.2667,-1.16205 0.2286,-1.00965 0.2286,-1.2954 0,-0.55245 -0.2667,-0.8763 -0.24765,-0.3429 -0.66675,-0.3429 -0.6477,0 -1.2573,0.62865 -0.59055,0.6096 -0.93345,1.58115 -0.019,0.0381 -0.0381,0.1143 -0.019,0.0762 -0.0381,0.1143 -0.019,0.019 -0.0572,0.0952 -0.019,0.0572 -0.0571,0.0953 -0.0381,0.019 -0.0953,0.0381 -0.0381,0.019 -0.1143,0.019 -0.2667,0 -0.2667,-0.24765 0,-0.3048 0.3048,-0.9525 0.32385,-0.6477 1.0287,-1.27635 0.7239,-0.6477 1.58115,-0.6477 h 0.019 q 1.27635,0.019 1.8288,1.31445 0.7239,-1.31445 1.8669,-1.31445 0.59055,0 1.1049,0.3048 0.5334,0.3048 0.5334,0.89535 0,0.43815 -0.28575,0.7239 -0.28575,0.28575 -0.6477,0.28575 -0.2667,0 -0.4572,-0.17145 -0.17145,-0.17145 -0.17145,-0.43815 0,-0.28575 0.1905,-0.5334 0.1905,-0.2667 0.5334,-0.36195 -0.36195,-0.2667 -0.81915,-0.2667 -0.24765,0 -0.4953,0.1143 -0.24765,0.0952 -0.62865,0.62865 -0.36195,0.5334 -0.59055,1.4478 -0.17145,0.66675 -0.3429,1.35255 -0.1524,0.6858 -0.24765,1.0287 -0.0762,0.32385 -0.17145,0.6858 -0.0953,0.36195 -0.13335,0.51435 -0.019,0.1524 -0.0571,0.32385 -0.019,0.17145 -0.0381,0.2667 0,0.0762 0,0.20955 0,0.51435 0.24765,0.85725 0.24765,0.32385 0.6858,0.32385 0.6477,0 1.2573,-0.6096 0.6096,-0.62865 0.93345,-1.6002 0.019,-0.0381 0.0381,-0.1143 0.0381,-0.0762 0.0381,-0.1143 0.019,-0.0381 0.0381,-0.0952 0.0381,-0.0572 0.0762,-0.0762 0.0381,-0.0381 0.0762,-0.0572 0.0571,-0.019 0.13335,-0.019 0.2667,0 0.2667,0.24765 0,0.3048 -0.32385,0.9525 -0.3048,0.6477 -1.0287,1.2954 -0.7239,0.62865 -1.5621,0.62865 -0.5334,0 -1.04775,-0.28575 -0.51435,-0.3048 -0.78105,-1.00965 -0.24765,0.36195 -0.43815,0.59055 -0.17145,0.20955 -0.59055,0.4572 -0.40005,0.24765 -0.85725,0.24765 -0.62865,0 -1.143,-0.3048 -0.4953,-0.32385 -0.4953,-0.89535 z"
           style="font-family:'CMU Classical Serif';-inkscape-font-specification:'CMU Classical Serif';fill:#00aaff;fill-opacity:1"
           id="path13850" />
        <path
           d="m 510.16933,147.78469 q 0,-0.22288 0.30956,-0.22288 h 0.12382 q 0.73057,-0.0124 0.90393,-0.12383 0.17335,-0.11144 0.28479,-0.56959 l 1.43637,-5.69595 q -0.76771,0.4953 -1.31254,0.4953 -0.19812,0 -0.23527,-0.0991 -0.0371,-0.11144 0.0371,-0.2105 0.0495,-0.0619 0.26003,-0.0867 0.2105,-0.0371 0.47054,-0.0991 0.26003,-0.0619 0.7058,-0.39624 0.44577,-0.34671 0.9163,-0.94107 0.0991,-0.12383 0.18574,-0.12383 0.13621,0 0.13621,0.16098 0,0.0619 -0.0248,0.16097 l -1.75831,7.00849 q -0.0371,0.16098 -0.0371,0.26004 0,0.26003 0.63151,0.26003 0.0371,0 0.11144,0 0.0743,-0.0124 0.11144,-0.0124 0.26004,0 0.34671,0.0495 0.13621,0.0991 0.0248,0.26003 -0.0619,0.0867 -0.2105,0.0867 -0.0495,0 -0.24765,-0.0124 -0.19812,-0.0124 -0.55722,-0.0124 -0.35909,-0.0124 -0.78009,-0.0124 -0.42101,0 -0.79248,0.0124 -0.3591,0 -0.5696,0.0124 -0.19812,0.0124 -0.24765,0.0124 -0.22288,0 -0.22288,-0.16098 z"
           style="font-size:65%;baseline-shift:sub;fill:#00aaff;fill-opacity:1"
           id="path13852" />
      </g>
      <g
         aria-label="h1"
         id="text1753"
         style="font-size:19.05px;line-height:1.25;font-family:'Fairy Godmother DEMO';-inkscape-font-specification:'Fairy Godmother DEMO';text-align:end;letter-spacing:0px;word-spacing:0px;text-anchor:end;stroke-width:0.264583;fill:#ffffff">
        <path
           d="m 500.4024,90.914187 q 0,-0.1143 0.20955,-0.9906 l 2.53365,-10.11555 q 0.1143,-0.43815 0.1143,-0.6477 0,-0.3048 -0.3429,-0.32385 -0.32385,-0.0381 -0.66675,-0.0381 -0.3429,-0.01905 -0.3429,-0.2667 0,-0.2286 0.2667,-0.3048 0.28575,-0.0762 1.1049,-0.13335 0.47625,-0.0381 0.78105,-0.05715 0.2667,-0.0381 0.381,-0.0381 0.3048,0 0.3048,0.24765 0,0.1143 -0.24765,1.12395 -0.24765,0.9906 -0.62865,2.4765 -0.381,1.46685 -0.55245,2.22885 1.16205,-1.27635 2.53365,-1.27635 h 0.019 q 0.8001,0 1.39065,0.4572 0.6096,0.4572 0.6096,1.524 0,0.9525 -0.762,3.10515 -0.74295,2.15265 -0.74295,2.57175 0,0.5334 0.43815,0.5334 1.0668,0 1.69545,-2.22885 0.0762,-0.3048 0.20955,-0.40005 0.13335,-0.09525 0.28575,-0.0381 0.1524,0.05715 0.1524,0.2286 0,0.1143 -0.1524,0.5334 -0.13335,0.4191 -0.40005,0.97155 -0.2667,0.5334 -0.78105,0.9525 -0.4953,0.4191 -1.08585,0.4191 -0.62865,0 -1.0287,-0.4191 -0.40005,-0.43815 -0.40005,-1.1049 0,-0.381 0.70485,-2.4003 0.70485,-2.03835 0.70485,-3.02895 0,-1.23825 -0.89535,-1.23825 -0.6096,0 -1.16205,0.3429 -0.55245,0.32385 -0.9144,0.8382 -0.36195,0.4953 -0.55245,0.8382 -0.1905,0.32385 -0.28575,0.55245 l -1.16205,4.62915 q -0.2286,0.9906 -0.81915,0.9906 -0.20955,0 -0.36195,-0.1524 -0.1524,-0.13335 -0.1524,-0.36195 z"
           style="font-family:'CMU Classical Serif';-inkscape-font-specification:'CMU Classical Serif';fill:#ffffff"
           id="path13845" />
        <path
           d="m 510.16933,94.868014 q 0,-0.222885 0.30956,-0.222885 h 0.12382 q 0.73057,-0.01238 0.90393,-0.123825 0.17335,-0.111442 0.28479,-0.569595 l 1.43637,-5.695949 q -0.76771,0.4953 -1.31254,0.4953 -0.19812,0 -0.23527,-0.09906 -0.0371,-0.111443 0.0371,-0.210503 0.0495,-0.06191 0.26003,-0.08668 0.2105,-0.03715 0.47054,-0.09906 0.26003,-0.06191 0.7058,-0.39624 0.44577,-0.34671 0.9163,-0.94107 0.0991,-0.123825 0.18574,-0.123825 0.13621,0 0.13621,0.160972 0,0.06191 -0.0248,0.160973 l -1.75831,7.008494 q -0.0371,0.160973 -0.0371,0.260033 0,0.260032 0.63151,0.260032 0.0371,0 0.11144,0 0.0743,-0.01238 0.11144,-0.01238 0.26004,0 0.34671,0.04953 0.13621,0.09906 0.0248,0.260033 -0.0619,0.08668 -0.2105,0.08668 -0.0495,0 -0.24765,-0.01238 -0.19812,-0.01238 -0.55722,-0.01238 -0.35909,-0.01238 -0.78009,-0.01238 -0.42101,0 -0.79248,0.01238 -0.3591,0 -0.5696,0.01238 -0.19812,0.01238 -0.24765,0.01238 -0.22288,0 -0.22288,-0.160972 z"
           style="font-size:65%;baseline-shift:sub;fill:#ffffff"
           id="path13847" />
      </g>
      <g
         aria-label="y1"
         id="text1759"
         style="font-size:19.05px;line-height:1.25;font-family:'Fairy Godmother DEMO';-inkscape-font-specification:'Fairy Godmother DEMO';text-align:end;letter-spacing:0px;word-spacing:0px;text-anchor:end;stroke-width:0.264583;fill:#ffffff">
        <path
           d="m 501.33583,40.569272 q 0,-0.59055 0.28575,-0.89535 0.3048,-0.28575 0.66675,-0.28575 0.28575,0 0.4572,0.17145 0.1905,0.17145 0.1905,0.43815 0,0.28575 -0.2286,0.59055 -0.20955,0.3048 -0.74295,0.32385 0.32385,0.8763 1.20015,0.8763 0.85725,0 1.61925,-0.81915 0.762,-0.8001 1.2192,-2.2098 0.0952,-0.3048 0.24765,-0.9525 -0.8382,0.70485 -1.7145,0.70485 -0.85725,0 -1.50495,-0.4953 -0.62865,-0.4953 -0.62865,-1.69545 0,-0.62865 0.3048,-1.847849 0.32385,-1.23825 0.62865,-2.22885 0.32385,-1.00965 0.32385,-1.08585 0,-0.1905 -0.2667,-0.2286 -0.24765,-0.05715 -0.5715,-0.05715 -0.32385,0 -0.40005,-0.05715 -0.17145,-0.1143 -0.0381,-0.36195 0.0953,-0.1524 0.4191,-0.1905 1.905,-0.17145 2.11455,-0.17145 h 0.019 q 0.28575,0 0.28575,0.24765 0,0.17145 -0.2286,1.08585 -0.13335,0.4191 -0.3048,0.51435 -1.12395,3.771899 -1.12395,4.705349 0,1.42875 1.04775,1.42875 0.6477,0 1.20015,-0.4953 0.55245,-0.4953 0.7239,-0.93345 0.0381,-0.1143 0.0762,-0.3048 0.0571,-0.20955 0.0762,-0.28575 l 1.2573,-4.972049 0.019,-0.09525 q 0.019,-0.09525 0.0381,-0.1524 0.019,-0.0762 0.0571,-0.1905 0.0381,-0.1143 0.0953,-0.1905 0.0762,-0.09525 0.1524,-0.17145 0.0762,-0.0762 0.1905,-0.1143 0.1143,-0.05715 0.24765,-0.05715 0.20955,0 0.36195,0.1524 0.1524,0.13335 0.1524,0.36195 0,0.05715 -0.0381,0.17145 -0.019,0.1143 -0.019,0.13335 l -1.7526,7.029449 q -0.2667,1.04775 -0.7239,1.84785 -0.4572,0.81915 -0.93345,1.2573 -0.47625,0.43815 -1.0287,0.7239 -0.5334,0.28575 -0.9144,0.36195 -0.36195,0.0762 -0.6858,0.0762 -0.8001,0 -1.31445,-0.4572 -0.51435,-0.4572 -0.51435,-1.20015 z"
           style="font-family:'CMU Classical Serif';-inkscape-font-specification:'CMU Classical Serif';fill:#ffffff"
           id="path13840" />
        <path
           d="m 510.16933,41.95135 q 0,-0.222885 0.30956,-0.222885 h 0.12382 q 0.73057,-0.01238 0.90393,-0.123825 0.17335,-0.111443 0.28479,-0.569595 l 1.43637,-5.695949 q -0.76771,0.495299 -1.31254,0.495299 -0.19812,0 -0.23527,-0.09906 -0.0371,-0.111442 0.0371,-0.210502 0.0495,-0.06191 0.26003,-0.08668 0.2105,-0.03715 0.47054,-0.09906 0.26003,-0.06191 0.7058,-0.39624 0.44577,-0.34671 0.9163,-0.94107 0.0991,-0.123825 0.18574,-0.123825 0.13621,0 0.13621,0.160972 0,0.06191 -0.0248,0.160973 l -1.75831,7.008494 q -0.0371,0.160972 -0.0371,0.260032 0,0.260033 0.63151,0.260033 0.0371,0 0.11144,0 0.0743,-0.01238 0.11144,-0.01238 0.26004,0 0.34671,0.04953 0.13621,0.09906 0.0248,0.260033 -0.0619,0.08668 -0.2105,0.08668 -0.0495,0 -0.24765,-0.01238 -0.19812,-0.01238 -0.55722,-0.01238 -0.35909,-0.01238 -0.78009,-0.01238 -0.42101,0 -0.79248,0.01238 -0.3591,0 -0.5696,0.01238 -0.19812,0.01238 -0.24765,0.01238 -0.22288,0 -0.22288,-0.160972 z"
           style="font-size:65%;baseline-shift:sub;fill:#ffffff"
           id="path13842" />
      </g>
      <g
         aria-label="w2"
         id="text1765"
         style="font-size:19.05px;line-height:1.25;font-family:'Fairy Godmother DEMO';-inkscape-font-specification:'Fairy Godmother DEMO';text-align:end;letter-spacing:0px;word-spacing:0px;text-anchor:end;stroke-width:0.264583;fill:#ffffff">
        <path
           d="m 543.91492,78.250173 q 0,-0.13335 0.0381,-0.1905 0.0571,-0.0762 0.1905,-0.1143 0.1524,-0.0381 0.28575,-0.05715 0.13335,-0.01905 0.43815,-0.0381 0.3048,-0.01905 0.55245,-0.05715 0.0381,0 0.20955,-0.0381 0.1905,-0.05715 0.55245,-0.05715 h 0.20955 q 0.4191,0 0.4191,0.2667 -0.1905,1.3716 -0.5334,1.6002 -1.0668,3.5433 -1.0668,4.514849 0,0.89535 0.40005,1.2573 0.40005,0.3429 0.8763,0.3429 0.4572,0 0.8382,-0.40005 0.40005,-0.40005 0.55245,-0.7239 0.1524,-0.3429 0.1905,-0.51435 0.019,-0.0762 0.0381,-0.43815 0.019,-0.381 0.1143,-0.781049 0.1905,-0.8382 1.04775,-4.2291 0.2286,-0.8763 0.81915,-0.8763 0.2286,0 0.381,0.1524 0.1524,0.1524 0.1524,0.381 0,0.17145 -0.6477,2.68605 -0.6477,2.495549 -0.6477,3.200399 0,0.81915 0.3429,1.1811 0.3429,0.36195 0.85725,0.36195 0.43815,0 0.81915,-0.2667 0.381,-0.2667 0.62865,-0.62865 0.2667,-0.36195 0.4953,-0.9525 0.24765,-0.59055 0.36195,-0.990599 0.1143,-0.40005 0.2667,-0.9906 0.2667,-1.0668 0.2667,-1.4859 0,-0.74295 -0.381,-1.2954 -0.36195,-0.55245 -0.36195,-0.70485 0,-0.28575 0.2667,-0.5715 0.28575,-0.28575 0.62865,-0.28575 0.3048,0 0.55245,0.3048 0.24765,0.3048 0.24765,1.0287 0,0.70485 -0.40005,2.3241 -0.381,1.6002 -0.74295,2.514599 -0.97155,2.49555 -2.7051,2.49555 -1.6002,0 -2.15265,-1.20015 -0.40005,0.59055 -0.8001,0.89535 -0.40005,0.28575 -1.0668,0.28575 -0.9525,0 -1.7145,-0.5334 -0.762,-0.55245 -0.762,-1.80975 0,-0.55245 0.3048,-1.771649 0.3048,-1.23825 0.6096,-2.2479 0.32385,-1.00965 0.32385,-1.0287 0,-0.2286 -0.6477,-0.24765 -0.6477,-0.01905 -0.6477,-0.2667 z"
           style="font-family:'CMU Classical Serif';-inkscape-font-specification:'CMU Classical Serif';fill:#ffffff"
           id="path13835" />
        <path
           d="m 554.72769,89.848765 q 0,-0.173355 0.17336,-0.606743 0.17335,-0.433387 0.69342,-1.114425 0.52006,-0.681037 1.25063,-1.151572 0.0124,0 0.39624,-0.235267 0.39624,-0.24765 0.60674,-0.39624 0.2105,-0.14859 0.59436,-0.507683 0.39624,-0.359092 0.60674,-0.705802 0.21051,-0.34671 0.38386,-0.879158 0.18574,-0.54483 0.18574,-1.139189 0,-0.619125 -0.29718,-0.978218 -0.29718,-0.371475 -0.79248,-0.371475 -0.66866,0 -1.26302,0.619125 -0.59436,0.606743 -0.89154,1.324927 -0.28479,0.705803 -0.28479,1.18872 0,0.39624 0.28479,0.39624 0.44577,0 0.81725,-0.606742 0.37147,-0.619125 0.37147,-1.052513 0,-0.136207 -0.0619,-0.321945 -0.0619,-0.185737 -0.0619,-0.210502 0,-0.04953 0.0371,-0.08668 0.0495,-0.04953 0.11144,-0.03715 0.0991,0.02477 0.17335,0.222885 0.0743,0.19812 0.0743,0.421005 0,0.54483 -0.43339,1.250632 -0.43339,0.705803 -1.05251,0.705803 -0.30956,0 -0.47054,-0.210503 -0.16097,-0.222885 -0.16097,-0.557212 0,-0.359093 0.19812,-0.89154 0.19812,-0.54483 0.53245,-1.08966 0.34671,-0.557212 0.90392,-0.94107 0.5696,-0.39624 1.21349,-0.39624 0.84201,0 1.38684,0.581978 0.54483,0.581977 0.54483,1.498282 0,0.978217 -0.60675,1.696402 -0.60674,0.718185 -2.1174,1.58496 -0.0248,0.01238 -0.19812,0.111443 -0.16098,0.09906 -0.21051,0.136207 -0.0495,0.02477 -0.22288,0.123825 -0.16097,0.09906 -0.23527,0.14859 -0.0619,0.04953 -0.22288,0.160973 -0.14859,0.111442 -0.23527,0.19812 -0.0867,0.08668 -0.22289,0.222885 -0.1362,0.123824 -0.23526,0.247649 -0.0991,0.123825 -0.22289,0.284798 -0.11144,0.160972 -0.2105,0.334327 0.14859,-0.03715 0.29718,-0.03715 0.38386,0 1.16395,0.185737 0.7801,0.173355 1.15158,0.173355 0.29718,0 0.54483,-0.123825 0.26003,-0.136207 0.421,-0.334327 0.17336,-0.210503 0.27242,-0.371475 0.0991,-0.160973 0.16097,-0.309562 0.0371,-0.07429 0.0743,-0.173355 0.0371,-0.111443 0.0495,-0.136208 0.0124,-0.03715 0.0495,-0.06191 0.0495,-0.03715 0.12383,-0.03715 0.17335,0 0.17335,0.160973 0,0.136207 -0.1362,0.482917 -0.12383,0.334327 -0.34671,0.74295 -0.22289,0.408622 -0.63151,0.718185 -0.40862,0.309562 -0.86678,0.309562 -0.4953,0 -1.18872,-0.470535 -0.68103,-0.470535 -1.05251,-0.470535 -0.2105,0 -0.35909,0.14859 -0.11144,0.111443 -0.19812,0.272415 -0.0743,0.14859 -0.11144,0.24765 -0.0248,0.111443 -0.0867,0.185738 -0.0619,0.08668 -0.16097,0.08668 -0.17336,0 -0.17336,-0.160972 z"
           style="font-size:65%;baseline-shift:sub;fill:#ffffff"
           id="path13837" />
      </g>
      <g
         aria-label="w1"
         id="text1771"
         style="font-size:19.05px;line-height:1.25;font-family:'Fairy Godmother DEMO';-inkscape-font-specification:'Fairy Godmother DEMO';text-align:end;letter-spacing:0px;word-spacing:0px;text-anchor:end;stroke-width:0.264583;fill:#ffffff">
        <path
           d="m 507.9314,112.11681 q 0,-0.13335 0.0381,-0.1905 0.0572,-0.0762 0.1905,-0.1143 0.1524,-0.0381 0.28575,-0.0572 0.13335,-0.019 0.43815,-0.0381 0.3048,-0.019 0.55245,-0.0571 0.0381,0 0.20955,-0.0381 0.1905,-0.0572 0.55245,-0.0572 h 0.20955 q 0.4191,0 0.4191,0.2667 -0.1905,1.3716 -0.5334,1.6002 -1.0668,3.5433 -1.0668,4.51485 0,0.89535 0.40005,1.2573 0.40005,0.3429 0.8763,0.3429 0.4572,0 0.8382,-0.40005 0.40005,-0.40005 0.55245,-0.7239 0.1524,-0.3429 0.1905,-0.51435 0.019,-0.0762 0.0381,-0.43815 0.019,-0.381 0.1143,-0.78105 0.1905,-0.8382 1.04775,-4.2291 0.2286,-0.8763 0.81915,-0.8763 0.2286,0 0.381,0.1524 0.1524,0.1524 0.1524,0.381 0,0.17145 -0.6477,2.68605 -0.6477,2.49555 -0.6477,3.2004 0,0.81915 0.3429,1.1811 0.3429,0.36195 0.85725,0.36195 0.43815,0 0.81915,-0.2667 0.381,-0.2667 0.62865,-0.62865 0.2667,-0.36195 0.4953,-0.9525 0.24765,-0.59055 0.36195,-0.9906 0.1143,-0.40005 0.2667,-0.9906 0.2667,-1.0668 0.2667,-1.4859 0,-0.74295 -0.381,-1.2954 -0.36195,-0.55245 -0.36195,-0.70485 0,-0.28575 0.2667,-0.5715 0.28575,-0.28575 0.62865,-0.28575 0.3048,0 0.55245,0.3048 0.24765,0.3048 0.24765,1.0287 0,0.70485 -0.40005,2.3241 -0.381,1.6002 -0.74295,2.5146 -0.97155,2.49555 -2.7051,2.49555 -1.6002,0 -2.15265,-1.20015 -0.40005,0.59055 -0.8001,0.89535 -0.40005,0.28575 -1.0668,0.28575 -0.9525,0 -1.7145,-0.5334 -0.762,-0.55245 -0.762,-1.80975 0,-0.55245 0.3048,-1.77165 0.3048,-1.23825 0.6096,-2.2479 0.32385,-1.00965 0.32385,-1.0287 0,-0.2286 -0.6477,-0.24765 -0.6477,-0.0191 -0.6477,-0.2667 z"
           style="font-family:'CMU Classical Serif';-inkscape-font-specification:'CMU Classical Serif';fill:#ffffff"
           id="path13830" />
        <path
           d="m 519.16518,123.44299 q 0,-0.22289 0.30956,-0.22289 h 0.12382 q 0.73057,-0.0124 0.90393,-0.12382 0.17335,-0.11144 0.28479,-0.5696 l 1.43637,-5.69595 q -0.76771,0.4953 -1.31254,0.4953 -0.19812,0 -0.23527,-0.0991 -0.0371,-0.11144 0.0371,-0.2105 0.0495,-0.0619 0.26003,-0.0867 0.2105,-0.0371 0.47054,-0.0991 0.26003,-0.0619 0.7058,-0.39624 0.44577,-0.34671 0.9163,-0.94107 0.0991,-0.12382 0.18574,-0.12382 0.13621,0 0.13621,0.16097 0,0.0619 -0.0248,0.16097 l -1.75831,7.0085 q -0.0371,0.16097 -0.0371,0.26003 0,0.26003 0.63151,0.26003 0.0371,0 0.11144,0 0.0743,-0.0124 0.11144,-0.0124 0.26004,0 0.34671,0.0495 0.13621,0.0991 0.0248,0.26003 -0.0619,0.0867 -0.2105,0.0867 -0.0495,0 -0.24765,-0.0124 -0.19812,-0.0124 -0.55722,-0.0124 -0.35909,-0.0124 -0.78009,-0.0124 -0.42101,0 -0.79248,0.0124 -0.3591,0 -0.5696,0.0124 -0.19812,0.0124 -0.24765,0.0124 -0.22288,0 -0.22288,-0.16097 z"
           style="font-size:65%;baseline-shift:sub;fill:#ffffff"
           id="path13832" />
      </g>
      <g
         aria-label="w3"
         id="text1777"
         style="font-size:19.05px;line-height:1.25;font-family:'Fairy Godmother DEMO';-inkscape-font-specification:'Fairy Godmother DEMO';text-align:end;letter-spacing:0px;word-spacing:0px;text-anchor:end;stroke-width:0.264583;fill:#ffffff">
        <path
           d="m 507.9314,59.20017 q 0,-0.13335 0.0381,-0.1905 0.0572,-0.0762 0.1905,-0.1143 0.1524,-0.0381 0.28575,-0.05715 0.13335,-0.01905 0.43815,-0.0381 0.3048,-0.01905 0.55245,-0.05715 0.0381,0 0.20955,-0.0381 0.1905,-0.05715 0.55245,-0.05715 h 0.20955 q 0.4191,0 0.4191,0.2667 -0.1905,1.3716 -0.5334,1.6002 -1.0668,3.543299 -1.0668,4.514849 0,0.89535 0.40005,1.2573 0.40005,0.3429 0.8763,0.3429 0.4572,0 0.8382,-0.40005 0.40005,-0.40005 0.55245,-0.7239 0.1524,-0.3429 0.1905,-0.51435 0.019,-0.0762 0.0381,-0.43815 0.019,-0.381 0.1143,-0.78105 0.1905,-0.8382 1.04775,-4.229099 0.2286,-0.8763 0.81915,-0.8763 0.2286,0 0.381,0.1524 0.1524,0.1524 0.1524,0.381 0,0.17145 -0.6477,2.68605 -0.6477,2.495549 -0.6477,3.200399 0,0.81915 0.3429,1.1811 0.3429,0.36195 0.85725,0.36195 0.43815,0 0.81915,-0.2667 0.381,-0.2667 0.62865,-0.62865 0.2667,-0.36195 0.4953,-0.9525 0.24765,-0.59055 0.36195,-0.9906 0.1143,-0.40005 0.2667,-0.9906 0.2667,-1.066799 0.2667,-1.485899 0,-0.74295 -0.381,-1.2954 -0.36195,-0.55245 -0.36195,-0.70485 0,-0.28575 0.2667,-0.5715 0.28575,-0.28575 0.62865,-0.28575 0.3048,0 0.55245,0.3048 0.24765,0.3048 0.24765,1.0287 0,0.70485 -0.40005,2.3241 -0.381,1.600199 -0.74295,2.514599 -0.97155,2.49555 -2.7051,2.49555 -1.6002,0 -2.15265,-1.20015 -0.40005,0.59055 -0.8001,0.89535 -0.40005,0.28575 -1.0668,0.28575 -0.9525,0 -1.7145,-0.5334 -0.762,-0.55245 -0.762,-1.80975 0,-0.55245 0.3048,-1.77165 0.3048,-1.238249 0.6096,-2.247899 0.32385,-1.00965 0.32385,-1.0287 0,-0.2286 -0.6477,-0.24765 -0.6477,-0.01905 -0.6477,-0.2667 z"
           style="font-family:'CMU Classical Serif';-inkscape-font-specification:'CMU Classical Serif';fill:#ffffff"
           id="path13825" />
        <path
           d="m 518.868,69.374774 q 0,-0.532447 0.18573,-0.74295 0.19812,-0.210502 0.45816,-0.210502 0.19812,0 0.30956,0.111442 0.11144,0.111443 0.11144,0.284798 0,0.19812 -0.16097,0.39624 -0.14859,0.19812 -0.4953,0.19812 h -0.0248 q 0.0248,0.4953 0.26004,0.804862 0.24765,0.29718 0.48291,0.383858 0.24765,0.0743 0.50769,0.0743 0.52006,0 1.00298,-0.309563 0.4953,-0.321945 0.76771,-0.829627 0.22289,-0.421005 0.34671,-0.965835 0.12383,-0.54483 0.12383,-0.817245 0,-1.027747 -0.9906,-1.027747 h -0.35909 q -0.26004,0 -0.26004,-0.160973 0,-0.222885 0.30957,-0.222885 0.0248,0 0.0743,0.01238 0.0495,0 0.0743,0 h 0.1362 q 0.55722,0 0.97822,-0.235268 0.43339,-0.235267 0.64389,-0.54483 0.22289,-0.321945 0.35909,-0.718185 0.13621,-0.39624 0.16098,-0.631507 0.0371,-0.24765 0.0371,-0.408623 0,-0.520064 -0.29718,-0.804862 -0.28479,-0.29718 -0.75533,-0.29718 -0.87916,0 -1.60972,0.69342 -0.71819,0.681037 -0.71819,1.423987 0,0.470535 0.34671,0.470535 0.23527,0 0.47054,-0.222885 0.24765,-0.222885 0.24765,-0.532447 0,-0.123825 -0.0743,-0.284798 -0.0619,-0.160972 -0.0619,-0.210502 0,-0.123825 0.12382,-0.123825 0.0867,0 0.18574,0.185737 0.11144,0.185738 0.11144,0.421005 0,0.421005 -0.32194,0.730568 -0.32195,0.309562 -0.71819,0.309562 -0.30956,0 -0.4953,-0.210502 -0.18573,-0.222885 -0.18573,-0.569595 0,-0.829628 0.82962,-1.597342 0.82963,-0.767715 1.90691,-0.767715 0.74295,0 1.25063,0.458152 0.52007,0.44577 0.52007,1.213485 0,0.74295 -0.52007,1.43637 -0.52006,0.681037 -1.4859,1.064895 0.43339,0.19812 0.7058,0.606742 0.27242,0.408623 0.27242,0.965835 0,1.114425 -0.97822,1.956435 -0.96583,0.829627 -2.12979,0.829627 -0.74295,0 -1.2011,-0.433387 -0.45815,-0.44577 -0.45815,-1.151573 z"
           style="font-size:65%;baseline-shift:sub;fill:#ffffff"
           id="path13827" />
      </g>
      <g
         aria-label="b1"
         id="text1783"
         style="font-size:12.192px;line-height:1.25;font-family:'Fairy Godmother DEMO';-inkscape-font-specification:'Fairy Godmother DEMO';text-align:end;letter-spacing:0px;word-spacing:0px;text-anchor:end;stroke-width:0.264583;fill:#ffffff">
        <path
           d="m 475.90292,116.39329 q 0,-0.42672 0.18288,-1.15824 l 1.12167,-4.51104 q 0.061,-0.21946 0.061,-0.317 0,-0.21945 -0.43892,-0.21945 -0.43891,-0.0122 -0.43891,-0.18288 0,-0.061 0.0244,-0.0975 0.0244,-0.0366 0.0488,-0.061 0.0244,-0.0244 0.0732,-0.0366 0.0488,-0.0244 0.0731,-0.0244 0.0244,0 0.0731,0 0.061,-0.0122 0.0731,-0.0122 0.1585,-0.0122 0.48768,-0.0366 0.32919,-0.0366 0.53645,-0.0488 0.21946,-0.0244 0.24384,-0.0244 0.19507,0 0.19507,0.17069 0,0.0731 -0.061,0.28042 l -0.81686,3.27964 q 0.68275,-0.65836 1.29235,-0.65836 0.65837,0 1.0729,0.53644 0.41452,0.53645 0.41452,1.36551 0,1.34112 -0.89001,2.48717 -0.87783,1.13385 -1.91415,1.13385 -0.63398,0 -1.02412,-0.51206 -0.39015,-0.52426 -0.39015,-1.35331 z m 0.69495,0.42672 q 0,0.4511 0.17068,0.80467 0.17069,0.35357 0.56084,0.35357 0.53644,0 1.03632,-0.71933 0.39014,-0.56083 0.64617,-1.60935 0.26823,-1.0607 0.26823,-1.56057 0,-0.51207 -0.18288,-0.79248 -0.17069,-0.28042 -0.47549,-0.28042 -0.3048,0 -0.67056,0.26823 -0.36576,0.25603 -0.67056,0.69494 -0.0731,0.10973 -0.12192,0.21946 -0.0488,0.0975 -0.0731,0.17068 -0.0122,0.0732 -0.0854,0.35357 -0.061,0.26823 -0.10973,0.47549 -0.2926,1.13386 -0.2926,1.62154 z"
           style="font-family:'CMU Classical Serif';-inkscape-font-specification:'CMU Classical Serif';fill:#ffffff"
           id="path13820" />
        <path
           d="m 481.06866,120.45993 q 0,-0.14265 0.19812,-0.14265 h 0.0793 q 0.46756,-0.008 0.57851,-0.0793 0.11095,-0.0713 0.18227,-0.36454 l 0.91928,-3.64541 q -0.49134,0.317 -0.84003,0.317 -0.1268,0 -0.15057,-0.0634 -0.0238,-0.0713 0.0238,-0.13472 0.0317,-0.0396 0.16642,-0.0555 0.13472,-0.0238 0.30114,-0.0634 0.16643,-0.0396 0.45172,-0.25359 0.28529,-0.22189 0.58643,-0.60228 0.0634,-0.0793 0.11888,-0.0793 0.0872,0 0.0872,0.10302 0,0.0396 -0.0159,0.10302 l -1.12532,4.48544 q -0.0238,0.10302 -0.0238,0.16642 0,0.16642 0.40417,0.16642 0.0238,0 0.0713,0 0.0476,-0.008 0.0713,-0.008 0.16642,0 0.2219,0.0317 0.0872,0.0634 0.0159,0.16642 -0.0396,0.0555 -0.13472,0.0555 -0.0317,0 -0.1585,-0.008 -0.1268,-0.008 -0.35662,-0.008 -0.22981,-0.008 -0.49926,-0.008 -0.26944,0 -0.50719,0.008 -0.22981,0 -0.36454,0.008 -0.12679,0.008 -0.15849,0.008 -0.14265,0 -0.14265,-0.10302 z"
           style="font-size:7.9248px;baseline-shift:sub;fill:#ffffff"
           id="path13822" />
      </g>
      <g
         aria-label="b2"
         id="text1789"
         style="font-size:12.192px;line-height:1.25;font-family:'Fairy Godmother DEMO';-inkscape-font-specification:'Fairy Godmother DEMO';text-align:end;letter-spacing:0px;word-spacing:0px;text-anchor:end;stroke-width:0.264583;fill:#ffffff">
        <path
           d="m 475.96307,63.476645 q 0,-0.42672 0.18288,-1.15824 l 1.12167,-4.511041 q 0.061,-0.219456 0.061,-0.316992 0,-0.219456 -0.43892,-0.219456 -0.43891,-0.01219 -0.43891,-0.18288 0,-0.06096 0.0244,-0.09754 0.0244,-0.03658 0.0488,-0.06096 0.0244,-0.02438 0.0732,-0.03658 0.0488,-0.02438 0.0731,-0.02438 0.0244,0 0.0731,0 0.061,-0.01219 0.0731,-0.01219 0.1585,-0.01219 0.48768,-0.03658 0.32919,-0.03658 0.53645,-0.04877 0.21946,-0.02438 0.24384,-0.02438 0.19507,0 0.19507,0.170688 0,0.07315 -0.061,0.280416 l -0.81686,3.279648 q 0.68275,-0.658368 1.29235,-0.658368 0.65837,0 1.0729,0.536448 0.41452,0.536448 0.41452,1.365505 0,1.34112 -0.89001,2.487168 -0.87783,1.133856 -1.91415,1.133856 -0.63398,0 -1.02412,-0.512064 -0.39015,-0.524256 -0.39015,-1.353312 z m 0.69495,0.42672 q 0,0.451104 0.17068,0.804672 0.17069,0.353568 0.56084,0.353568 0.53644,0 1.03632,-0.719328 0.39014,-0.560832 0.64617,-1.609344 0.26823,-1.060704 0.26823,-1.560576 0,-0.512065 -0.18288,-0.792481 -0.17069,-0.280416 -0.47549,-0.280416 -0.3048,0 -0.67056,0.268224 -0.36576,0.256032 -0.67056,0.694944 -0.0731,0.109729 -0.12192,0.219457 -0.0488,0.09754 -0.0731,0.170688 -0.0122,0.07315 -0.0853,0.353568 -0.061,0.268224 -0.10973,0.475488 -0.2926,1.133856 -0.2926,1.621536 z"
           style="font-family:'CMU Classical Serif';-inkscape-font-specification:'CMU Classical Serif';fill:#ffffff"
           id="path13815" />
        <path
           d="m 480.85937,67.717632 q 0,-0.110947 0.11095,-0.388315 0.11094,-0.277368 0.44378,-0.713232 0.33285,-0.435864 0.80041,-0.737007 0.008,0 0.25359,-0.150571 0.2536,-0.158496 0.38832,-0.253594 0.13472,-0.0951 0.38039,-0.324916 0.25359,-0.22982 0.38831,-0.451714 0.13473,-0.221894 0.24567,-0.562661 0.11887,-0.348691 0.11887,-0.729081 0,-0.39624 -0.19019,-0.626059 -0.1902,-0.237744 -0.50719,-0.237744 -0.42794,0 -0.80833,0.39624 -0.38039,0.388315 -0.57058,0.847953 -0.18227,0.451714 -0.18227,0.760781 0,0.253593 0.18227,0.253593 0.28529,0 0.52303,-0.388315 0.23775,-0.39624 0.23775,-0.673608 0,-0.08717 -0.0396,-0.206044 -0.0396,-0.118872 -0.0396,-0.134722 0,-0.0317 0.0238,-0.05547 0.0317,-0.0317 0.0713,-0.02377 0.0634,0.01585 0.11094,0.142646 0.0476,0.126797 0.0476,0.269444 0,0.348691 -0.27736,0.800404 -0.27737,0.451714 -0.67361,0.451714 -0.19812,0 -0.30115,-0.134722 -0.10302,-0.142646 -0.10302,-0.356616 0,-0.229819 0.1268,-0.570585 0.1268,-0.348691 0.34077,-0.697383 0.22189,-0.356616 0.57851,-0.602284 0.36454,-0.253594 0.77663,-0.253594 0.53888,0 0.88757,0.372466 0.3487,0.372465 0.3487,0.9589 0,0.626059 -0.38832,1.085698 -0.38832,0.459638 -1.35514,1.014374 -0.0159,0.0079 -0.1268,0.07132 -0.10302,0.0634 -0.13472,0.08717 -0.0317,0.01585 -0.14265,0.07925 -0.10302,0.0634 -0.15057,0.0951 -0.0396,0.0317 -0.14264,0.103022 -0.0951,0.07132 -0.15057,0.126797 -0.0555,0.05547 -0.14265,0.142646 -0.0872,0.07925 -0.15057,0.158496 -0.0634,0.07925 -0.14265,0.182271 -0.0713,0.103022 -0.13472,0.213969 0.0951,-0.02377 0.1902,-0.02377 0.24566,0 0.74493,0.118872 0.49926,0.110947 0.737,0.110947 0.1902,0 0.34869,-0.07925 0.16642,-0.08717 0.26945,-0.213969 0.11094,-0.134722 0.17434,-0.237744 0.0634,-0.103023 0.10303,-0.19812 0.0238,-0.04755 0.0475,-0.110948 0.0238,-0.07132 0.0317,-0.08717 0.008,-0.02378 0.0317,-0.03962 0.0317,-0.02378 0.0793,-0.02378 0.11095,0 0.11095,0.103023 0,0.08717 -0.0872,0.309067 -0.0792,0.213969 -0.22189,0.475488 -0.14265,0.261518 -0.40416,0.459638 -0.26152,0.19812 -0.55474,0.19812 -0.31699,0 -0.76078,-0.301142 -0.43587,-0.301143 -0.67361,-0.301143 -0.13472,0 -0.22982,0.0951 -0.0713,0.07132 -0.1268,0.174346 -0.0475,0.0951 -0.0713,0.158496 -0.0159,0.07132 -0.0555,0.118872 -0.0396,0.05547 -0.10302,0.05547 -0.11095,0 -0.11095,-0.103022 z"
           style="font-size:7.9248px;baseline-shift:sub;fill:#ffffff"
           id="path13817" />
      </g>
      <path
         id="circle1791"
         style="fill:none;fill-opacity:0.2;stroke:#ffffff;stroke-width:0.264583;stroke-linejoin:round;stop-color:#000000"
         d="m 486.90981,62.509399 a 7.5588932,7.5588932 0 0 1 -7.55889,7.558894 7.5588932,7.5588932 0 0 1 -7.55889,-7.558894 7.5588932,7.5588932 0 0 1 7.55889,-7.558893 7.5588932,7.5588932 0 0 1 7.55889,7.558893 z" />
      <path
         id="circle1793"
         style="fill:none;fill-opacity:0.2;stroke:#ffffff;stroke-width:0.264583;stroke-linejoin:round;stop-color:#000000"
         d="m 486.90981,115.42604 a 7.5588932,7.5588932 0 0 1 -7.55889,7.55889 7.5588932,7.5588932 0 0 1 -7.55889,-7.55889 7.5588932,7.5588932 0 0 1 7.55889,-7.55889 7.5588932,7.5588932 0 0 1 7.55889,7.55889 z" />
      <path
         id="rect1799"
         style="fill:none;fill-opacity:0.2;stroke:#00aaff;stroke-width:0.264583;stroke-linejoin:round;stop-color:#000000;stroke-opacity:1"
         d="M 579.74011,23.09547 H 629.7988 V 46.18951 H 579.74011 Z" />
      <path
         id="rect1801"
         style="fill:none;fill-opacity:0.2;stroke:#ffffff;stroke-width:0.264583;stroke-linejoin:round;stop-color:#000000"
         d="m 579.74011,76.012138 h 50.05869 v 23.09404 h -50.05869 z" />
      <path
         id="rect1803"
         style="fill:none;fill-opacity:0.2;stroke:#00aaff;stroke-width:0.264583;stroke-linejoin:round;stop-color:#000000;stroke-opacity:1"
         d="m 579.74011,128.92879 h 50.05869 v 23.09404 h -50.05869 z" />
      <g
         aria-label="x2"
         id="text1813"
         style="font-size:19.05px;line-height:1.25;font-family:'Fairy Godmother DEMO';-inkscape-font-specification:'Fairy Godmother DEMO';text-align:end;letter-spacing:0px;word-spacing:0px;text-anchor:end;stroke-width:0.264583;fill:#00aaff;fill-opacity:1">
        <path
           d="m 596.12899,143.14507 q 0,-0.40005 0.24765,-0.70485 0.2667,-0.3048 0.66675,-0.3048 0.28575,0 0.4572,0.1905 0.1905,0.17145 0.1905,0.43815 0,0.6477 -0.74295,0.89535 0.43815,0.24765 0.8382,0.24765 0.3048,0 0.55245,-0.13335 0.2667,-0.13335 0.47625,-0.43815 0.20955,-0.3048 0.3429,-0.59055 0.1524,-0.3048 0.3048,-0.85725 0.17145,-0.5715 0.2667,-0.9525 0.0953,-0.381 0.2667,-1.1049 0.17145,-0.74295 0.2667,-1.16205 0.2286,-1.00965 0.2286,-1.2954 0,-0.55245 -0.2667,-0.8763 -0.24765,-0.3429 -0.66675,-0.3429 -0.6477,0 -1.2573,0.62865 -0.59055,0.6096 -0.93345,1.58115 -0.019,0.0381 -0.0381,0.1143 -0.0191,0.0762 -0.0381,0.1143 -0.019,0.019 -0.0571,0.0952 -0.019,0.0572 -0.0571,0.0953 -0.0381,0.019 -0.0952,0.0381 -0.0381,0.019 -0.1143,0.019 -0.2667,0 -0.2667,-0.24765 0,-0.3048 0.3048,-0.9525 0.32385,-0.6477 1.0287,-1.27635 0.7239,-0.6477 1.58115,-0.6477 h 0.019 q 1.27635,0.019 1.8288,1.31445 0.7239,-1.31445 1.8669,-1.31445 0.59055,0 1.1049,0.3048 0.5334,0.3048 0.5334,0.89535 0,0.43815 -0.28575,0.7239 -0.28575,0.28575 -0.6477,0.28575 -0.2667,0 -0.4572,-0.17145 -0.17145,-0.17145 -0.17145,-0.43815 0,-0.28575 0.1905,-0.5334 0.1905,-0.2667 0.5334,-0.36195 -0.36195,-0.2667 -0.81915,-0.2667 -0.24765,0 -0.4953,0.1143 -0.24765,0.0952 -0.62865,0.62865 -0.36195,0.5334 -0.59055,1.4478 -0.17145,0.66675 -0.3429,1.35255 -0.1524,0.6858 -0.24765,1.0287 -0.0762,0.32385 -0.17145,0.6858 -0.0952,0.36195 -0.13335,0.51435 -0.019,0.1524 -0.0572,0.32385 -0.019,0.17145 -0.0381,0.2667 0,0.0762 0,0.20955 0,0.51435 0.24765,0.85725 0.24765,0.32385 0.6858,0.32385 0.6477,0 1.2573,-0.6096 0.6096,-0.62865 0.93345,-1.6002 0.019,-0.0381 0.0381,-0.1143 0.0381,-0.0762 0.0381,-0.1143 0.019,-0.0381 0.0381,-0.0952 0.0381,-0.0572 0.0762,-0.0762 0.0381,-0.0381 0.0762,-0.0572 0.0572,-0.019 0.13335,-0.019 0.2667,0 0.2667,0.24765 0,0.3048 -0.32385,0.9525 -0.3048,0.6477 -1.0287,1.2954 -0.7239,0.62865 -1.5621,0.62865 -0.5334,0 -1.04775,-0.28575 -0.51435,-0.3048 -0.78105,-1.00965 -0.24765,0.36195 -0.43815,0.59055 -0.17145,0.20955 -0.59055,0.4572 -0.40005,0.24765 -0.85725,0.24765 -0.62865,0 -1.143,-0.3048 -0.4953,-0.32385 -0.4953,-0.89535 z"
           style="font-family:'CMU Classical Serif';-inkscape-font-specification:'CMU Classical Serif';fill:#00aaff;fill-opacity:1"
           id="path13805" />
        <path
           d="m 604.99869,148.05711 q 0,-0.17336 0.17335,-0.60674 0.17336,-0.43339 0.69342,-1.11443 0.52007,-0.68104 1.25064,-1.15157 0.0124,0 0.39624,-0.23527 0.39624,-0.24765 0.60674,-0.39624 0.2105,-0.14859 0.59436,-0.50768 0.39624,-0.35909 0.60674,-0.7058 0.2105,-0.34671 0.38386,-0.87916 0.18574,-0.54483 0.18574,-1.13919 0,-0.61913 -0.29718,-0.97822 -0.29718,-0.37147 -0.79248,-0.37147 -0.66866,0 -1.26302,0.61912 -0.59436,0.60674 -0.89154,1.32493 -0.2848,0.7058 -0.2848,1.18872 0,0.39624 0.2848,0.39624 0.44577,0 0.81725,-0.60674 0.37147,-0.61913 0.37147,-1.05252 0,-0.1362 -0.0619,-0.32194 -0.0619,-0.18574 -0.0619,-0.2105 0,-0.0495 0.0371,-0.0867 0.0495,-0.0495 0.11145,-0.0371 0.0991,0.0248 0.17335,0.22289 0.0743,0.19812 0.0743,0.421 0,0.54483 -0.43339,1.25063 -0.43339,0.70581 -1.05251,0.70581 -0.30957,0 -0.47054,-0.21051 -0.16097,-0.22288 -0.16097,-0.55721 0,-0.35909 0.19812,-0.89154 0.19812,-0.54483 0.53245,-1.08966 0.34671,-0.55721 0.90392,-0.94107 0.56959,-0.39624 1.21348,-0.39624 0.84201,0 1.38684,0.58198 0.54483,0.58198 0.54483,1.49828 0,0.97822 -0.60674,1.6964 -0.60674,0.71819 -2.11741,1.58496 -0.0248,0.0124 -0.19812,0.11145 -0.16097,0.0991 -0.2105,0.1362 -0.0495,0.0248 -0.22288,0.12383 -0.16098,0.0991 -0.23527,0.14859 -0.0619,0.0495 -0.22289,0.16097 -0.14859,0.11144 -0.23526,0.19812 -0.0867,0.0867 -0.22289,0.22289 -0.13621,0.12382 -0.23527,0.24765 -0.0991,0.12382 -0.22288,0.28479 -0.11144,0.16098 -0.2105,0.33433 0.14859,-0.0371 0.29718,-0.0371 0.38385,0 1.16395,0.18574 0.7801,0.17336 1.15157,0.17336 0.29718,0 0.54483,-0.12383 0.26004,-0.13621 0.42101,-0.33433 0.17335,-0.2105 0.27241,-0.37147 0.0991,-0.16097 0.16098,-0.30956 0.0371,-0.0743 0.0743,-0.17336 0.0371,-0.11144 0.0495,-0.13621 0.0124,-0.0371 0.0495,-0.0619 0.0495,-0.0371 0.12383,-0.0371 0.17335,0 0.17335,0.16098 0,0.1362 -0.13621,0.48291 -0.12382,0.33433 -0.34671,0.74295 -0.22288,0.40863 -0.6315,0.71819 -0.40863,0.30956 -0.86678,0.30956 -0.4953,0 -1.18872,-0.47053 -0.68104,-0.47054 -1.05251,-0.47054 -0.2105,0 -0.35909,0.14859 -0.11145,0.11144 -0.19812,0.27242 -0.0743,0.14859 -0.11145,0.24765 -0.0248,0.11144 -0.0867,0.18573 -0.0619,0.0867 -0.16098,0.0867 -0.17335,0 -0.17335,-0.16097 z"
           style="font-size:65%;baseline-shift:sub;fill:#00aaff;fill-opacity:1"
           id="path13807" />
      </g>
      <g
         aria-label="h2"
         id="text1819"
         style="font-size:19.05px;line-height:1.25;font-family:'Fairy Godmother DEMO';-inkscape-font-specification:'Fairy Godmother DEMO';text-align:end;letter-spacing:0px;word-spacing:0px;text-anchor:end;stroke-width:0.264583;fill:#ffffff">
        <path
           d="m 595.65276,90.914187 q 0,-0.1143 0.20955,-0.9906 l 2.53365,-10.11555 q 0.1143,-0.43815 0.1143,-0.6477 0,-0.3048 -0.3429,-0.32385 -0.32385,-0.0381 -0.66675,-0.0381 -0.3429,-0.01905 -0.3429,-0.2667 0,-0.2286 0.2667,-0.3048 0.28575,-0.0762 1.1049,-0.13335 0.47625,-0.0381 0.78105,-0.05715 0.2667,-0.0381 0.381,-0.0381 0.3048,0 0.3048,0.24765 0,0.1143 -0.24765,1.12395 -0.24765,0.9906 -0.62865,2.4765 -0.381,1.46685 -0.55245,2.22885 1.16205,-1.27635 2.53365,-1.27635 h 0.019 q 0.8001,0 1.39065,0.4572 0.6096,0.4572 0.6096,1.524 0,0.9525 -0.762,3.10515 -0.74295,2.15265 -0.74295,2.57175 0,0.5334 0.43815,0.5334 1.0668,0 1.69545,-2.22885 0.0762,-0.3048 0.20955,-0.40005 0.13335,-0.09525 0.28575,-0.0381 0.1524,0.05715 0.1524,0.2286 0,0.1143 -0.1524,0.5334 -0.13335,0.4191 -0.40005,0.97155 -0.2667,0.5334 -0.78105,0.9525 -0.4953,0.4191 -1.08585,0.4191 -0.62865,0 -1.0287,-0.4191 -0.40005,-0.43815 -0.40005,-1.1049 0,-0.381 0.70485,-2.4003 0.70485,-2.03835 0.70485,-3.02895 0,-1.23825 -0.89535,-1.23825 -0.6096,0 -1.16205,0.3429 -0.55245,0.32385 -0.9144,0.8382 -0.36195,0.4953 -0.55245,0.8382 -0.1905,0.32385 -0.28575,0.55245 l -1.16205,4.62915 q -0.2286,0.9906 -0.81915,0.9906 -0.20955,0 -0.36195,-0.1524 -0.1524,-0.13335 -0.1524,-0.36195 z"
           style="font-family:'CMU Classical Serif';-inkscape-font-specification:'CMU Classical Serif';fill:#ffffff"
           id="path13800" />
        <path
           d="m 604.99869,95.140429 q 0,-0.173355 0.17335,-0.606742 0.17336,-0.433388 0.69342,-1.114425 0.52007,-0.681038 1.25064,-1.151573 0.0124,0 0.39624,-0.235267 0.39624,-0.24765 0.60674,-0.39624 0.2105,-0.14859 0.59436,-0.507683 0.39624,-0.359092 0.60674,-0.705802 0.2105,-0.34671 0.38386,-0.879157 0.18574,-0.54483 0.18574,-1.13919 0,-0.619125 -0.29718,-0.978218 -0.29718,-0.371475 -0.79248,-0.371475 -0.66866,0 -1.26302,0.619125 -0.59436,0.606743 -0.89154,1.324928 -0.2848,0.705802 -0.2848,1.188719 0,0.39624 0.2848,0.39624 0.44577,0 0.81725,-0.606742 0.37147,-0.619125 0.37147,-1.052512 0,-0.136208 -0.0619,-0.321945 -0.0619,-0.185738 -0.0619,-0.210503 0,-0.04953 0.0371,-0.08668 0.0495,-0.04953 0.11145,-0.03715 0.0991,0.02477 0.17335,0.222885 0.0743,0.19812 0.0743,0.421005 0,0.54483 -0.43339,1.250632 -0.43339,0.705803 -1.05251,0.705803 -0.30957,0 -0.47054,-0.210503 -0.16097,-0.222885 -0.16097,-0.557212 0,-0.359093 0.19812,-0.89154 0.19812,-0.54483 0.53245,-1.08966 0.34671,-0.557212 0.90392,-0.94107 0.56959,-0.39624 1.21348,-0.39624 0.84201,0 1.38684,0.581978 0.54483,0.581977 0.54483,1.498282 0,0.978217 -0.60674,1.696402 -0.60674,0.718185 -2.11741,1.58496 -0.0248,0.01238 -0.19812,0.111443 -0.16097,0.09906 -0.2105,0.136207 -0.0495,0.02477 -0.22288,0.123825 -0.16098,0.09906 -0.23527,0.14859 -0.0619,0.04953 -0.22289,0.160973 -0.14859,0.111442 -0.23526,0.19812 -0.0867,0.08668 -0.22289,0.222885 -0.13621,0.123825 -0.23527,0.24765 -0.0991,0.123825 -0.22288,0.284797 -0.11144,0.160973 -0.2105,0.334328 0.14859,-0.03715 0.29718,-0.03715 0.38385,0 1.16395,0.185738 0.7801,0.173355 1.15157,0.173355 0.29718,0 0.54483,-0.123825 0.26004,-0.136208 0.42101,-0.334328 0.17335,-0.210502 0.27241,-0.371475 0.0991,-0.160972 0.16098,-0.309562 0.0371,-0.0743 0.0743,-0.173355 0.0371,-0.111443 0.0495,-0.136208 0.0124,-0.03715 0.0495,-0.06191 0.0495,-0.03715 0.12383,-0.03715 0.17335,0 0.17335,0.160973 0,0.136207 -0.13621,0.482917 -0.12382,0.334328 -0.34671,0.74295 -0.22288,0.408622 -0.6315,0.718185 -0.40863,0.309562 -0.86678,0.309562 -0.4953,0 -1.18872,-0.470535 -0.68104,-0.470534 -1.05251,-0.470534 -0.2105,0 -0.35909,0.14859 -0.11145,0.111442 -0.19812,0.272414 -0.0743,0.14859 -0.11145,0.24765 -0.0248,0.111443 -0.0867,0.185738 -0.0619,0.08668 -0.16098,0.08668 -0.17335,0 -0.17335,-0.160972 z"
           style="font-size:65%;baseline-shift:sub;fill:#ffffff"
           id="path13802" />
      </g>
      <g
         aria-label="y2"
         id="text1825"
         style="font-size:19.05px;line-height:1.25;font-family:'Fairy Godmother DEMO';-inkscape-font-specification:'Fairy Godmother DEMO';text-align:end;letter-spacing:0px;word-spacing:0px;text-anchor:end;stroke-width:0.264583;fill:#00aaff;fill-opacity:1">
        <path
           d="m 596.5862,40.569272 q 0,-0.59055 0.28575,-0.89535 0.3048,-0.28575 0.66675,-0.28575 0.28575,0 0.4572,0.17145 0.1905,0.17145 0.1905,0.43815 0,0.28575 -0.2286,0.59055 -0.20955,0.3048 -0.74295,0.32385 0.32385,0.8763 1.20015,0.8763 0.85725,0 1.61925,-0.81915 0.762,-0.8001 1.2192,-2.2098 0.0952,-0.3048 0.24765,-0.9525 -0.8382,0.70485 -1.7145,0.70485 -0.85725,0 -1.50495,-0.4953 -0.62865,-0.4953 -0.62865,-1.69545 0,-0.62865 0.3048,-1.847849 0.32385,-1.23825 0.62865,-2.22885 0.32385,-1.00965 0.32385,-1.08585 0,-0.1905 -0.2667,-0.2286 -0.24765,-0.05715 -0.5715,-0.05715 -0.32385,0 -0.40005,-0.05715 -0.17145,-0.1143 -0.0381,-0.36195 0.0952,-0.1524 0.4191,-0.1905 1.905,-0.17145 2.11455,-0.17145 h 0.019 q 0.28575,0 0.28575,0.24765 0,0.17145 -0.2286,1.08585 -0.13335,0.4191 -0.3048,0.51435 -1.12395,3.771899 -1.12395,4.705349 0,1.42875 1.04775,1.42875 0.6477,0 1.20015,-0.4953 0.55245,-0.4953 0.7239,-0.93345 0.0381,-0.1143 0.0762,-0.3048 0.0571,-0.20955 0.0762,-0.28575 l 1.2573,-4.972049 0.019,-0.09525 q 0.019,-0.09525 0.0381,-0.1524 0.019,-0.0762 0.0571,-0.1905 0.0381,-0.1143 0.0953,-0.1905 0.0762,-0.09525 0.1524,-0.17145 0.0762,-0.0762 0.1905,-0.1143 0.1143,-0.05715 0.24765,-0.05715 0.20955,0 0.36195,0.1524 0.1524,0.13335 0.1524,0.36195 0,0.05715 -0.0381,0.17145 -0.019,0.1143 -0.019,0.13335 l -1.7526,7.029449 q -0.2667,1.04775 -0.7239,1.84785 -0.4572,0.81915 -0.93345,1.2573 -0.47625,0.43815 -1.0287,0.7239 -0.5334,0.28575 -0.9144,0.36195 -0.36195,0.0762 -0.6858,0.0762 -0.8001,0 -1.31445,-0.4572 -0.51435,-0.4572 -0.51435,-1.20015 z"
           style="font-family:'CMU Classical Serif';-inkscape-font-specification:'CMU Classical Serif';fill:#00aaff;fill-opacity:1"
           id="path13795" />
        <path
           d="m 604.99869,42.223765 q 0,-0.173355 0.17335,-0.606743 0.17336,-0.433387 0.69342,-1.114425 0.52007,-0.681037 1.25064,-1.151572 0.0124,0 0.39624,-0.235267 0.39624,-0.24765 0.60674,-0.39624 0.2105,-0.14859 0.59436,-0.507683 0.39624,-0.359092 0.60674,-0.705802 0.2105,-0.34671 0.38386,-0.879158 0.18574,-0.54483 0.18574,-1.139189 0,-0.619125 -0.29718,-0.978218 -0.29718,-0.371475 -0.79248,-0.371475 -0.66866,0 -1.26302,0.619125 -0.59436,0.606743 -0.89154,1.324927 -0.2848,0.705803 -0.2848,1.18872 0,0.39624 0.2848,0.39624 0.44577,0 0.81725,-0.606742 0.37147,-0.619125 0.37147,-1.052513 0,-0.136207 -0.0619,-0.321945 -0.0619,-0.185737 -0.0619,-0.210502 0,-0.04953 0.0371,-0.08668 0.0495,-0.04953 0.11145,-0.03715 0.0991,0.02477 0.17335,0.222885 0.0743,0.19812 0.0743,0.421005 0,0.54483 -0.43339,1.250632 -0.43339,0.705803 -1.05251,0.705803 -0.30957,0 -0.47054,-0.210503 -0.16097,-0.222885 -0.16097,-0.557212 0,-0.359093 0.19812,-0.89154 0.19812,-0.54483 0.53245,-1.08966 0.34671,-0.557212 0.90392,-0.94107 0.56959,-0.39624 1.21348,-0.39624 0.84201,0 1.38684,0.581978 0.54483,0.581977 0.54483,1.498282 0,0.978217 -0.60674,1.696402 -0.60674,0.718185 -2.11741,1.58496 -0.0248,0.01238 -0.19812,0.111443 -0.16097,0.09906 -0.2105,0.136207 -0.0495,0.02476 -0.22288,0.123825 -0.16098,0.09906 -0.23527,0.14859 -0.0619,0.04953 -0.22289,0.160973 -0.14859,0.111442 -0.23526,0.19812 -0.0867,0.08668 -0.22289,0.222885 -0.13621,0.123824 -0.23527,0.247649 -0.0991,0.123825 -0.22288,0.284798 -0.11144,0.160972 -0.2105,0.334327 0.14859,-0.03715 0.29718,-0.03715 0.38385,0 1.16395,0.185737 0.7801,0.173355 1.15157,0.173355 0.29718,0 0.54483,-0.123825 0.26004,-0.136207 0.42101,-0.334327 0.17335,-0.210503 0.27241,-0.371475 0.0991,-0.160973 0.16098,-0.309562 0.0371,-0.07429 0.0743,-0.173355 0.0371,-0.111443 0.0495,-0.136208 0.0124,-0.03715 0.0495,-0.06191 0.0495,-0.03715 0.12383,-0.03715 0.17335,0 0.17335,0.160973 0,0.136207 -0.13621,0.482917 -0.12382,0.334327 -0.34671,0.74295 -0.22288,0.408622 -0.6315,0.718185 -0.40863,0.309562 -0.86678,0.309562 -0.4953,0 -1.18872,-0.470535 -0.68104,-0.470535 -1.05251,-0.470535 -0.2105,0 -0.35909,0.14859 -0.11145,0.111443 -0.19812,0.272415 -0.0743,0.14859 -0.11145,0.24765 -0.0248,0.111443 -0.0867,0.185738 -0.0619,0.08668 -0.16098,0.08668 -0.17335,0 -0.17335,-0.160972 z"
           style="font-size:65%;baseline-shift:sub;fill:#00aaff;fill-opacity:1"
           id="path13797" />
      </g>
      <g
         aria-label="w1"
         id="text1837"
         style="font-size:19.05px;line-height:1.25;font-family:'Fairy Godmother DEMO';-inkscape-font-specification:'Fairy Godmother DEMO';text-align:end;letter-spacing:0px;word-spacing:0px;text-anchor:end;stroke-width:0.264583;fill:#ffffff">
        <path
           d="m 603.18177,112.11681 q 0,-0.13335 0.0381,-0.1905 0.0571,-0.0762 0.1905,-0.1143 0.1524,-0.0381 0.28575,-0.0572 0.13335,-0.019 0.43815,-0.0381 0.3048,-0.019 0.55245,-0.0571 0.0381,0 0.20955,-0.0381 0.1905,-0.0572 0.55245,-0.0572 h 0.20955 q 0.4191,0 0.4191,0.2667 -0.1905,1.3716 -0.5334,1.6002 -1.0668,3.5433 -1.0668,4.51485 0,0.89535 0.40005,1.2573 0.40005,0.3429 0.8763,0.3429 0.4572,0 0.8382,-0.40005 0.40005,-0.40005 0.55245,-0.7239 0.1524,-0.3429 0.1905,-0.51435 0.019,-0.0762 0.0381,-0.43815 0.0191,-0.381 0.1143,-0.78105 0.1905,-0.8382 1.04775,-4.2291 0.2286,-0.8763 0.81915,-0.8763 0.2286,0 0.381,0.1524 0.1524,0.1524 0.1524,0.381 0,0.17145 -0.6477,2.68605 -0.6477,2.49555 -0.6477,3.2004 0,0.81915 0.3429,1.1811 0.3429,0.36195 0.85725,0.36195 0.43815,0 0.81915,-0.2667 0.381,-0.2667 0.62865,-0.62865 0.2667,-0.36195 0.4953,-0.9525 0.24765,-0.59055 0.36195,-0.9906 0.1143,-0.40005 0.2667,-0.9906 0.2667,-1.0668 0.2667,-1.4859 0,-0.74295 -0.381,-1.2954 -0.36195,-0.55245 -0.36195,-0.70485 0,-0.28575 0.2667,-0.5715 0.28575,-0.28575 0.62865,-0.28575 0.3048,0 0.55245,0.3048 0.24765,0.3048 0.24765,1.0287 0,0.70485 -0.40005,2.3241 -0.381,1.6002 -0.74295,2.5146 -0.97155,2.49555 -2.7051,2.49555 -1.6002,0 -2.15265,-1.20015 -0.40005,0.59055 -0.8001,0.89535 -0.40005,0.28575 -1.0668,0.28575 -0.9525,0 -1.7145,-0.5334 -0.762,-0.55245 -0.762,-1.80975 0,-0.55245 0.3048,-1.77165 0.3048,-1.23825 0.6096,-2.2479 0.32385,-1.00965 0.32385,-1.0287 0,-0.2286 -0.6477,-0.24765 -0.6477,-0.0191 -0.6477,-0.2667 z"
           style="font-family:'CMU Classical Serif';-inkscape-font-specification:'CMU Classical Serif';fill:#ffffff"
           id="path13790" />
        <path
           d="m 614.41554,123.44299 q 0,-0.22289 0.30956,-0.22289 h 0.12383 q 0.73057,-0.0124 0.90392,-0.12382 0.17336,-0.11144 0.2848,-0.5696 l 1.43637,-5.69595 q -0.76772,0.4953 -1.31255,0.4953 -0.19812,0 -0.23526,-0.0991 -0.0371,-0.11144 0.0371,-0.2105 0.0495,-0.0619 0.26004,-0.0867 0.2105,-0.0371 0.47053,-0.0991 0.26003,-0.0619 0.7058,-0.39624 0.44577,-0.34671 0.91631,-0.94107 0.0991,-0.12382 0.18574,-0.12382 0.1362,0 0.1362,0.16097 0,0.0619 -0.0248,0.16097 l -1.75832,7.0085 q -0.0371,0.16097 -0.0371,0.26003 0,0.26003 0.6315,0.26003 0.0371,0 0.11145,0 0.0743,-0.0124 0.11144,-0.0124 0.26003,0 0.34671,0.0495 0.13621,0.0991 0.0248,0.26003 -0.0619,0.0867 -0.2105,0.0867 -0.0495,0 -0.24765,-0.0124 -0.19812,-0.0124 -0.55721,-0.0124 -0.35909,-0.0124 -0.7801,-0.0124 -0.421,0 -0.79248,0.0124 -0.35909,0 -0.56959,0.0124 -0.19812,0.0124 -0.24765,0.0124 -0.22289,0 -0.22289,-0.16097 z"
           style="font-size:65%;baseline-shift:sub;fill:#ffffff"
           id="path13792" />
      </g>
      <g
         aria-label="w3"
         id="text1843"
         style="font-size:19.05px;line-height:1.25;font-family:'Fairy Godmother DEMO';-inkscape-font-specification:'Fairy Godmother DEMO';text-align:end;letter-spacing:0px;word-spacing:0px;text-anchor:end;stroke-width:0.264583;fill:#ffffff">
        <path
           d="m 603.18177,59.20017 q 0,-0.13335 0.0381,-0.1905 0.0571,-0.0762 0.1905,-0.1143 0.1524,-0.0381 0.28575,-0.05715 0.13335,-0.01905 0.43815,-0.0381 0.3048,-0.01905 0.55245,-0.05715 0.0381,0 0.20955,-0.0381 0.1905,-0.05715 0.55245,-0.05715 h 0.20955 q 0.4191,0 0.4191,0.2667 -0.1905,1.3716 -0.5334,1.6002 -1.0668,3.543299 -1.0668,4.514849 0,0.89535 0.40005,1.2573 0.40005,0.3429 0.8763,0.3429 0.4572,0 0.8382,-0.40005 0.40005,-0.40005 0.55245,-0.7239 0.1524,-0.3429 0.1905,-0.51435 0.019,-0.0762 0.0381,-0.43815 0.0191,-0.381 0.1143,-0.78105 0.1905,-0.8382 1.04775,-4.229099 0.2286,-0.8763 0.81915,-0.8763 0.2286,0 0.381,0.1524 0.1524,0.1524 0.1524,0.381 0,0.17145 -0.6477,2.68605 -0.6477,2.495549 -0.6477,3.200399 0,0.81915 0.3429,1.1811 0.3429,0.36195 0.85725,0.36195 0.43815,0 0.81915,-0.2667 0.381,-0.2667 0.62865,-0.62865 0.2667,-0.36195 0.4953,-0.9525 0.24765,-0.59055 0.36195,-0.9906 0.1143,-0.40005 0.2667,-0.9906 0.2667,-1.066799 0.2667,-1.485899 0,-0.74295 -0.381,-1.2954 -0.36195,-0.55245 -0.36195,-0.70485 0,-0.28575 0.2667,-0.5715 0.28575,-0.28575 0.62865,-0.28575 0.3048,0 0.55245,0.3048 0.24765,0.3048 0.24765,1.0287 0,0.70485 -0.40005,2.3241 -0.381,1.600199 -0.74295,2.514599 -0.97155,2.49555 -2.7051,2.49555 -1.6002,0 -2.15265,-1.20015 -0.40005,0.59055 -0.8001,0.89535 -0.40005,0.28575 -1.0668,0.28575 -0.9525,0 -1.7145,-0.5334 -0.762,-0.55245 -0.762,-1.80975 0,-0.55245 0.3048,-1.77165 0.3048,-1.238249 0.6096,-2.247899 0.32385,-1.00965 0.32385,-1.0287 0,-0.2286 -0.6477,-0.24765 -0.6477,-0.01905 -0.6477,-0.2667 z"
           style="font-family:'CMU Classical Serif';-inkscape-font-specification:'CMU Classical Serif';fill:#ffffff"
           id="path13785" />
        <path
           d="m 614.11836,69.374774 q 0,-0.532447 0.18574,-0.74295 0.19812,-0.210502 0.45815,-0.210502 0.19812,0 0.30956,0.111442 0.11145,0.111443 0.11145,0.284798 0,0.19812 -0.16098,0.39624 -0.14859,0.19812 -0.4953,0.19812 h -0.0248 q 0.0248,0.4953 0.26003,0.804862 0.24765,0.29718 0.48292,0.383858 0.24765,0.0743 0.50768,0.0743 0.52007,0 1.00298,-0.309563 0.4953,-0.321945 0.76772,-0.829627 0.22288,-0.421005 0.34671,-0.965835 0.12382,-0.54483 0.12382,-0.817245 0,-1.027747 -0.9906,-1.027747 h -0.35909 q -0.26003,0 -0.26003,-0.160973 0,-0.222885 0.30956,-0.222885 0.0248,0 0.0743,0.01238 0.0495,0 0.0743,0 h 0.13621 q 0.55721,0 0.97822,-0.235268 0.43338,-0.235267 0.64389,-0.54483 0.22288,-0.321945 0.35909,-0.718185 0.13621,-0.39624 0.16097,-0.631507 0.0371,-0.24765 0.0371,-0.408623 0,-0.520064 -0.29718,-0.804862 -0.2848,-0.29718 -0.75533,-0.29718 -0.87916,0 -1.60973,0.69342 -0.71818,0.681037 -0.71818,1.423987 0,0.470535 0.34671,0.470535 0.23526,0 0.47053,-0.222885 0.24765,-0.222885 0.24765,-0.532447 0,-0.123825 -0.0743,-0.284798 -0.0619,-0.160972 -0.0619,-0.210502 0,-0.123825 0.12383,-0.123825 0.0867,0 0.18574,0.185737 0.11144,0.185738 0.11144,0.421005 0,0.421005 -0.32195,0.730568 -0.32194,0.309562 -0.71818,0.309562 -0.30956,0 -0.4953,-0.210502 -0.18574,-0.222885 -0.18574,-0.569595 0,-0.829628 0.82963,-1.597342 0.82963,-0.767715 1.9069,-0.767715 0.74295,0 1.25064,0.458152 0.52006,0.44577 0.52006,1.213485 0,0.74295 -0.52006,1.43637 -0.52007,0.681037 -1.4859,1.064895 0.43338,0.19812 0.7058,0.606742 0.27241,0.408623 0.27241,0.965835 0,1.114425 -0.97821,1.956435 -0.96584,0.829627 -2.12979,0.829627 -0.74295,0 -1.20111,-0.433387 -0.45815,-0.44577 -0.45815,-1.151573 z"
           style="font-size:65%;baseline-shift:sub;fill:#ffffff"
           id="path13787" />
      </g>
      <g
         aria-label="b1"
         id="text1849"
         style="font-size:12.192px;line-height:1.25;font-family:'Fairy Godmother DEMO';-inkscape-font-specification:'Fairy Godmother DEMO';text-align:end;letter-spacing:0px;word-spacing:0px;text-anchor:end;stroke-width:0.264583;fill:#ffffff">
        <path
           d="m 571.15311,116.39329 q 0,-0.42672 0.18288,-1.15824 l 1.12166,-4.51104 q 0.061,-0.21946 0.061,-0.317 0,-0.21945 -0.43891,-0.21945 -0.43891,-0.0122 -0.43891,-0.18288 0,-0.061 0.0244,-0.0975 0.0244,-0.0366 0.0488,-0.061 0.0244,-0.0244 0.0732,-0.0366 0.0488,-0.0244 0.0731,-0.0244 0.0244,0 0.0732,0 0.061,-0.0122 0.0732,-0.0122 0.15849,-0.0122 0.48768,-0.0366 0.32918,-0.0366 0.53644,-0.0488 0.21946,-0.0244 0.24384,-0.0244 0.19508,0 0.19508,0.17069 0,0.0731 -0.061,0.28042 l -0.81687,3.27964 q 0.68275,-0.65836 1.29235,-0.65836 0.65837,0 1.0729,0.53644 0.41453,0.53645 0.41453,1.36551 0,1.34112 -0.89002,2.48717 -0.87782,1.13385 -1.91414,1.13385 -0.63399,0 -1.02413,-0.51206 -0.39014,-0.52426 -0.39014,-1.35331 z m 0.69494,0.42672 q 0,0.4511 0.17069,0.80467 0.17069,0.35357 0.56083,0.35357 0.53645,0 1.03632,-0.71933 0.39014,-0.56083 0.64618,-1.60935 0.26822,-1.0607 0.26822,-1.56057 0,-0.51207 -0.18288,-0.79248 -0.17069,-0.28042 -0.47549,-0.28042 -0.3048,0 -0.67056,0.26823 -0.36576,0.25603 -0.67056,0.69494 -0.0732,0.10973 -0.12192,0.21946 -0.0488,0.0975 -0.0731,0.17068 -0.0122,0.0732 -0.0853,0.35357 -0.061,0.26823 -0.10973,0.47549 -0.29261,1.13386 -0.29261,1.62154 z"
           style="font-family:'CMU Classical Serif';-inkscape-font-specification:'CMU Classical Serif';fill:#ffffff"
           id="path13780" />
        <path
           d="m 576.31884,120.45993 q 0,-0.14265 0.19812,-0.14265 h 0.0793 q 0.46757,-0.008 0.57851,-0.0793 0.11095,-0.0713 0.18227,-0.36454 l 0.91928,-3.64541 q -0.49134,0.317 -0.84003,0.317 -0.1268,0 -0.15057,-0.0634 -0.0238,-0.0713 0.0238,-0.13472 0.0317,-0.0396 0.16643,-0.0555 0.13472,-0.0238 0.30114,-0.0634 0.16642,-0.0396 0.45171,-0.25359 0.28529,-0.22189 0.58644,-0.60228 0.0634,-0.0793 0.11887,-0.0793 0.0872,0 0.0872,0.10302 0,0.0396 -0.0159,0.10302 l -1.12532,4.48544 q -0.0238,0.10302 -0.0238,0.16642 0,0.16642 0.40416,0.16642 0.0238,0 0.0713,0 0.0476,-0.008 0.0713,-0.008 0.16642,0 0.22189,0.0317 0.0872,0.0634 0.0159,0.16642 -0.0396,0.0555 -0.13472,0.0555 -0.0317,0 -0.1585,-0.008 -0.12679,-0.008 -0.35661,-0.008 -0.22982,-0.008 -0.49927,-0.008 -0.26944,0 -0.50718,0.008 -0.22982,0 -0.36454,0.008 -0.1268,0.008 -0.1585,0.008 -0.14265,0 -0.14265,-0.10302 z"
           style="font-size:7.9248px;baseline-shift:sub;fill:#ffffff"
           id="path13782" />
      </g>
      <g
         aria-label="b2"
         id="text1855"
         style="font-size:12.192px;line-height:1.25;font-family:'Fairy Godmother DEMO';-inkscape-font-specification:'Fairy Godmother DEMO';text-align:end;letter-spacing:0px;word-spacing:0px;text-anchor:end;stroke-width:0.264583;fill:#ffffff">
        <path
           d="m 571.21329,63.476645 q 0,-0.42672 0.18288,-1.15824 l 1.12166,-4.511041 q 0.061,-0.219456 0.061,-0.316992 0,-0.219456 -0.43891,-0.219456 -0.43891,-0.01219 -0.43891,-0.18288 0,-0.06096 0.0244,-0.09754 0.0244,-0.03658 0.0488,-0.06096 0.0244,-0.02438 0.0731,-0.03658 0.0488,-0.02438 0.0732,-0.02438 0.0244,0 0.0731,0 0.061,-0.01219 0.0732,-0.01219 0.15849,-0.01219 0.48768,-0.03658 0.32918,-0.03658 0.53644,-0.04877 0.21946,-0.02438 0.24384,-0.02438 0.19508,0 0.19508,0.170688 0,0.07315 -0.061,0.280416 l -0.81687,3.279648 q 0.68275,-0.658368 1.29235,-0.658368 0.65837,0 1.0729,0.536448 0.41453,0.536448 0.41453,1.365505 0,1.34112 -0.89002,2.487168 -0.87782,1.133856 -1.91414,1.133856 -0.63399,0 -1.02413,-0.512064 -0.39014,-0.524256 -0.39014,-1.353312 z m 0.69494,0.42672 q 0,0.451104 0.17069,0.804672 0.17069,0.353568 0.56083,0.353568 0.53645,0 1.03632,-0.719328 0.39014,-0.560832 0.64618,-1.609344 0.26822,-1.060704 0.26822,-1.560576 0,-0.512065 -0.18288,-0.792481 -0.17069,-0.280416 -0.47549,-0.280416 -0.3048,0 -0.67056,0.268224 -0.36576,0.256032 -0.67056,0.694944 -0.0731,0.109729 -0.12192,0.219457 -0.0488,0.09754 -0.0732,0.170688 -0.0122,0.07315 -0.0853,0.353568 -0.061,0.268224 -0.10973,0.475488 -0.29261,1.133856 -0.29261,1.621536 z"
           style="font-family:'CMU Classical Serif';-inkscape-font-specification:'CMU Classical Serif';fill:#ffffff"
           id="path13775" />
        <path
           d="m 576.10958,67.717632 q 0,-0.110947 0.11095,-0.388315 0.11095,-0.277368 0.44379,-0.713232 0.33284,-0.435864 0.8004,-0.737007 0.008,0 0.2536,-0.150571 0.25359,-0.158496 0.38831,-0.253594 0.13472,-0.0951 0.38039,-0.324916 0.2536,-0.22982 0.38832,-0.451714 0.13472,-0.221894 0.24567,-0.562661 0.11887,-0.348691 0.11887,-0.729081 0,-0.39624 -0.1902,-0.626059 -0.19019,-0.237744 -0.50718,-0.237744 -0.42794,0 -0.80833,0.39624 -0.38039,0.388315 -0.57059,0.847953 -0.18227,0.451714 -0.18227,0.760781 0,0.253593 0.18227,0.253593 0.28529,0 0.52304,-0.388315 0.23774,-0.39624 0.23774,-0.673608 0,-0.08717 -0.0396,-0.206044 -0.0396,-0.118872 -0.0396,-0.134722 0,-0.0317 0.0238,-0.05547 0.0317,-0.0317 0.0713,-0.02377 0.0634,0.01585 0.11095,0.142646 0.0476,0.126797 0.0476,0.269444 0,0.348691 -0.27737,0.800404 -0.27737,0.451714 -0.67361,0.451714 -0.19812,0 -0.30114,-0.134722 -0.10302,-0.142646 -0.10302,-0.356616 0,-0.229819 0.12679,-0.570585 0.1268,-0.348691 0.34077,-0.697383 0.22189,-0.356616 0.57851,-0.602284 0.36454,-0.253594 0.77663,-0.253594 0.53889,0 0.88758,0.372466 0.34869,0.372465 0.34869,0.9589 0,0.626059 -0.38832,1.085698 -0.38831,0.459638 -1.35514,1.014374 -0.0159,0.0079 -0.12679,0.07132 -0.10303,0.0634 -0.13473,0.08717 -0.0317,0.01585 -0.14264,0.07925 -0.10302,0.0634 -0.15057,0.0951 -0.0396,0.0317 -0.14265,0.103022 -0.0951,0.07132 -0.15057,0.126797 -0.0555,0.05547 -0.14265,0.142646 -0.0872,0.07925 -0.15057,0.158496 -0.0634,0.07925 -0.14264,0.182271 -0.0713,0.103022 -0.13473,0.213969 0.0951,-0.02377 0.1902,-0.02377 0.24567,0 0.74493,0.118872 0.49926,0.110947 0.73701,0.110947 0.19019,0 0.34869,-0.07925 0.16642,-0.08717 0.26944,-0.213969 0.11095,-0.134722 0.17435,-0.237744 0.0634,-0.103023 0.10302,-0.19812 0.0238,-0.04755 0.0476,-0.110948 0.0238,-0.07132 0.0317,-0.08717 0.008,-0.02378 0.0317,-0.03962 0.0317,-0.02378 0.0792,-0.02378 0.11095,0 0.11095,0.103023 0,0.08717 -0.0872,0.309067 -0.0793,0.213969 -0.2219,0.475488 -0.14264,0.261518 -0.40416,0.459638 -0.26152,0.19812 -0.55474,0.19812 -0.31699,0 -0.76078,-0.301142 -0.43586,-0.301143 -0.67361,-0.301143 -0.13472,0 -0.22981,0.0951 -0.0713,0.07132 -0.1268,0.174346 -0.0476,0.0951 -0.0713,0.158496 -0.0158,0.07132 -0.0555,0.118872 -0.0396,0.05547 -0.10302,0.05547 -0.11095,0 -0.11095,-0.103022 z"
           style="font-size:7.9248px;baseline-shift:sub;fill:#ffffff"
           id="path13777" />
      </g>
      <path
         id="circle1857"
         style="fill:none;fill-opacity:0.2;stroke:#ffffff;stroke-width:0.264583;stroke-linejoin:round;stop-color:#000000"
         d="m 582.15997,62.509399 a 7.5588932,7.5588932 0 0 1 -7.5589,7.558894 7.5588932,7.5588932 0 0 1 -7.55889,-7.558894 7.5588932,7.5588932 0 0 1 7.55889,-7.558893 7.5588932,7.5588932 0 0 1 7.5589,7.558893 z" />
      <path
         id="circle1859"
         style="fill:none;fill-opacity:0.2;stroke:#ffffff;stroke-width:0.264583;stroke-linejoin:round;stop-color:#000000"
         d="m 582.15997,115.42604 a 7.5588932,7.5588932 0 0 1 -7.5589,7.55889 7.5588932,7.5588932 0 0 1 -7.55889,-7.55889 7.5588932,7.5588932 0 0 1 7.55889,-7.55889 7.5588932,7.5588932 0 0 1 7.5589,7.55889 z" />
      <path
         style="color:#000000;fill:#ffffff;stroke-width:0.264583;-inkscape-stroke:none"
         d="M 408.97779,127.74681 V 105.78463"
         id="path5005" />
      <path
         style="color:#000000;fill:#ffffff;-inkscape-stroke:none"
         d="m 408.8457,105.78516 v 21.96093 h 0.26367 v -21.96093 z"
         id="path5007" />
      <g
         id="g4999"
         style="fill:#ffffff;fill-opacity:1">
        <path
           style="fill:#ffffff;fill-opacity:1;fill-rule:evenodd;stroke-width:0.5"
           d="m 408.97779,105.78463 2.5,2.5 -2.5,-8.75 -2.5,8.75 z"
           id="path5001" />
      </g>
      <path
         style="color:#000000;fill:#ffffff;stroke-width:0.264583;-inkscape-stroke:none"
         d="M 408.97779,74.830125 V 52.867957"
         id="path5017" />
      <path
         style="color:#000000;fill:#ffffff;-inkscape-stroke:none"
         d="m 408.8457,52.867187 v 21.962891 h 0.26367 V 52.867187 Z"
         id="path5019" />
      <g
         id="g5011"
         style="fill:#ffffff;fill-opacity:1">
        <path
           style="fill:#ffffff;fill-opacity:1;fill-rule:evenodd;stroke-width:0.5"
           d="m 408.97779,52.867957 2.5,2.5 -2.5,-8.75 -2.5,8.75 z"
           id="path5013" />
      </g>
      <path
         style="color:#000000;fill:#ffffff;stroke-width:0.264583;-inkscape-stroke:none"
         d="m 389.39862,109.22598 5.29166,-6.08718"
         id="path4993" />
      <path
         style="color:#000000;fill:#ffffff;-inkscape-stroke:none"
         d="m 394.58984,103.05273 -5.29101,6.08594 0.19922,0.17383 5.29297,-6.08594 z"
         id="path4995" />
      <g
         id="g4987"
         style="fill:#ffffff;fill-opacity:1">
        <path
           style="fill:#ffffff;fill-opacity:1;fill-rule:evenodd;stroke-width:0.5"
           d="m 394.69028,103.1388 0.24658,3.52693 3.85386,-8.243805 -7.62737,4.963455 z"
           id="path4989" />
      </g>
      <path
         style="color:#000000;fill:#ffffff;stroke-width:0.264583;-inkscape-stroke:none"
         d="m 389.39862,56.309292 5.29166,-6.087168"
         id="path4981" />
      <path
         style="color:#000000;fill:#ffffff;-inkscape-stroke:none"
         d="m 394.58984,50.134766 -5.29101,6.08789 0.19922,0.173828 5.29297,-6.08789 z"
         id="path4983" />
      <g
         id="g4975"
         style="fill:#ffffff;fill-opacity:1">
        <path
           style="fill:#ffffff;fill-opacity:1;fill-rule:evenodd;stroke-width:0.5"
           d="m 394.69028,50.222124 0.24657,3.526925 3.85387,-8.243796 -7.62737,4.963443 z"
           id="path4977" />
      </g>
      <path
         style="color:#000000;fill:#ffffff;stroke-width:0.264583;-inkscape-stroke:none"
         d="M 504.22785,127.74681 V 105.78463"
         id="path5053" />
      <path
         style="color:#000000;fill:#ffffff;-inkscape-stroke:none"
         d="m 504.0957,105.78516 v 21.96093 h 0.26367 v -21.96093 z"
         id="path5055" />
      <g
         id="g5047"
         style="fill:#ffffff;fill-opacity:1">
        <path
           style="fill:#ffffff;fill-opacity:1;fill-rule:evenodd;stroke-width:0.5"
           d="m 504.22785,105.78463 2.5,2.5 -2.5,-8.75 -2.5,8.75 z"
           id="path5049" />
      </g>
      <path
         style="color:#000000;fill:#ffffff;stroke-width:0.264583;-inkscape-stroke:none"
         d="M 504.22785,74.830125 V 52.867957"
         id="path5077" />
      <path
         style="color:#000000;fill:#ffffff;-inkscape-stroke:none"
         d="m 504.0957,52.867187 v 21.962891 h 0.26367 V 52.867187 Z"
         id="path5079" />
      <g
         id="g5071"
         style="fill:#ffffff;fill-opacity:1">
        <path
           style="fill:#ffffff;fill-opacity:1;fill-rule:evenodd;stroke-width:0.5"
           d="m 504.22785,52.867957 2.5,2.5 -2.5,-8.75 -2.5,8.75 z"
           id="path5073" />
      </g>
      <path
         style="color:#000000;fill:#ffffff;stroke-width:0.264583;-inkscape-stroke:none"
         d="m 484.64868,109.22598 5.29166,-6.08718"
         id="path5041" />
      <path
         style="color:#000000;fill:#ffffff;-inkscape-stroke:none"
         d="m 489.83984,103.05273 -5.29101,6.08594 0.19922,0.17383 5.29297,-6.08594 z"
         id="path5043" />
      <g
         id="g5035"
         style="fill:#ffffff;fill-opacity:1">
        <path
           style="fill:#ffffff;fill-opacity:1;fill-rule:evenodd;stroke-width:0.5"
           d="m 489.94034,103.1388 0.24658,3.52693 3.85386,-8.243805 -7.62737,4.963455 z"
           id="path5037" />
      </g>
      <path
         style="color:#000000;fill:#ffffff;stroke-width:0.264583;-inkscape-stroke:none"
         d="m 484.64868,56.309292 5.29166,-6.087168"
         id="path5065" />
      <path
         style="color:#000000;fill:#ffffff;-inkscape-stroke:none"
         d="m 489.83984,50.134766 -5.29101,6.08789 0.19922,0.173828 5.29297,-6.08789 z"
         id="path5067" />
      <g
         id="g5059"
         style="fill:#ffffff;fill-opacity:1">
        <path
           style="fill:#ffffff;fill-opacity:1;fill-rule:evenodd;stroke-width:0.5"
           d="m 489.94034,50.222124 0.24657,3.526925 3.85387,-8.243796 -7.62737,4.963443 z"
           id="path5061" />
      </g>
      <path
         style="color:#000000;fill:#ffffff;stroke-width:0.264583;-inkscape-stroke:none"
         d="M 599.47791,127.74681 V 105.78463"
         id="path5125" />
      <path
         style="color:#000000;fill:#ffffff;-inkscape-stroke:none"
         d="m 599.3457,105.78516 v 21.96093 h 0.26367 v -21.96093 z"
         id="path5127" />
      <g
         id="g5119"
         style="fill:#ffffff;fill-opacity:1">
        <path
           style="fill:#ffffff;fill-opacity:1;fill-rule:evenodd;stroke-width:0.5"
           d="m 599.47791,105.78463 2.5,2.5 -2.5,-8.75 -2.5,8.75 z"
           id="path5121" />
      </g>
      <path
         style="color:#000000;fill:#ffffff;stroke-width:0.264583;-inkscape-stroke:none"
         d="M 599.47791,74.830125 V 52.867957"
         id="path5101" />
      <path
         style="color:#000000;fill:#ffffff;-inkscape-stroke:none"
         d="m 599.3457,52.867187 v 21.962891 h 0.26367 V 52.867187 Z"
         id="path5103" />
      <g
         id="g5095"
         style="fill:#ffffff;fill-opacity:1">
        <path
           style="fill:#ffffff;fill-opacity:1;fill-rule:evenodd;stroke-width:0.5"
           d="m 599.47791,52.867957 2.5,2.5 -2.5,-8.75 -2.5,8.75 z"
           id="path5097" />
      </g>
      <path
         style="color:#000000;fill:#ffffff;stroke-width:0.264583;-inkscape-stroke:none"
         d="m 579.89874,109.22598 5.29166,-6.08718"
         id="path5113" />
      <path
         style="color:#000000;fill:#ffffff;-inkscape-stroke:none"
         d="m 585.08984,103.05273 -5.29101,6.08594 0.19922,0.17383 5.29297,-6.08594 z"
         id="path5115" />
      <g
         id="g5107"
         style="fill:#ffffff;fill-opacity:1">
        <path
           style="fill:#ffffff;fill-opacity:1;fill-rule:evenodd;stroke-width:0.5"
           d="m 585.1904,103.1388 0.24658,3.52693 3.85386,-8.243805 -7.62737,4.963455 z"
           id="path5109" />
      </g>
      <path
         style="color:#000000;fill:#ffffff;stroke-width:0.264583;-inkscape-stroke:none"
         d="m 579.89874,56.309292 5.29166,-6.087168"
         id="path5089" />
      <path
         style="color:#000000;fill:#ffffff;-inkscape-stroke:none"
         d="m 585.08984,50.134766 -5.29101,6.08789 0.19922,0.173828 5.29297,-6.08789 z"
         id="path5091" />
      <g
         id="g5083"
         style="fill:#ffffff;fill-opacity:1">
        <path
           style="fill:#ffffff;fill-opacity:1;fill-rule:evenodd;stroke-width:0.5"
           d="m 585.1904,50.222124 0.24657,3.526925 3.85387,-8.243796 -7.62737,4.963443 z"
           id="path5085" />
      </g>
      <path
         style="color:#000000;fill:#ffffff;stroke-width:0.264583;-inkscape-stroke:none"
         d="m 440.41221,92.515946 h 37.83717"
         id="path5029" />
      <path
         style="color:#000000;fill:#ffffff;-inkscape-stroke:none"
         d="m 440.41211,92.382812 v 0.265625 H 478.25 v -0.265625 z"
         id="path5031" />
      <g
         id="g5023"
         style="fill:#ffffff;fill-opacity:1">
        <path
           style="fill:#ffffff;fill-opacity:1;fill-rule:evenodd;stroke-width:0.5"
           d="m 478.24938,92.515946 -2.5,2.5 8.75,-2.5 -8.75,-2.5 z"
           id="path5025" />
      </g>
      <path
         style="color:#000000;fill:#ffffff;stroke-width:0.264583;-inkscape-stroke:none"
         d="m 535.66227,92.515946 h 37.83717"
         id="path5137" />
      <path
         style="color:#000000;fill:#ffffff;-inkscape-stroke:none"
         d="m 535.66211,92.382812 v 0.265625 H 573.5 v -0.265625 z"
         id="path5139" />
      <g
         id="g5131"
         style="fill:#ffffff;fill-opacity:1">
        <path
           style="fill:#ffffff;fill-opacity:1;fill-rule:evenodd;stroke-width:0.5"
           d="m 573.49944,92.515946 -2.5,2.5 8.75,-2.5 -8.75,-2.5 z"
           id="path5133" />
      </g>
    </g>
  </g>
</svg>
