<?xml version="1.0" encoding="UTF-8" standalone="no"?>
<!-- Created with Inkscape (http://www.inkscape.org/) -->

<svg
   width="115.2962mm"
   height="129.19194mm"
   viewBox="0 0 115.2962 129.19194"
   version="1.1"
   id="svg5"
   inkscape:version="1.2.2 (b0a8486541, 2022-12-01)"
   sodipodi:docname="rnn.svg"
   xml:space="preserve"
   xmlns:inkscape="http://www.inkscape.org/namespaces/inkscape"
   xmlns:sodipodi="http://sodipodi.sourceforge.net/DTD/sodipodi-0.dtd"
   xmlns="http://www.w3.org/2000/svg"
   xmlns:svg="http://www.w3.org/2000/svg"><sodipodi:namedview
     id="namedview7"
     pagecolor="#505050"
     bordercolor="#eeeeee"
     borderopacity="1"
     inkscape:showpageshadow="0"
     inkscape:pageopacity="0"
     inkscape:pagecheckerboard="0"
     inkscape:deskcolor="#505050"
     inkscape:document-units="mm"
     showgrid="false"
     inkscape:zoom="1.0217435"
     inkscape:cx="193.78641"
     inkscape:cy="178.61626"
     inkscape:window-width="1854"
     inkscape:window-height="965"
     inkscape:window-x="0"
     inkscape:window-y="0"
     inkscape:window-maximized="1"
     inkscape:current-layer="g1655" /><defs
     id="defs2" /><g
     inkscape:label="Layer 1"
     inkscape:groupmode="layer"
     id="layer1"
     transform="translate(-16.376,-6.7049169)"><g
       id="g1655"
       transform="translate(-360.03392,-16.258262)"><rect
         style="fill:none;fill-opacity:0.2;stroke:#ffffff;stroke-width:0.264583;stroke-linejoin:round;stroke-dasharray:none;stop-color:#000000"
         id="rect234"
         width="50.058689"
         height="23.09404"
         x="389.24011"
         y="23.09547" /><rect
         style="fill:none;fill-opacity:0.2;stroke:#ffffff;stroke-width:0.264583;stroke-linejoin:round;stroke-dasharray:none;stop-color:#000000"
         id="rect950"
         width="50.058689"
         height="23.09404"
         x="389.24011"
         y="76.012138" /><rect
         style="fill:none;fill-opacity:0.2;stroke:#ffffff;stroke-width:0.264583;stroke-linejoin:round;stroke-dasharray:none;stop-color:#000000"
         id="rect952"
         width="50.058689"
         height="23.09404"
         x="389.24011"
         y="128.92879" /><g
         aria-label="xt"
         id="text1452"
         style="font-size:19.05px;line-height:1.25;font-family:'Fairy Godmother DEMO';-inkscape-font-specification:'Fairy Godmother DEMO';text-align:end;letter-spacing:0px;word-spacing:0px;text-anchor:end;stroke-width:0.264583;fill:#ffffff"><path
           d="m 407.84524,143.14507 q 0,-0.40005 0.24765,-0.70485 0.2667,-0.3048 0.66675,-0.3048 0.28575,0 0.4572,0.1905 0.1905,0.17145 0.1905,0.43815 0,0.6477 -0.74295,0.89535 0.43815,0.24765 0.8382,0.24765 0.3048,0 0.55245,-0.13335 0.2667,-0.13335 0.47625,-0.43815 0.20955,-0.3048 0.3429,-0.59055 0.1524,-0.3048 0.3048,-0.85725 0.17145,-0.5715 0.2667,-0.9525 0.0952,-0.381 0.2667,-1.1049 0.17145,-0.74295 0.2667,-1.16205 0.2286,-1.00965 0.2286,-1.2954 0,-0.55245 -0.2667,-0.8763 -0.24765,-0.3429 -0.66675,-0.3429 -0.6477,0 -1.2573,0.62865 -0.59055,0.6096 -0.93345,1.58115 -0.019,0.0381 -0.0381,0.1143 -0.019,0.0762 -0.0381,0.1143 -0.019,0.019 -0.0572,0.0952 -0.019,0.0572 -0.0571,0.0953 -0.0381,0.019 -0.0953,0.0381 -0.0381,0.019 -0.1143,0.019 -0.2667,0 -0.2667,-0.24765 0,-0.3048 0.3048,-0.9525 0.32385,-0.6477 1.0287,-1.27635 0.7239,-0.6477 1.58115,-0.6477 h 0.019 q 1.27635,0.019 1.8288,1.31445 0.7239,-1.31445 1.8669,-1.31445 0.59055,0 1.1049,0.3048 0.5334,0.3048 0.5334,0.89535 0,0.43815 -0.28575,0.7239 -0.28575,0.28575 -0.6477,0.28575 -0.2667,0 -0.4572,-0.17145 -0.17145,-0.17145 -0.17145,-0.43815 0,-0.28575 0.1905,-0.5334 0.1905,-0.2667 0.5334,-0.36195 -0.36195,-0.2667 -0.81915,-0.2667 -0.24765,0 -0.4953,0.1143 -0.24765,0.0952 -0.62865,0.62865 -0.36195,0.5334 -0.59055,1.4478 -0.17145,0.66675 -0.3429,1.35255 -0.1524,0.6858 -0.24765,1.0287 -0.0762,0.32385 -0.17145,0.6858 -0.0953,0.36195 -0.13335,0.51435 -0.019,0.1524 -0.0571,0.32385 -0.019,0.17145 -0.0381,0.2667 0,0.0762 0,0.20955 0,0.51435 0.24765,0.85725 0.24765,0.32385 0.6858,0.32385 0.6477,0 1.2573,-0.6096 0.6096,-0.62865 0.93345,-1.6002 0.019,-0.0381 0.0381,-0.1143 0.0381,-0.0762 0.0381,-0.1143 0.0191,-0.0381 0.0381,-0.0952 0.0381,-0.0572 0.0762,-0.0762 0.0381,-0.0381 0.0762,-0.0572 0.0571,-0.019 0.13335,-0.019 0.2667,0 0.2667,0.24765 0,0.3048 -0.32385,0.9525 -0.3048,0.6477 -1.0287,1.2954 -0.7239,0.62865 -1.5621,0.62865 -0.5334,0 -1.04775,-0.28575 -0.51435,-0.3048 -0.78105,-1.00965 -0.24765,0.36195 -0.43815,0.59055 -0.17145,0.20955 -0.59055,0.4572 -0.40005,0.24765 -0.85725,0.24765 -0.62865,0 -1.143,-0.3048 -0.4953,-0.32385 -0.4953,-0.89535 z"
           style="font-family:'CMU Classical Serif';-inkscape-font-specification:'CMU Classical Serif';fill:#ffffff"
           id="path13707" /><path
           d="m 416.81399,142.83169 q 0,-0.2105 0.27241,-0.2105 0.0619,0 0.18574,0 0.12383,-0.0124 0.18574,-0.0124 0.12382,0 0.35909,0.0124 0.24765,0 0.37148,0 l 0.44577,-1.79546 q 0.0371,-0.14859 0.0495,-0.17336 0.0124,-0.0371 0.0495,-0.0991 0.0371,-0.0743 0.0867,-0.0743 0.0619,-0.0124 0.16098,-0.0124 h 0.22288 q 0.27242,0 0.27242,0.16097 0,0.2105 -0.48292,1.99358 h 1.01536 q 0.26004,0 0.26004,0.16097 0,0.13621 -0.0991,0.18574 -0.0991,0.0372 -0.34671,0.0372 h -0.19812 q -0.12383,0 -0.37148,0 -0.23527,-0.0124 -0.35909,-0.0124 -0.0248,0.0743 -0.0619,0.24765 -0.0371,0.17335 -0.0619,0.24765 l -0.74295,3.00894 q -0.1362,0.5696 -0.1362,0.80487 0,0.4953 0.34671,0.4953 0.81724,0 1.44875,-1.58496 0.0619,-0.16098 0.22288,-0.16098 0.16098,0 0.16098,0.13621 0,0.33433 -0.55722,1.11443 -0.55721,0.78009 -1.31254,0.78009 -0.47054,0 -0.76772,-0.30956 -0.28479,-0.32194 -0.28479,-0.80486 0,-0.26003 0.0867,-0.54483 l 0.8544,-3.42995 h -1.00299 q -0.27241,0 -0.27241,-0.16098 z"
           style="font-size:65%;baseline-shift:sub;fill:#ffffff"
           id="path13709" /></g><g
         aria-label="ht"
         id="text1460"
         style="font-size:19.05px;line-height:1.25;font-family:'Fairy Godmother DEMO';-inkscape-font-specification:'Fairy Godmother DEMO';text-align:end;letter-spacing:0px;word-spacing:0px;text-anchor:end;stroke-width:0.264583;fill:#ffffff"><path
           d="m 407.369,90.914187 q 0,-0.1143 0.20955,-0.9906 l 2.53365,-10.11555 q 0.1143,-0.43815 0.1143,-0.6477 0,-0.3048 -0.3429,-0.32385 -0.32385,-0.0381 -0.66675,-0.0381 -0.3429,-0.01905 -0.3429,-0.2667 0,-0.2286 0.2667,-0.3048 0.28575,-0.0762 1.1049,-0.13335 0.47625,-0.0381 0.78105,-0.05715 0.2667,-0.0381 0.381,-0.0381 0.3048,0 0.3048,0.24765 0,0.1143 -0.24765,1.12395 -0.24765,0.9906 -0.62865,2.4765 -0.381,1.46685 -0.55245,2.22885 1.16205,-1.27635 2.53365,-1.27635 h 0.019 q 0.8001,0 1.39065,0.4572 0.6096,0.4572 0.6096,1.524 0,0.9525 -0.762,3.10515 -0.74295,2.15265 -0.74295,2.57175 0,0.5334 0.43815,0.5334 1.0668,0 1.69545,-2.22885 0.0762,-0.3048 0.20955,-0.40005 0.13335,-0.09525 0.28575,-0.0381 0.1524,0.05715 0.1524,0.2286 0,0.1143 -0.1524,0.5334 -0.13335,0.4191 -0.40005,0.97155 -0.2667,0.5334 -0.78105,0.9525 -0.4953,0.4191 -1.08585,0.4191 -0.62865,0 -1.0287,-0.4191 -0.40005,-0.43815 -0.40005,-1.1049 0,-0.381 0.70485,-2.4003 0.70485,-2.03835 0.70485,-3.02895 0,-1.23825 -0.89535,-1.23825 -0.6096,0 -1.16205,0.3429 -0.55245,0.32385 -0.9144,0.8382 -0.36195,0.4953 -0.55245,0.8382 -0.1905,0.32385 -0.28575,0.55245 l -1.16205,4.62915 q -0.2286,0.9906 -0.81915,0.9906 -0.20955,0 -0.36195,-0.1524 -0.1524,-0.13335 -0.1524,-0.36195 z"
           style="font-family:'CMU Classical Serif';-inkscape-font-specification:'CMU Classical Serif';fill:#ffffff"
           id="path13697" /><path
           d="m 416.81399,89.915014 q 0,-0.210502 0.27241,-0.210502 0.0619,0 0.18574,0 0.12383,-0.01238 0.18574,-0.01238 0.12382,0 0.35909,0.01238 0.24765,0 0.37148,0 l 0.44577,-1.795462 q 0.0371,-0.14859 0.0495,-0.173355 0.0124,-0.03715 0.0495,-0.09906 0.0371,-0.07429 0.0867,-0.07429 0.0619,-0.01238 0.16098,-0.01238 h 0.22288 q 0.27242,0 0.27242,0.160973 0,0.210502 -0.48292,1.993582 h 1.01536 q 0.26004,0 0.26004,0.160972 0,0.136208 -0.0991,0.185738 -0.0991,0.03715 -0.34671,0.03715 h -0.19812 q -0.12383,0 -0.37148,0 -0.23527,-0.01238 -0.35909,-0.01238 -0.0248,0.0743 -0.0619,0.24765 -0.0371,0.173355 -0.0619,0.24765 l -0.74295,3.008947 q -0.1362,0.569595 -0.1362,0.804863 0,0.495299 0.34671,0.495299 0.81724,0 1.44875,-1.584959 0.0619,-0.160973 0.22288,-0.160973 0.16098,0 0.16098,0.136208 0,0.334327 -0.55722,1.114425 -0.55721,0.780097 -1.31254,0.780097 -0.47054,0 -0.76772,-0.309563 -0.28479,-0.321944 -0.28479,-0.804862 0,-0.260032 0.0867,-0.54483 l 0.8544,-3.429952 h -1.00299 q -0.27241,0 -0.27241,-0.160973 z"
           style="font-size:65%;baseline-shift:sub;fill:#ffffff"
           id="path13699" /></g><g
         aria-label="yt"
         id="text1466"
         style="font-size:19.05px;line-height:1.25;font-family:'Fairy Godmother DEMO';-inkscape-font-specification:'Fairy Godmother DEMO';text-align:end;letter-spacing:0px;word-spacing:0px;text-anchor:end;stroke-width:0.264583;fill:#ffffff"><path
           d="m 408.30244,40.569272 q 0,-0.59055 0.28575,-0.89535 0.3048,-0.28575 0.66675,-0.28575 0.28575,0 0.4572,0.17145 0.1905,0.17145 0.1905,0.43815 0,0.28575 -0.2286,0.59055 -0.20955,0.3048 -0.74295,0.32385 0.32385,0.8763 1.20015,0.8763 0.85725,0 1.61925,-0.81915 0.762,-0.8001 1.2192,-2.2098 0.0952,-0.3048 0.24765,-0.9525 -0.8382,0.70485 -1.7145,0.70485 -0.85725,0 -1.50495,-0.4953 -0.62865,-0.4953 -0.62865,-1.69545 0,-0.62865 0.3048,-1.847849 0.32385,-1.23825 0.62865,-2.22885 0.32385,-1.00965 0.32385,-1.08585 0,-0.1905 -0.2667,-0.2286 -0.24765,-0.05715 -0.5715,-0.05715 -0.32385,0 -0.40005,-0.05715 -0.17145,-0.1143 -0.0381,-0.36195 0.0953,-0.1524 0.4191,-0.1905 1.905,-0.17145 2.11455,-0.17145 h 0.019 q 0.28575,0 0.28575,0.24765 0,0.17145 -0.2286,1.08585 -0.13335,0.4191 -0.3048,0.51435 -1.12395,3.771899 -1.12395,4.705349 0,1.42875 1.04775,1.42875 0.6477,0 1.20015,-0.4953 0.55245,-0.4953 0.7239,-0.93345 0.0381,-0.1143 0.0762,-0.3048 0.0571,-0.20955 0.0762,-0.28575 l 1.2573,-4.972049 0.0191,-0.09525 q 0.019,-0.09525 0.0381,-0.1524 0.019,-0.0762 0.0571,-0.1905 0.0381,-0.1143 0.0953,-0.1905 0.0762,-0.09525 0.1524,-0.17145 0.0762,-0.0762 0.1905,-0.1143 0.1143,-0.05715 0.24765,-0.05715 0.20955,0 0.36195,0.1524 0.1524,0.13335 0.1524,0.36195 0,0.05715 -0.0381,0.17145 -0.019,0.1143 -0.019,0.13335 l -1.7526,7.029449 q -0.2667,1.04775 -0.7239,1.84785 -0.4572,0.81915 -0.93345,1.2573 -0.47625,0.43815 -1.0287,0.7239 -0.5334,0.28575 -0.9144,0.36195 -0.36195,0.0762 -0.6858,0.0762 -0.8001,0 -1.31445,-0.4572 -0.51435,-0.4572 -0.51435,-1.20015 z"
           style="font-family:'CMU Classical Serif';-inkscape-font-specification:'CMU Classical Serif';fill:#ffffff"
           id="path13692" /><path
           d="m 416.81399,36.99835 q 0,-0.210502 0.27241,-0.210502 0.0619,0 0.18574,0 0.12383,-0.01238 0.18574,-0.01238 0.12382,0 0.35909,0.01238 0.24765,0 0.37148,0 l 0.44577,-1.795462 q 0.0371,-0.14859 0.0495,-0.173355 0.0124,-0.03715 0.0495,-0.09906 0.0371,-0.07429 0.0867,-0.07429 0.0619,-0.01238 0.16098,-0.01238 h 0.22288 q 0.27242,0 0.27242,0.160973 0,0.210502 -0.48292,1.993582 h 1.01536 q 0.26004,0 0.26004,0.160972 0,0.136208 -0.0991,0.185738 -0.0991,0.03715 -0.34671,0.03715 h -0.19812 q -0.12383,0 -0.37148,0 -0.23527,-0.01238 -0.35909,-0.01238 -0.0248,0.07429 -0.0619,0.24765 -0.0371,0.173355 -0.0619,0.24765 l -0.74295,3.008947 q -0.1362,0.569595 -0.1362,0.804862 0,0.4953 0.34671,0.4953 0.81724,0 1.44875,-1.584959 0.0619,-0.160973 0.22288,-0.160973 0.16098,0 0.16098,0.136208 0,0.334327 -0.55722,1.114424 -0.55721,0.780098 -1.31254,0.780098 -0.47054,0 -0.76772,-0.309563 -0.28479,-0.321945 -0.28479,-0.804862 0,-0.260033 0.0867,-0.54483 l 0.8544,-3.429952 h -1.00299 q -0.27241,0 -0.27241,-0.160973 z"
           style="font-size:65%;baseline-shift:sub;fill:#ffffff"
           id="path13694" /></g><g
         aria-label="w2"
         id="text1533"
         style="font-size:19.05px;line-height:1.25;font-family:'Fairy Godmother DEMO';-inkscape-font-specification:'Fairy Godmother DEMO';text-align:end;letter-spacing:0px;word-spacing:0px;text-anchor:end;stroke-width:0.264583;fill:#00aaff;fill-opacity:1"><path
           d="m 475.12311,83.541837 q 0,-0.13335 0.0381,-0.1905 0.0572,-0.0762 0.1905,-0.1143 0.1524,-0.0381 0.28575,-0.05715 0.13335,-0.01905 0.43815,-0.0381 0.3048,-0.01905 0.55245,-0.05715 0.0381,0 0.20955,-0.0381 0.1905,-0.05715 0.55245,-0.05715 h 0.20955 q 0.4191,0 0.4191,0.2667 -0.1905,1.3716 -0.5334,1.6002 -1.0668,3.5433 -1.0668,4.51485 0,0.89535 0.40005,1.2573 0.40005,0.3429 0.8763,0.3429 0.4572,0 0.8382,-0.40005 0.40005,-0.40005 0.55245,-0.7239 0.1524,-0.3429 0.1905,-0.51435 0.019,-0.0762 0.0381,-0.43815 0.019,-0.381 0.1143,-0.78105 0.1905,-0.8382 1.04775,-4.2291 0.2286,-0.8763 0.81915,-0.8763 0.2286,0 0.381,0.1524 0.1524,0.1524 0.1524,0.381 0,0.17145 -0.6477,2.68605 -0.6477,2.49555 -0.6477,3.2004 0,0.81915 0.3429,1.1811 0.3429,0.36195 0.85725,0.36195 0.43815,0 0.81915,-0.2667 0.381,-0.2667 0.62865,-0.62865 0.2667,-0.36195 0.4953,-0.9525 0.24765,-0.59055 0.36195,-0.9906 0.1143,-0.40005 0.2667,-0.9906 0.2667,-1.0668 0.2667,-1.4859 0,-0.74295 -0.381,-1.2954 -0.36195,-0.55245 -0.36195,-0.70485 0,-0.28575 0.2667,-0.5715 0.28575,-0.28575 0.62865,-0.28575 0.3048,0 0.55245,0.3048 0.24765,0.3048 0.24765,1.0287 0,0.70485 -0.40005,2.3241 -0.381,1.6002 -0.74295,2.5146 -0.97155,2.49555 -2.7051,2.49555 -1.6002,0 -2.15265,-1.20015 -0.40005,0.59055 -0.8001,0.89535 -0.40005,0.28575 -1.0668,0.28575 -0.9525,0 -1.7145,-0.5334 -0.762,-0.55245 -0.762,-1.80975 0,-0.55245 0.3048,-1.77165 0.3048,-1.23825 0.6096,-2.2479 0.32385,-1.00965 0.32385,-1.0287 0,-0.2286 -0.6477,-0.24765 -0.6477,-0.01905 -0.6477,-0.2667 z"
           style="font-family:'CMU Classical Serif';-inkscape-font-specification:'CMU Classical Serif';fill:#00aaff;fill-opacity:1"
           id="path13712" /><path
           d="m 485.93588,95.140429 q 0,-0.173355 0.17336,-0.606742 0.17335,-0.433388 0.69342,-1.114425 0.52006,-0.681038 1.25063,-1.151573 0.0124,0 0.39624,-0.235267 0.39624,-0.24765 0.60674,-0.39624 0.2105,-0.14859 0.59436,-0.507683 0.39624,-0.359092 0.60674,-0.705802 0.21051,-0.34671 0.38386,-0.879157 0.18574,-0.54483 0.18574,-1.13919 0,-0.619125 -0.29718,-0.978218 -0.29718,-0.371475 -0.79248,-0.371475 -0.66866,0 -1.26302,0.619125 -0.59436,0.606743 -0.89154,1.324928 -0.28479,0.705802 -0.28479,1.188719 0,0.39624 0.28479,0.39624 0.44577,0 0.81725,-0.606742 0.37147,-0.619125 0.37147,-1.052512 0,-0.136208 -0.0619,-0.321945 -0.0619,-0.185738 -0.0619,-0.210503 0,-0.04953 0.0371,-0.08668 0.0495,-0.04953 0.11144,-0.03715 0.0991,0.02477 0.17335,0.222885 0.0743,0.19812 0.0743,0.421005 0,0.54483 -0.43339,1.250632 -0.43339,0.705803 -1.05251,0.705803 -0.30956,0 -0.47054,-0.210503 -0.16097,-0.222885 -0.16097,-0.557212 0,-0.359093 0.19812,-0.89154 0.19812,-0.54483 0.53245,-1.08966 0.34671,-0.557212 0.90392,-0.94107 0.5696,-0.39624 1.21349,-0.39624 0.84201,0 1.38684,0.581978 0.54483,0.581977 0.54483,1.498282 0,0.978217 -0.60675,1.696402 -0.60674,0.718185 -2.1174,1.58496 -0.0248,0.01238 -0.19812,0.111443 -0.16098,0.09906 -0.21051,0.136207 -0.0495,0.02477 -0.22288,0.123825 -0.16097,0.09906 -0.23527,0.14859 -0.0619,0.04953 -0.22288,0.160973 -0.14859,0.111442 -0.23527,0.19812 -0.0867,0.08668 -0.22289,0.222885 -0.1362,0.123825 -0.23526,0.24765 -0.0991,0.123825 -0.22289,0.284797 -0.11144,0.160973 -0.2105,0.334328 0.14859,-0.03715 0.29718,-0.03715 0.38386,0 1.16395,0.185738 0.7801,0.173355 1.15158,0.173355 0.29718,0 0.54483,-0.123825 0.26003,-0.136208 0.421,-0.334328 0.17336,-0.210502 0.27242,-0.371475 0.0991,-0.160972 0.16097,-0.309562 0.0371,-0.0743 0.0743,-0.173355 0.0371,-0.111443 0.0495,-0.136208 0.0124,-0.03715 0.0495,-0.06191 0.0495,-0.03715 0.12383,-0.03715 0.17335,0 0.17335,0.160973 0,0.136207 -0.1362,0.482917 -0.12383,0.334328 -0.34671,0.74295 -0.22289,0.408622 -0.63151,0.718185 -0.40862,0.309562 -0.86678,0.309562 -0.4953,0 -1.18872,-0.470535 -0.68103,-0.470534 -1.05251,-0.470534 -0.2105,0 -0.35909,0.14859 -0.11144,0.111442 -0.19812,0.272414 -0.0743,0.14859 -0.11144,0.24765 -0.0248,0.111443 -0.0867,0.185738 -0.0619,0.08668 -0.16097,0.08668 -0.17336,0 -0.17336,-0.160972 z"
           style="font-size:65%;baseline-shift:sub;fill:#00aaff;fill-opacity:1"
           id="path13714" /></g><g
         aria-label="w1"
         id="text1539"
         style="font-size:19.05px;line-height:1.25;font-family:'Fairy Godmother DEMO';-inkscape-font-specification:'Fairy Godmother DEMO';text-align:end;letter-spacing:0px;word-spacing:0px;text-anchor:end;stroke-width:0.264583;fill:#ffffff"><path
           d="m 412.68149,112.11681 q 0,-0.13335 0.0381,-0.1905 0.0572,-0.0762 0.1905,-0.1143 0.1524,-0.0381 0.28575,-0.0572 0.13335,-0.019 0.43815,-0.0381 0.3048,-0.019 0.55245,-0.0571 0.0381,0 0.20955,-0.0381 0.1905,-0.0572 0.55245,-0.0572 h 0.20955 q 0.4191,0 0.4191,0.2667 -0.1905,1.3716 -0.5334,1.6002 -1.0668,3.5433 -1.0668,4.51485 0,0.89535 0.40005,1.2573 0.40005,0.3429 0.8763,0.3429 0.4572,0 0.8382,-0.40005 0.40005,-0.40005 0.55245,-0.7239 0.1524,-0.3429 0.1905,-0.51435 0.019,-0.0762 0.0381,-0.43815 0.019,-0.381 0.1143,-0.78105 0.1905,-0.8382 1.04775,-4.2291 0.2286,-0.8763 0.81915,-0.8763 0.2286,0 0.381,0.1524 0.1524,0.1524 0.1524,0.381 0,0.17145 -0.6477,2.68605 -0.6477,2.49555 -0.6477,3.2004 0,0.81915 0.3429,1.1811 0.3429,0.36195 0.85725,0.36195 0.43815,0 0.81915,-0.2667 0.381,-0.2667 0.62865,-0.62865 0.2667,-0.36195 0.4953,-0.9525 0.24765,-0.59055 0.36195,-0.9906 0.1143,-0.40005 0.2667,-0.9906 0.2667,-1.0668 0.2667,-1.4859 0,-0.74295 -0.381,-1.2954 -0.36195,-0.55245 -0.36195,-0.70485 0,-0.28575 0.2667,-0.5715 0.28575,-0.28575 0.62865,-0.28575 0.3048,0 0.55245,0.3048 0.24765,0.3048 0.24765,1.0287 0,0.70485 -0.40005,2.3241 -0.381,1.6002 -0.74295,2.5146 -0.97155,2.49555 -2.7051,2.49555 -1.6002,0 -2.15265,-1.20015 -0.40005,0.59055 -0.8001,0.89535 -0.40005,0.28575 -1.0668,0.28575 -0.9525,0 -1.7145,-0.5334 -0.762,-0.55245 -0.762,-1.80975 0,-0.55245 0.3048,-1.77165 0.3048,-1.23825 0.6096,-2.2479 0.32385,-1.00965 0.32385,-1.0287 0,-0.2286 -0.6477,-0.24765 -0.6477,-0.0191 -0.6477,-0.2667 z"
           style="font-family:'CMU Classical Serif';-inkscape-font-specification:'CMU Classical Serif';fill:#ffffff"
           id="path13702" /><path
           d="m 423.91527,123.44299 q 0,-0.22289 0.30956,-0.22289 h 0.12382 q 0.73057,-0.0124 0.90393,-0.12382 0.17335,-0.11144 0.28479,-0.5696 l 1.43637,-5.69595 q -0.76771,0.4953 -1.31254,0.4953 -0.19812,0 -0.23527,-0.0991 -0.0371,-0.11144 0.0371,-0.2105 0.0495,-0.0619 0.26003,-0.0867 0.2105,-0.0371 0.47054,-0.0991 0.26003,-0.0619 0.7058,-0.39624 0.44577,-0.34671 0.9163,-0.94107 0.0991,-0.12382 0.18574,-0.12382 0.13621,0 0.13621,0.16097 0,0.0619 -0.0248,0.16097 l -1.75831,7.0085 q -0.0371,0.16097 -0.0371,0.26003 0,0.26003 0.63151,0.26003 0.0371,0 0.11144,0 0.0743,-0.0124 0.11144,-0.0124 0.26004,0 0.34671,0.0495 0.13621,0.0991 0.0248,0.26003 -0.0619,0.0867 -0.2105,0.0867 -0.0495,0 -0.24765,-0.0124 -0.19812,-0.0124 -0.55722,-0.0124 -0.35909,-0.0124 -0.78009,-0.0124 -0.42101,0 -0.79248,0.0124 -0.3591,0 -0.5696,0.0124 -0.19812,0.0124 -0.24765,0.0124 -0.22288,0 -0.22288,-0.16097 z"
           style="font-size:65%;baseline-shift:sub;fill:#ffffff"
           id="path13704" /></g><g
         aria-label="w3"
         id="text1545"
         style="font-size:19.05px;line-height:1.25;font-family:'Fairy Godmother DEMO';-inkscape-font-specification:'Fairy Godmother DEMO';text-align:end;letter-spacing:0px;word-spacing:0px;text-anchor:end;stroke-width:0.264583;fill:#ffffff"><path
           d="m 412.68149,59.20017 q 0,-0.13335 0.0381,-0.1905 0.0572,-0.0762 0.1905,-0.1143 0.1524,-0.0381 0.28575,-0.05715 0.13335,-0.01905 0.43815,-0.0381 0.3048,-0.01905 0.55245,-0.05715 0.0381,0 0.20955,-0.0381 0.1905,-0.05715 0.55245,-0.05715 h 0.20955 q 0.4191,0 0.4191,0.2667 -0.1905,1.3716 -0.5334,1.6002 -1.0668,3.543299 -1.0668,4.514849 0,0.89535 0.40005,1.2573 0.40005,0.3429 0.8763,0.3429 0.4572,0 0.8382,-0.40005 0.40005,-0.40005 0.55245,-0.7239 0.1524,-0.3429 0.1905,-0.51435 0.019,-0.0762 0.0381,-0.43815 0.019,-0.381 0.1143,-0.78105 0.1905,-0.8382 1.04775,-4.229099 0.2286,-0.8763 0.81915,-0.8763 0.2286,0 0.381,0.1524 0.1524,0.1524 0.1524,0.381 0,0.17145 -0.6477,2.68605 -0.6477,2.495549 -0.6477,3.200399 0,0.81915 0.3429,1.1811 0.3429,0.36195 0.85725,0.36195 0.43815,0 0.81915,-0.2667 0.381,-0.2667 0.62865,-0.62865 0.2667,-0.36195 0.4953,-0.9525 0.24765,-0.59055 0.36195,-0.9906 0.1143,-0.40005 0.2667,-0.9906 0.2667,-1.066799 0.2667,-1.485899 0,-0.74295 -0.381,-1.2954 -0.36195,-0.55245 -0.36195,-0.70485 0,-0.28575 0.2667,-0.5715 0.28575,-0.28575 0.62865,-0.28575 0.3048,0 0.55245,0.3048 0.24765,0.3048 0.24765,1.0287 0,0.70485 -0.40005,2.3241 -0.381,1.600199 -0.74295,2.514599 -0.97155,2.49555 -2.7051,2.49555 -1.6002,0 -2.15265,-1.20015 -0.40005,0.59055 -0.8001,0.89535 -0.40005,0.28575 -1.0668,0.28575 -0.9525,0 -1.7145,-0.5334 -0.762,-0.55245 -0.762,-1.80975 0,-0.55245 0.3048,-1.77165 0.3048,-1.238249 0.6096,-2.247899 0.32385,-1.00965 0.32385,-1.0287 0,-0.2286 -0.6477,-0.24765 -0.6477,-0.01905 -0.6477,-0.2667 z"
           style="font-family:'CMU Classical Serif';-inkscape-font-specification:'CMU Classical Serif';fill:#ffffff"
           id="path13717" /><path
           d="m 423.61809,69.374774 q 0,-0.532447 0.18574,-0.74295 0.19811,-0.210502 0.45815,-0.210502 0.19812,0 0.30956,0.111442 0.11144,0.111443 0.11144,0.284798 0,0.19812 -0.16097,0.39624 -0.14859,0.19812 -0.4953,0.19812 h -0.0248 q 0.0248,0.4953 0.26004,0.804862 0.24765,0.29718 0.48291,0.383858 0.24765,0.0743 0.50769,0.0743 0.52006,0 1.00298,-0.309563 0.4953,-0.321945 0.76771,-0.829627 0.22289,-0.421005 0.34671,-0.965835 0.12383,-0.54483 0.12383,-0.817245 0,-1.027747 -0.9906,-1.027747 h -0.35909 q -0.26004,0 -0.26004,-0.160973 0,-0.222885 0.30957,-0.222885 0.0248,0 0.0743,0.01238 0.0495,0 0.0743,0 h 0.1362 q 0.55722,0 0.97822,-0.235268 0.43339,-0.235267 0.64389,-0.54483 0.22289,-0.321945 0.35909,-0.718185 0.13621,-0.39624 0.16098,-0.631507 0.0371,-0.24765 0.0371,-0.408623 0,-0.520064 -0.29718,-0.804862 -0.28479,-0.29718 -0.75533,-0.29718 -0.87916,0 -1.60972,0.69342 -0.71819,0.681037 -0.71819,1.423987 0,0.470535 0.34671,0.470535 0.23527,0 0.47054,-0.222885 0.24765,-0.222885 0.24765,-0.532447 0,-0.123825 -0.0743,-0.284798 -0.0619,-0.160972 -0.0619,-0.210502 0,-0.123825 0.12382,-0.123825 0.0867,0 0.18574,0.185737 0.11144,0.185738 0.11144,0.421005 0,0.421005 -0.32194,0.730568 -0.32195,0.309562 -0.71819,0.309562 -0.30956,0 -0.4953,-0.210502 -0.18573,-0.222885 -0.18573,-0.569595 0,-0.829628 0.82962,-1.597342 0.82963,-0.767715 1.90691,-0.767715 0.74295,0 1.25063,0.458152 0.52007,0.44577 0.52007,1.213485 0,0.74295 -0.52007,1.43637 -0.52006,0.681037 -1.4859,1.064895 0.43339,0.19812 0.7058,0.606742 0.27242,0.408623 0.27242,0.965835 0,1.114425 -0.97822,1.956435 -0.96583,0.829627 -2.12979,0.829627 -0.74295,0 -1.2011,-0.433387 -0.45815,-0.44577 -0.45815,-1.151573 z"
           style="font-size:65%;baseline-shift:sub;fill:#ffffff"
           id="path13719" /></g><g
         aria-label="b1"
         id="text1551"
         style="font-size:12.192px;line-height:1.25;font-family:'Fairy Godmother DEMO';-inkscape-font-specification:'Fairy Godmother DEMO';text-align:end;letter-spacing:0px;word-spacing:0px;text-anchor:end;stroke-width:0.264583;fill:#ffffff"><path
           d="m 380.65311,116.39329 q 0,-0.42672 0.18288,-1.15824 l 1.12166,-4.51104 q 0.061,-0.21946 0.061,-0.317 0,-0.21945 -0.43891,-0.21945 -0.43891,-0.0122 -0.43891,-0.18288 0,-0.061 0.0244,-0.0975 0.0244,-0.0366 0.0488,-0.061 0.0244,-0.0244 0.0731,-0.0366 0.0488,-0.0244 0.0731,-0.0244 0.0244,0 0.0731,0 0.061,-0.0122 0.0732,-0.0122 0.15849,-0.0122 0.48768,-0.0366 0.32918,-0.0366 0.53644,-0.0488 0.21946,-0.0244 0.24384,-0.0244 0.19508,0 0.19508,0.17069 0,0.0731 -0.061,0.28042 l -0.81687,3.27964 q 0.68275,-0.65836 1.29235,-0.65836 0.65837,0 1.0729,0.53644 0.41453,0.53645 0.41453,1.36551 0,1.34112 -0.89002,2.48717 -0.87782,1.13385 -1.91414,1.13385 -0.63399,0 -1.02413,-0.51206 -0.39014,-0.52426 -0.39014,-1.35331 z m 0.69494,0.42672 q 0,0.4511 0.17069,0.80467 0.17069,0.35357 0.56083,0.35357 0.53645,0 1.03632,-0.71933 0.39014,-0.56083 0.64618,-1.60935 0.26822,-1.0607 0.26822,-1.56057 0,-0.51207 -0.18288,-0.79248 -0.17069,-0.28042 -0.47549,-0.28042 -0.3048,0 -0.67056,0.26823 -0.36576,0.25603 -0.67056,0.69494 -0.0731,0.10973 -0.12192,0.21946 -0.0488,0.0975 -0.0731,0.17068 -0.0122,0.0732 -0.0853,0.35357 -0.061,0.26823 -0.10973,0.47549 -0.29261,1.13386 -0.29261,1.62154 z"
           style="font-family:'CMU Classical Serif';-inkscape-font-specification:'CMU Classical Serif';fill:#ffffff"
           id="path13727" /><path
           d="m 385.81884,120.45993 q 0,-0.14265 0.19812,-0.14265 h 0.0793 q 0.46757,-0.008 0.57851,-0.0793 0.11095,-0.0713 0.18227,-0.36454 l 0.91928,-3.64541 q -0.49134,0.317 -0.84003,0.317 -0.1268,0 -0.15057,-0.0634 -0.0238,-0.0713 0.0238,-0.13472 0.0317,-0.0396 0.16643,-0.0555 0.13472,-0.0238 0.30114,-0.0634 0.16642,-0.0396 0.45171,-0.25359 0.28529,-0.22189 0.58644,-0.60228 0.0634,-0.0793 0.11887,-0.0793 0.0872,0 0.0872,0.10302 0,0.0396 -0.0159,0.10302 l -1.12532,4.48544 q -0.0238,0.10302 -0.0238,0.16642 0,0.16642 0.40416,0.16642 0.0238,0 0.0713,0 0.0476,-0.008 0.0713,-0.008 0.16642,0 0.22189,0.0317 0.0872,0.0634 0.0159,0.16642 -0.0396,0.0555 -0.13472,0.0555 -0.0317,0 -0.1585,-0.008 -0.12679,-0.008 -0.35661,-0.008 -0.22982,-0.008 -0.49927,-0.008 -0.26944,0 -0.50718,0.008 -0.22982,0 -0.36454,0.008 -0.1268,0.008 -0.1585,0.008 -0.14265,0 -0.14265,-0.10302 z"
           style="font-size:7.9248px;baseline-shift:sub;fill:#ffffff"
           id="path13729" /></g><g
         aria-label="b2"
         id="text1557"
         style="font-size:12.192px;line-height:1.25;font-family:'Fairy Godmother DEMO';-inkscape-font-specification:'Fairy Godmother DEMO';text-align:end;letter-spacing:0px;word-spacing:0px;text-anchor:end;stroke-width:0.264583;fill:#ffffff"><path
           d="m 380.71326,63.476645 q 0,-0.42672 0.18288,-1.15824 l 1.12166,-4.511041 q 0.061,-0.219456 0.061,-0.316992 0,-0.219456 -0.43891,-0.219456 -0.43891,-0.01219 -0.43891,-0.18288 0,-0.06096 0.0244,-0.09754 0.0244,-0.03658 0.0488,-0.06096 0.0244,-0.02438 0.0731,-0.03658 0.0488,-0.02438 0.0731,-0.02438 0.0244,0 0.0731,0 0.061,-0.01219 0.0732,-0.01219 0.15849,-0.01219 0.48768,-0.03658 0.32918,-0.03658 0.53644,-0.04877 0.21946,-0.02438 0.24384,-0.02438 0.19508,0 0.19508,0.170688 0,0.07315 -0.061,0.280416 l -0.81687,3.279648 q 0.68275,-0.658368 1.29235,-0.658368 0.65837,0 1.0729,0.536448 0.41453,0.536448 0.41453,1.365505 0,1.34112 -0.89002,2.487168 -0.87782,1.133856 -1.91414,1.133856 -0.63399,0 -1.02413,-0.512064 -0.39014,-0.524256 -0.39014,-1.353312 z m 0.69494,0.42672 q 0,0.451104 0.17069,0.804672 0.17069,0.353568 0.56083,0.353568 0.53645,0 1.03632,-0.719328 0.39014,-0.560832 0.64618,-1.609344 0.26822,-1.060704 0.26822,-1.560576 0,-0.512065 -0.18288,-0.792481 -0.17069,-0.280416 -0.47549,-0.280416 -0.3048,0 -0.67056,0.268224 -0.36576,0.256032 -0.67056,0.694944 -0.0731,0.109729 -0.12192,0.219457 -0.0488,0.09754 -0.0731,0.170688 -0.0122,0.07315 -0.0853,0.353568 -0.061,0.268224 -0.10973,0.475488 -0.29261,1.133856 -0.29261,1.621536 z"
           style="font-family:'CMU Classical Serif';-inkscape-font-specification:'CMU Classical Serif';fill:#ffffff"
           id="path13722" /><path
           d="m 385.60955,67.717632 q 0,-0.110947 0.11095,-0.388315 0.11095,-0.277368 0.44379,-0.713232 0.33284,-0.435864 0.8004,-0.737007 0.008,0 0.2536,-0.150571 0.25359,-0.158496 0.38831,-0.253594 0.13472,-0.0951 0.38039,-0.324916 0.2536,-0.22982 0.38832,-0.451714 0.13472,-0.221894 0.24567,-0.562661 0.11887,-0.348691 0.11887,-0.729081 0,-0.39624 -0.1902,-0.626059 -0.19019,-0.237744 -0.50718,-0.237744 -0.42794,0 -0.80833,0.39624 -0.38039,0.388315 -0.57059,0.847953 -0.18227,0.451714 -0.18227,0.760781 0,0.253593 0.18227,0.253593 0.28529,0 0.52304,-0.388315 0.23774,-0.39624 0.23774,-0.673608 0,-0.08717 -0.0396,-0.206044 -0.0396,-0.118872 -0.0396,-0.134722 0,-0.0317 0.0238,-0.05547 0.0317,-0.0317 0.0713,-0.02377 0.0634,0.01585 0.11095,0.142646 0.0476,0.126797 0.0476,0.269444 0,0.348691 -0.27737,0.800404 -0.27737,0.451714 -0.67361,0.451714 -0.19812,0 -0.30114,-0.134722 -0.10302,-0.142646 -0.10302,-0.356616 0,-0.229819 0.12679,-0.570585 0.1268,-0.348691 0.34077,-0.697383 0.22189,-0.356616 0.57851,-0.602284 0.36454,-0.253594 0.77663,-0.253594 0.53889,0 0.88758,0.372466 0.34869,0.372465 0.34869,0.9589 0,0.626059 -0.38832,1.085698 -0.38831,0.459638 -1.35514,1.014374 -0.0159,0.0079 -0.12679,0.07132 -0.10303,0.0634 -0.13473,0.08717 -0.0317,0.01585 -0.14264,0.07925 -0.10302,0.0634 -0.15057,0.0951 -0.0396,0.0317 -0.14265,0.103022 -0.0951,0.07132 -0.15057,0.126797 -0.0555,0.05547 -0.14265,0.142646 -0.0872,0.07925 -0.15057,0.158496 -0.0634,0.07925 -0.14265,0.182271 -0.0713,0.103022 -0.13472,0.213969 0.0951,-0.02377 0.1902,-0.02377 0.24567,0 0.74493,0.118872 0.49926,0.110947 0.73701,0.110947 0.19019,0 0.34869,-0.07925 0.16642,-0.08717 0.26944,-0.213969 0.11095,-0.134722 0.17435,-0.237744 0.0634,-0.103023 0.10302,-0.19812 0.0238,-0.04755 0.0476,-0.110948 0.0238,-0.07132 0.0317,-0.08717 0.008,-0.02378 0.0317,-0.03962 0.0317,-0.02378 0.0792,-0.02378 0.11095,0 0.11095,0.103023 0,0.08717 -0.0872,0.309067 -0.0793,0.213969 -0.2219,0.475488 -0.14264,0.261518 -0.40416,0.459638 -0.26152,0.19812 -0.55474,0.19812 -0.31699,0 -0.76078,-0.301142 -0.43586,-0.301143 -0.67361,-0.301143 -0.13472,0 -0.22982,0.0951 -0.0713,0.07132 -0.12679,0.174346 -0.0476,0.0951 -0.0713,0.158496 -0.0158,0.07132 -0.0555,0.118872 -0.0396,0.05547 -0.10302,0.05547 -0.11095,0 -0.11095,-0.103022 z"
           style="font-size:7.9248px;baseline-shift:sub;fill:#ffffff"
           id="path13724" /></g><circle
         style="fill:none;fill-opacity:0.2;stroke:#ffffff;stroke-width:0.264583;stroke-linejoin:round;stroke-dasharray:none;stroke-opacity:1;stop-color:#000000"
         id="path1611"
         cx="384.1011"
         cy="62.509399"
         r="7.5588932" /><circle
         style="fill:none;fill-opacity:0.2;stroke:#ffffff;stroke-width:0.264583;stroke-linejoin:round;stroke-dasharray:none;stroke-opacity:1;stop-color:#000000"
         id="circle1613"
         cx="384.1011"
         cy="115.42604"
         r="7.5588932" /><path
         style="color:#000000;fill:#ffffff;-inkscape-stroke:none"
         d="m 408.8457,105.78516 v 21.96093 h 0.26367 v -21.96093 z"
         id="path3609" /><g
         id="g3603"
         style="fill:#ffffff;fill-opacity:1"><path
           style="fill:#ffffff;fill-opacity:1;fill-rule:evenodd;stroke-width:0.5"
           d="m 408.97779,105.78463 2.5,2.5 -2.5,-8.75 -2.5,8.75 z"
           id="path3605" /></g><path
         style="color:#000000;fill:#ffffff;-inkscape-stroke:none"
         d="m 408.8457,52.867187 v 21.962891 h 0.26367 V 52.867187 Z"
         id="path3639" /><g
         id="g3633"
         style="fill:#ffffff;fill-opacity:1"><path
           style="fill:#ffffff;fill-opacity:1;fill-rule:evenodd;stroke-width:0.5"
           d="m 408.97779,52.867957 2.5,2.5 -2.5,-8.75 -2.5,8.75 z"
           id="path3635" /></g><path
         style="color:#000000;fill:#00aaff;-inkscape-stroke:none"
         d="m 450.52734,59.417969 c -3.44334,0.105638 -6.72527,1.267149 -9.35547,3.353515 -3.50692,2.781822 -5.84972,7.210876 -5.86718,12.951172 h 0.26367 c 0.0172,-5.668857 2.32269,-10.011536 5.76758,-12.74414 3.44488,-2.732604 8.03446,-3.852961 12.625,-3.048829 9.18107,1.608266 18.38476,10.908272 18.38476,30.478516 0,9.785337 -2.28143,16.695227 -5.69726,21.283207 -3.41583,4.58798 -7.96715,6.86001 -12.53516,7.36132 -4.56801,0.50132 -9.15272,-0.77301 -12.61914,-3.28125 -3.46642,-2.50823 -5.81276,-6.24304 -5.92578,-10.68164 l -0.26367,0.006 c 0.11529,4.52806 2.51346,8.3424 6.03515,10.89063 3.5217,2.54822 8.16742,3.83683 12.80274,3.32812 4.63532,-0.5087 9.26062,-2.82004 12.71875,-7.46484 3.45813,-4.6448 5.74805,-11.61494 5.74804,-21.441407 0,-19.653376 -9.28111,-29.107211 -18.60351,-30.740234 -1.1653,-0.204128 -2.33073,-0.285213 -3.47852,-0.25 z"
         id="path3599" /><g
         id="g3593"
         style="fill:#00aaff;fill-opacity:1"><path
           style="fill:#00aaff;fill-opacity:1;fill-rule:evenodd;stroke-width:0.5"
           d="m 435.43614,105.09263 2.56283,2.43555 -2.72192,-8.683525 -2.27646,8.810805 z"
           id="path3595" /></g><path
         style="color:#000000;fill:#ffffff;-inkscape-stroke:none"
         d="m 394.58984,103.05273 -5.29101,6.08594 0.19922,0.17383 5.29297,-6.08594 z"
         id="path3619" /><g
         id="g3613"
         style="fill:#ffffff;fill-opacity:1"><path
           style="fill:#ffffff;fill-opacity:1;fill-rule:evenodd;stroke-width:0.5"
           d="m 394.69028,103.1388 0.24658,3.52693 3.85386,-8.243805 -7.62737,4.963455 z"
           id="path3615" /></g><path
         style="color:#000000;fill:#ffffff;-inkscape-stroke:none"
         d="m 394.58984,50.134766 -5.29101,6.08789 0.19922,0.173828 5.29297,-6.08789 z"
         id="path3629" /><g
         id="g3623"
         style="fill:#ffffff;fill-opacity:1"><path
           style="fill:#ffffff;fill-opacity:1;fill-rule:evenodd;stroke-width:0.5"
           d="m 394.69028,50.222124 0.24657,3.526925 3.85387,-8.243796 -7.62737,4.963443 z"
           id="path3625" /></g></g></g></svg>
